<mxfile host="app.diagrams.net" modified="2023-06-10T11:21:07.308Z" agent="Mozilla/5.0 (X11; Linux x86_64) AppleWebKit/537.36 (KHTML, like Gecko) Chrome/113.0.0.0 Safari/537.36" etag="QIJx8z29k0jX5rRasBP4" version="21.3.2" type="device">
  <diagram name="Page-1" id="zWoOP40vQxfSUebzhEXs">
    <mxGraphModel dx="701" dy="388" grid="1" gridSize="10" guides="1" tooltips="1" connect="1" arrows="1" fold="1" page="1" pageScale="1" pageWidth="850" pageHeight="1100" math="0" shadow="0">
      <root>
        <mxCell id="0" />
        <mxCell id="1" parent="0" />
        <mxCell id="LZXIq_IzAA0K0jnKkOAt-2" value="" style="rounded=1;whiteSpace=wrap;html=1;fillColor=none;dashed=1;strokeColor=#007FFF;" vertex="1" parent="1">
          <mxGeometry x="320.63" y="150" width="170" height="160" as="geometry" />
        </mxCell>
        <mxCell id="2PSiQPES3JSb_-M2PAoh-13" style="edgeStyle=orthogonalEdgeStyle;rounded=0;orthogonalLoop=1;jettySize=auto;html=1;exitX=0.5;exitY=1;exitDx=0;exitDy=0;entryX=0.5;entryY=0;entryDx=0;entryDy=0;" parent="1" source="2PSiQPES3JSb_-M2PAoh-1" target="2PSiQPES3JSb_-M2PAoh-12" edge="1">
          <mxGeometry relative="1" as="geometry" />
        </mxCell>
        <mxCell id="2PSiQPES3JSb_-M2PAoh-14" value="Extract cluster IDs" style="edgeLabel;html=1;align=center;verticalAlign=middle;resizable=0;points=[];" parent="2PSiQPES3JSb_-M2PAoh-13" vertex="1" connectable="0">
          <mxGeometry x="-0.2701" y="3" relative="1" as="geometry">
            <mxPoint as="offset" />
          </mxGeometry>
        </mxCell>
        <mxCell id="2PSiQPES3JSb_-M2PAoh-1" value="AV-HuBERT encoder" style="rounded=1;whiteSpace=wrap;html=1;fillColor=#e1d5e7;strokeColor=#9673a6;" parent="1" vertex="1">
          <mxGeometry x="340" y="180" width="120" height="40" as="geometry" />
        </mxCell>
        <mxCell id="2PSiQPES3JSb_-M2PAoh-8" style="edgeStyle=orthogonalEdgeStyle;rounded=0;orthogonalLoop=1;jettySize=auto;html=1;exitX=0.5;exitY=1;exitDx=0;exitDy=0;entryX=0.25;entryY=0;entryDx=0;entryDy=0;" parent="1" source="2PSiQPES3JSb_-M2PAoh-4" target="2PSiQPES3JSb_-M2PAoh-1" edge="1">
          <mxGeometry relative="1" as="geometry" />
        </mxCell>
        <mxCell id="2PSiQPES3JSb_-M2PAoh-4" value="" style="shape=image;imageAspect=0;aspect=fixed;verticalLabelPosition=bottom;verticalAlign=top;image=data:image/jpeg,/9j/4AAQSkZJRgABAQAAAQABAAD/2wCEAAUFBQUFBQUGBgUICAcICAsKCQkKCxEMDQwNDBEaEBMQEBMQGhcbFhUWGxcpIBwcICkvJyUnLzkzMzlHREddXX0BBQUFBQUFBQYGBQgIBwgICwoJCQoLEQwNDA0MERoQExAQExAaFxsWFRYbFykgHBwgKS8nJScvOTMzOUdER11dff/CABEIAWgBaAMBIQACEQEDEQH/xAAdAAEAAgIDAQEAAAAAAAAAAAAABwgDBgIEBQkB/9oACAEBAAAAALlgAAAAAAAAAAAAAAAAAAAAAAAAAAAAAAAAAAAAAAAAAAAAAAAAAAAAAAAAAAAAAAAAAAAAAAAAAAAAAAAAAAAAAAAAAAAAAAAAAAAAAAw5gAAAAAAGk7pyAAAB5fqAAAivf/VDxPbAABFUqgAAhnuyyERS6AGqbWCtVj8w1LbQaptYQTo9rgrnYwAIGnfkPyi1udxEHzH3R+QPPIV8he2G9n5Uq2wDHkULs5LDFliylNgbUOh36PztNSJ5XhSKbK7bhjeTqP6LNdryK6+We3kCBJ3835mTrcbpRvMdTqv7rdiQq22L+Ycv3Z/PnveSi60s6wLBFyvnFj9S78oZarQVZaxAI2qdJPRqluFr/DgC59ItJ79jNsrBM9b9vtDnpnK0U89vv7SqMZggbnmlX3rU0S1TZvpvlHT+XXhZc3mcvc/fC9zxOH76eTysvW5+x2ddyYnLddPw5sBn4+z4nD8+rnthHVTJI6FUtwtd40AXPpBpPfsbtlYJnrdt9ouxTGWIn57f9AqTxhL8Dc80rbBaeiOqbN9N8oIHnbyvmbOtxepHEw1Oq/ut15DrfYn5hy/dfn897yUVWlnWCIGuV84eHqXelHJVaCrL2HAxZVC7NyyxZYspVP8Aal53o0fnaakTyxCcU2U27DHEm0f0abLWkV18s7vQAgedeY/KLW63AQjMPdH5A88n5+1+ha1+9nGpVtwA1TawVqsdnGpbaDVNrCCdItaFc7GAAAiqVQAAQz3pYCI5cAAB5XqgAAivfvWDxPbAAAAAA0jdeQAAAAAAGLKAAAAAAAAAAAAAAAAAAAAAAAAAAAAAAAAAAAAAAAAAAAAAAAAAAAAAAAAAAAAAAAAAAAAAAAAAAAAAAAAAAAAAAAAAAAAAAAAAAA//xAAUAQEAAAAAAAAAAAAAAAAAAAAA/9oACAECEAAAAAAAAAAAAAAAAAAAAAAAAAAAAAAAAAAAAAAAAAAAAAAAAAAAAAAAAAAAAAAAAAAAAAAAAAAAAAAAAAAAAAAAAAAAAAAAAAAAAAAAAAAAAAAAAAAAAAAAAAAAAAAAAAAAAAAAAAAAAAAAAAAAAAAAAAAAAAAAAAAAAAAAAAAAAAAAAB//xAAUAQEAAAAAAAAAAAAAAAAAAAAA/9oACAEDEAAAAAAAAAAAAAAAAAAAAAAAAAAAAAAAAAAAAAAAAAAAAAAAAAAAAAAAAAAAAAAAAAAAAAAAAAAAAAAAAAAAAAAAAAAAAAAAAAAAAAAAAAAAAAAAAAAAAAAAAAAAAAAAAAAAAAAAAAAAAAAAAAAAAAAAAAAAAAAAAAAAAAAAAAAAAAAAAB//xAAuEAAABwABAwMDAwQDAAAAAAABAgMEBQYHAAgREhMUIBAVQBYiMBchUJAjJzH/2gAIAQEAAQgA/wBNTpwkzbruVv8AGaU9GPoFvdAmcpyEOH5EdLFdSU40D8LblfRyq5H5AuBcwkOsPxbyfq2SUivw6VJC80LYEPw+oFQEsrsJOVae/flTAPjEv/Pa7gz/AJLnNjX4Qj4PiPM4mSNtN3ZdRm7SfNGjpL4XqZPXarJypPlEzR3tutsT8uow/hmjkOU+U8rnhDb5V5936k7umH8fURI+xoLU6aZyqJpqF+BjAUSgNclRQsXUK55nj4H1Dpa3x6hXvtsulvCMcA7jo9yH0ExQ/wDeGMUvbvTJMVtx1hr8O4CI9udSahf6eIAFQf8AfQ8LDlAnzT7Oxqm+pzFKH7qy6E/U5af4TLoAumgbgj2DvzQ7SpYsjglD1W3KPrk1gvq2ct3SCLlDmh2FSFsmVtCMH4pOdgPykWgWUX07MQ+kfKMZQZIjUeaDZzWDKZkRptuOpO5/A/XUbUlDQFZftO4AAiN0vjQ8VlUsxp82EbuGtvBz2bVn6LVZNbijlBJVukpQ7GaZsmpND80uxjOUy5pjTXffQskEcQuCERTdFlXv116wnrMJXHJK2+I16lLE5UzCeVs9Brcw5+c7ZxQ36mRIILIrFMdOxu/ZwM25Ks+FTOopiOazJl9rgwCKlY+YYIP4+zSX2et2CT5hc0m+zCse45v8qLO9ZZ4i58F7pyImjIPMRAKPczWac0ONMJigYpRxC3IOA1d4/eOAbM3a/CyRlqA4aGz6bE+s5j5Rkmwlm3u2Mq9JGRki+NYrM4kchoaKtlnUW1KsEgSYnjnzjIW/DzAoXfW3pMMn2KWa1Bq75pllPE6ZjjNOp2xxHtOoF4nTpgs3UK1KipKGdVm0Jnr70W9oqLnkFKmaZdoDItf0FJ3ZafXzKrItygovzqmeHRhqegCkz6WmXOVLgE6xZ5pFIvflp15ClU2UmGM/cGr/AG6vWVPENMYxtUur2y6XoSyGjWKKSFYRjituVWwqQ9tQmSdNk2mrQXLB1pupg9V1aoli7q6g6pUWra66RCsa9f0o222VeeZ56uuosIqPh40eiR3XD86frEilctFePtJ0E0VrlDSbQc6qwqF6jwe6q8czFITFFcQjBb8qU6MVcq3LD0z2HzqU+ze6TqYJS+hU0jl4Y9easOSV6Xcyd8RFy8MrERbTir4x3s2vyNtq8VE56ijdrY3qtUscyTR7wNnsWbWEG8kZFnbEQrejuIr+kccVFYQYroi3XFJy1V4i5FOJeNOUy2e10uhSa1j1uYsmVlSXPp9fJGLdrNaXljptQbPlHpjP5BxxvaHMZUa8yboLkcIILk+EiDwY997JYLMEHK+7H3Pqod0/e/bHfhIfcvel95wvn3HxQCe+xB7Wd+9ff7B9zN5ekHkv9893Y/XN5+CflwO/cOMfufs5v2kl93BaKB6Hn4G7D7jzb9+F8/IPFv8Aef0/Je3sP3/9QzH3ce/bg+t5q9/7/QfLxT7yQXPyvPv1PX8G3n/f93A9fyb9vqj6/rJ+l/y+14b7579buPqemXvxTy9A3es+f6cgPP46fRgu1NlIdnYKc1j9vr1ZSxLNGD+p3RjZdLzxdfR7HKpCiIRxXPKrXlJi2oQxOmyFIlQXL5zpuWEZn1W4EiqS7nqnUXba7ZxCv67flo221peBZ56guoiIKPg40ZCo7rhedPlfSPc9EavdKz48trtEVQg4JWQp97fg9yp41mKQoKKAjGC45UoIZW5VuJHplgRRqc+8e6RlZVZXQ7kVyzMSutH/ACRoi7aRvi4uWZkoiLd8VYmI9m0OR1TXlYnPVkbtU21sqVhhS6RRhrNjzavFbRplmVtWCt5w5lRyKQKiiIsV1hboCq5apcQbCpEvHfKbVAc6XQY1eyZFMVvKyHXPmVePGL9rNVnlcptQcvlGRiv5BvxvV3MnUa89bt0CN0EECfKerHr77TZYEkkkQN6dhai9gZxqCzEU86inw5rDGQ2uDEIqLYQzBBgwssYEzXJ6L5hkMVhmFYBxzf4kXl6yzxFsJ17pyIhTLvMREKRTRrM7oUgYSFExTcw+pINB1Zo/etwdNHaAljTI0Bw7Nn0J4azmImjYxjENhasZRkSSjZFipY6y5jcgoSqtlgkXVKsEcEzAHJm+QOOHhxXu+tsiYbAMVs0qTl1zTaweU0vHXpKnUnEi139klT4ckJUa3EipFma1m0Kmr7EXFoqDbkFFGd5foLwsDQEmVkqFhFVFFcvgrzqmZGVhqeuCsMKumXOKL0+wLJ7m0Uu9+fopCsmuPBDuHbmhVZWu5HBpnqtSOwuTSd+qCCLVBJuhzQq8eYsmVuysGAqudgJyk1YXsX07vvrHxbOLNInajzQawav5TMgNOqR0p2gTw/TUaoSaga2xaiACAgN2orUIrK4plT4QJHcNbZmz2HUr9GqkWtxVuiqdBQ9Frh4Sy6i6PzS64MHTLmoNNadtCyQBw6oNpWnaLFPvrr1dNZYSttiVpkm66lLC3VzCCXrFCrcO4/i6iI/31BakTSICaaaZfgYoG8RGuRQr2PqEbBnrIGNEpaBvh1DsPcZfLeEW39nGx7YPoIFEOw8MQpu3emxgoblrDn5dSiZRztAwU+P/AOxMJEaDAmr7Kxoj9TlAwfurLXw6nLT/ACXOEGwQZWIfEeZxEkX07dUVGbdNk0atUvheoQ1iqspFk+UVCnYW+3So/HqNJ55o5HlOi/G54O5H419l49SV3VD8KlR4stC2Bf8AD6gUvUyqwn5VoL++VP8A5RLD09quLz8NhFAzkpx2H4W3JevlVzJyBQ9tCQyA/FGLBGyykp/htKZDIUG3NQTIBE0yB/i3TZF22Xbrf6VP/8QAUxAAAgECAwEJCgcJEAMBAAAAAQIDBBEABRITBhAUICExYXGRFUFRc4GSobLBwiIyMzRAg6IjMEJicoKTo7MHJCVDUFJTY4SQlKSxw9HTNVR0tP/aAAgBAQAJPwD+5qNo4kLsehf5NNjHlkxBxzMA3kIv9J0l6CaGM/XQrL7fof8A6qJ58qrg/K0UD9sY4zD975dRVPlneVfc+ht8hmGW2/wmj6HzyS0ads64cgVm5Oac9JiSmA434G5zLPsSMf8Ac++NpPdHLoPJPVRxn0E8c3jhlE7dVMXGBZJoklHU63HFbSYDAAfGTInt48t1y+DLXA8HCUkY+rxvw8xol+2TjmfcbOPPQ/8AVxm5DkccQ+rSFvvj8r53Q/qi0nuY5nUMPLxSBc2HXz2GHtrynNz/AJgx+/h1vLlFIOtljAPFblmq6SLslD+7g3E1NDJ56Bt/kuR6d5gLmwwbjgmXj/DgL7/GIN85pV7A5w/JHuep4P0nCMSaxS7os0pF6Eil+DxCBygeU8gGPw4qqLzIY/vMiiZ0eRIyfhMqEBiB4AWF944kLM26rNuwGSVfRLiX4A3G5dXBf613IPajDflWWKRQ0bqbqykXv0jeewrt0Wl+ldi0X+suDy1OW1iefmMWJDprJczimXwhFeBN+XU1FWPSTC3NKigkeTVvS6r7v62NfFgPKmJrR1G4WKtKg88uqMD0A79WrR1G6XLIiyHnRJtb+pjkAvc9WJCtPm+6PL264bEMMH4MVFmznqpHTDapqrLoHmfnLSBbP6RvTKkkzMsSk2LlVLEDwkAYluuX57HGg8CCBYvWj3pNQpf3RXij6IhAQvqYawihy2LteTBJhps74U/9rsOJLpMu6XLEbpSOUSt6FwbIlXm9+qKDEmueogOs9/WjlD94ltCclqYX/LqS0o/YjEiOEdkNjezobMDbwEcuDbYZfUyj8yMtfB+Sz+rl/SUkWHsJdzNJReZQRSYqFnp5S2iVeY6GKG3URhgDR5fUzjrjjJGKhBNC8tBd2tqeJ2sN5vmlQKvtqY8H5dZk7axG9mH+YVTn9LmRwykZNnPBofE6Avro2CATew8IGKxIaZM8kzB3c2VI59Q9zH8VDJJ5EUthvjbpoqryyUjg4b4CbmKOh7aR3xUpPAJpodS82uBzG48hXFtNLTSzt9Wpb2YkJlp88zIsemIbUftsToJ4cilqtNxqAkiYoxHSRh/h5dmGZ/qJoyvobD2NTQboEB8fIFxVLG8lfV5fTA87yK8koTek0h8wnM3VUAUo9fEtpaqnkkRu+HmqXgH7TD3NTltPNIfxtA1Ya+33Q0lZ5yVAOD82NL9gk4ezVlfkq9m1c+pjSTmO5NM0L9/anSQPKurEyxpqVdTHSLsQoHWSbDePx66on/Qx4blkhzxwfHUkmKoRXzufL6fV35ZSHVOPJDPWJMlJTJcOoqH7z25tIwbUn8EzdUZgDMv2jjMRDBBm6VRkI1G+Zd4D8sYqtWXHclV0FlN0aWppzUq+OYVJl7UC+zD2enoKkIekULRLipANFmrQRa271QBIoHSWwEENLkyJBJ33nEiideyTExU0O6ufNGHREkQA9LYzJJM1yfLVd4hzo1YAkRHUXF8TNJUZflApJHY3JNNUuFPmAYPyzN6ZNWDyUc0Z7Kja4q0gpp6SWvnmlbSiBKkku3n4q70NNRM02kjQ4zIFL9gBw9nzZcthbqWV5HxVPwd9xktNWDUbGpq4H5T1NEuOYzxSW6VRl9uD8xSP9TTlcVCgUuZpJrkYD54vtcYCCCHcvUaJe+awpqZOrQ+DyQ1tXMo8bFEvuYmJp6zclBl0Y6aWOK3pL4PJTz1jgeOMZ93B5aqOcH6xwcSkdzM+q8xbrMkQHoDYlikmoKf4MeoE7aWwiVgPCWGCFljyqhmmVeZJ46ptqO1MN8/EAPSFqRLiciko6Gvhq0vyMayWSJfNCjB+UeByOlA3/ODyx29AweSWppnI8Usg97E1oaLLKOjkPgjjoyrYqiMyO6YknwQIOGRD81rLiti7px7mRnppvDGYteJ2mqqGrzZZHY3JE5jlHrEYJvNDMh+sTTiUq1JulnzX86GKEJg/AlRHXqYBhxfnXB5Nh4NrpOi9+9fAqeBd2I+G7a//AJHRJz3/AIy19WNW00R7Pw6dPwbdFubGrgXCINt4NppfZ38mq2NfCeDwc99Wz2K6L/V23r3sezG37n914/kr/Pdl9y5vw9N9GNXdLbz90Py9X3S/lx8S7W9uNptxG3dK/wDN2qX1fn2x8Xl09vLbe8Ixr2HBo+Haf6HbLbV+LrtfAk23AKXgmq+rg9jsbX6OboxfTcavZjVr2a7P8nvW3r6rHAl7mcOpeFaL22+h9jq9NunG07q8vDdXx77IatXk58c1zjVr0nX1b/xbnTf04FR8vTd29d7bXbfcb+7+Li+nSdl+TqPN5b46L4vqsNl1aja3l4l9pb4NvBp73kxfYbXya9P+tsbThPcw6/8A5ODD7OyxfRqNuvevos9uu3Li+rufS6r+KHGEMNY8yVVM5GleEIed7eEXBOATSfwTB1okAVj9nGXCWGozdKXZNyG+WE++cUtsvG5Ksr7gWQTU1OaYJjmNSYuxA3twl3qKCpKDpNC0q4gBNdmrTR6x3qcCMHDIYqvJVeCLvpPrUzv2R4hLGt3Vz5W56JUiKn7LYy1I82zjLVSSQc8jUY1xgdZUXxC0c+YZQKuRGFiDU1LlR5hGB8izeiTTgclZNGO2o2WKRJqeCkloJ4pF1I4eoIKMD4vFLahqqNhPYAKgy0F7dhAwhL5UuWzHqaV43xSvwdNxklTWHTyLUUkD3B8sq45hPFHfpZGb2YHz5I/11OWxALVeaJHocA/M19jnDIYpty9Toi74rNGln6tCYHJNXVcIPioom9/EJFNSbkoMxiPeLVUcXtD4HJUT1iA+JMY97A5aWOcn6twMREnM8+q8ubrEkRHoLYSKKWup/gSWAtLFYxM3UVGLPLJldDDMw5nneqbantfC/MBAx6A1UIsU7GkrKCvmrHtyKaSWSVfODDA+TeBCelw3/GByyW9IxzRVNMhPjVkPu4hvBW5ZR1sg8MclGWbFMTma7prMB/QSDgcJ/OazYoo+6j7mhkRqf6oRbPEDQ1VdV5s0iMLECAxxD1ScA3hhmc/VpqxEWar3Sz5V+dNFCUx8SJERepRpHHhJgXJamZ/y6a8Y/bDESorOz2VbAsx1Em3pwLmfL6mLz42GB8rn9XF+jpIsJyRbmaSt8+gijxTrBSxFtnGvMuti5t1k4XUaygqYB1vGQMQKZpzLW2YXKNK7WPXp3l+d1ApOypjwPkEmfsrEX24T5/VOP0WZHAAGc5zwmLxWgN67tgAkXsfADijSWmfPZMveOQXV44NR9/FrSwyR+epXC/F3TRUvljpHJwtkfczRV3ZSOmKdIYDNNNoXm1zuZHPlLYI0VNLNAfrEK+3EZEs+eZmG65QIh+xxCNvLkUtKCFFzoiYIDhPh5jmGZg/XzRhfQuEuaag3QOB4iQNimSSSOvq8wpiedJGd4g+8lwmYTiboEAFUPUxEWlpqeSONQLkvDUyTqPsYSxpctp4X/LCDVhbbDdDSUfmpUE4Hzk0v2yRhCWo6/JW/aofXxYHLtyqZUU7+1XTZ/IurEaumpTpYAi6m4Nj3wd4c1dUQeWaPC8scOeIB0w0kmKVZAM6nzCD8WWI6Ff7xGu1RGRZLDUFcgsAenSL7wxGVZd1WbdhMkS+iLEfwDuNy6hDeCVH9iqN+NY4o1CoiiygDvADeS4od0Wt+hNi0v+sWBy02W1j+ZmMWE+BSS5nLMfAHV50300mtq3q5/wAaVwAT9nei023f1si+LIeJMRjZ0+4WKiLeCW8bD0E79Mojp90mWSlUHMjzaH9fFiDfERNPlG6OgXqhsxbHxZaLNU8lW6YUrNS5bAkq/wA2Qrd/Sd6JWkiZjGxAJQsNJIPSDiLQMwz2OROlDAsvrSb0dhVfuivLH0xGAlfXwtxLDlsvY8mARDU53wV/7JY8SPWYt0uVu/Qkkuzb0NgXjkq831dUsGI9E1PAdqv47uXP3uLlTO6I/pS0fv45kUKPJxQDY3HXzXGEvoynN1/zBf3MILxZRSdYLRBjxU5Yqukl86XRgW2NNDH5iBd/lsR6N5QbG4wLDglAf8QA3ucZALZ1Sk+UOMDkk3P08/mcIwmgVW6LM6sDwpLL8DiAHlv5Rj8CKql8+GP74t/4Ry6byQVUch9APHT7lNMID1VJdsCyQRJEvUgtxV1GcwEDxcyP7OOllzCDLo9Xh4MsgPrcbmTMqJvtkYXkTcbOT1oh/wC3jDkGRxyj61IV+hj5evy3/wDKH+h/xUtE/ZOMLyUe5OaA9BlSmI4wtr3OZZ9uRh/t/Q7aq+aCQ/VQrFy9n0PvUiP5kqtgfJUUCebGOMo/fGXUVNfpgklY+v8AyMLmTLJwBjmUBR1AW/kwXSWMow6G/uVf/8QAFBEBAAAAAAAAAAAAAAAAAAAAoP/aAAgBAgEBPwABf//EABQRAQAAAAAAAAAAAAAAAAAAAKD/2gAIAQMBAT8AAX//2Q==;clipPath=inset(30.67% 6.33% 33.33% 6.33%);" parent="1" vertex="1">
          <mxGeometry x="330" y="110" width="64.26" height="26.49" as="geometry" />
        </mxCell>
        <mxCell id="2PSiQPES3JSb_-M2PAoh-9" style="edgeStyle=orthogonalEdgeStyle;rounded=0;orthogonalLoop=1;jettySize=auto;html=1;exitX=0.5;exitY=1;exitDx=0;exitDy=0;entryX=0.75;entryY=0;entryDx=0;entryDy=0;" parent="1" source="2PSiQPES3JSb_-M2PAoh-6" target="2PSiQPES3JSb_-M2PAoh-1" edge="1">
          <mxGeometry relative="1" as="geometry" />
        </mxCell>
        <mxCell id="2PSiQPES3JSb_-M2PAoh-6" value="" style="shape=image;imageAspect=0;aspect=fixed;verticalLabelPosition=bottom;verticalAlign=top;image=data:image/png,iVBORw0KGgoAAAANSUhEUgAAAgAAAAIACAYAAAD0eNT6AAAABHNCSVQICAgIfAhkiAAAAAlwSFlzAAAOxAAADsQBlSsOGwAAGTBJREFUeJzt3T+MZdd9H/AvZRXpPIJURBIIjgpBkBoOgQAuDCOPgAtV0qowEBim9NgYkopoYSAJUmlT2ilIpQloIJiFZLhxQVJNGgNcyzDASrtsFAoCxCUCxY3EHXZJxRT3jTnLnd2dP++937n39/kAByIgifN757x55zvn/t69CQAAAAAAAAAAAAAAAAAAAAAAAAAAAAAAAAAAAAAAAAAAAAAAAAAAAAAAAAAAAAAAAAAAAAAAAAAAAAAAAAAAAAAAAAAAAAAAAAAAAAAAAAAAAAAAAAAAAAAAAAAAAAAAAAAAAAAAAAAAAAAAAAAAAAAAAAAAAAAAAAAAAAAAAMB2PFNdwI4cJflmksNPDAB4mvufGG8muVdWzY4sKQB8M8k6ySrJQWklACzNSZI7SW5nCgSzN/cAcJDkB0luxqYPwH6cJHk1yY82/zxLcw0ANn4Aqs06CMwxAKySHMc1fQDGcD/Jy5kuEczGp6oLuKRXkrwVmz8A4zjMtDe9UlzHpczlBOAg0+QeVRcCAE9wL8mLmcElgTmcABzF5g/APJzuWYfFdTzV6CcAh0nuRqMfAPNykuSFTP0BQxr5BOAgyeux+QMwP8PvYSOfANyNY38A5u1eppOA4fxedQGPcSvJv6suAgCu6V9n+mP7TnEdjxjxBGCVqYECAJbixQwWAkYMAO9lBt2TAHAJ95N8qbqIs0a7BHAryY3qIgBgyw6SfJjk7epCTo10AnCQ6a//YTsmAeAaTjKdAgxxk6CRvga4js0fgOU6yLTXDWGkEwDX/gFYuvsZpBdglBOAVWz+ACzfYaY9r9woAWBdXQAA7Mm6uoBknEsAD+L6PwA93M8AlwFGOAE4is0fgD4OM8Bl7xECwKq6AADYs/J73owQAA6rCwCAPSs/+R4hAHjiHwDdrKoLGCEA/H51AQCwZ+V73wjfAviougAAKFC6B49wAgAA7JkAAAANCQAA0JAAAAANCQAA0NCnqwuYgXeS3EnyRpKTJPdKqwHgcY7y8dP2biR5rrIYnu6jQcedDHCjBgCubJ3pwTvV+8njRnvVC3DeuLnTVwzAPt1K/b4iAJyjegHOjpO4NTHAEq1Sv8cIAJ9QvQBnx2q3LxWAQuvU7zMCwBnVC3A6bu34dQJQ71bq9xsBYKN6AT6Kzn6ALg4yTmNge9UL8FGmr4sA0MM69ftOeQDwNMDk/UzfGwWgh4MkD6qLiKcBlrtdXQAAe3WS5B+qi6gmAEw3/AGglzvVBVQTADQAAnR0v7qAagLAdBQEQC/3qwuoJgAAQEMCAAA0JAAAQEMCAAA0JAAAQEMCAAA0JAAAQEMCAAA0JAAAQEMCAAA0JAAAQEMCAAA0JAAAQEMCAAA0JAAAQEMCAAA0JAAAQEMCAAA0JAAAQEOfri4AgEd8NsnzSb6W5MtJnkvyxSSfS3KwGWedbMZvk/wmyftJfpXkF0neSfK7vVTNrAgAAPU+n+SPk6yS/GGSr1zy/38aCg6T/Jtz/vtfJvmnJHeS/H2Sf75ambBdHxUPgArPJvmLJD/L/j/3frb52c/u/FWOaxX7TzkLAHTyrSRvpv6z73S8uampm1Xq5749CwB08P0k76b+M+9x491NjV2sUj/n7VkAYMm+l+TXqf+su+h4b1Pz0q1SP9ftWQBgib6R5Oep/4y76vj55jUs1Sr1c9yeBQCW5AtJfpL6z7ZtjZ9sXtPSrFI/t+1ZAGApvp3kg9R/rm17fLB5bUuySv28tmcBgCV4LfWfZ7ser21ttuqtUj+f7VkAYM6+muTt1H+W7Wu8vXnNc7dK/Vy2ZwGAufp6lnnk/7Txwea1z9kq9fNYysOAAK7mpST/M8lnqgsp8JlMr/2l6kK4OgEA4PK+m+TH1UUM4MeZ5gKupPURDDA7303959ZoY44hYJX6eWvPAgBz8VLqP7NGHXO7HLBK/ZyVcgkA4GK+Hsf+T/LjzL8xsBUBAODpvprkb6uLmIG/zTK+ItiCAADwdMfp2e1/WZ/JNFfMgAAA8GSvJfmD6iJm5A+yrDsGLpYAAPB4307y59VFzNCfZ3nPDlgcAQDgfF9I8mp1ETP2apb5FMHFEAAAzveXcd3/Oj6TaQ4ZlAAA8KhvJPmz6iIW4M8yzSUDEgAAHnWruoAFuVVdAOcTAAAe9r0kL1QXsSAvZJpTBiMAADzsP1YXsED/oboAHiUAAHzs+0kOq4tYoC9lmlsGIgAAfOzfVxewYOZ2MAIAwORbSb5SXcSCfSXTHDMIAQBgsq4uoIF1dQF8TAAASJ6N76vvwzcyzTUDEAAAkj+pLqARcz0IAQAguVFdQCPmehACANDd55P8UXURjfxRpjmnmAAAdPfH1QU0ZM4HIAAA3a2qC2hoVV0AAgDAH1YX0JA5H4AAAHT22bj5T4WvZJp7CgkAQGfPVxfQmLkvJgAAnX2tuoDGzH0xAQDo7MvVBTRm7osJAEBnz1UX0Ji5LyYAAJ19sbqAxsx9MQEA6Oxz1QU0Zu6LCQBAZwfVBTRm7osJAEBnNqE65r6YAAAADQkAANCQAAAADQkAQGcn1QU0Zu6LCQBAZzahOua+mAAAdPbb6gIaM/fFBACgs99UF9CYuS8mAACdvV9dQGPmvpgAAHT2q+oCGjP3xQQAoLNfVBfQmLkvJgAAnb1TXUBj5r6YAAB09rskv6wuoqFfZpp7CgkAQHf/VF1AQ+Z8AAIA0N2d6gIaulNdAAIAwN9XF9CQOR+AAAB0989J/rG6iEb+MdOcU0wAAEjeqC6gEXM9CAEAIPm76gIaMdeDEAAAkv+d5KfVRTTw00xzzQAEAIDJ7eoCGrhdXQAfEwAAJq/HTYF26ZeZ5phBCAAAH/tv1QUsmLkdzDPVBST5qPjnjzAHwDh+neRL1UUszP2MN6erJG8V11C6/zgBAHjYf60uYIH+qroAHiUAADzsvye5W13EgtzNNKcMRgAAeNSt6gIW5FZ1AZxPAAB41E+T/E11EQvwN3F/hWEJAADn+09JHlQXMWMPMs0hgxIAAM73f5LcrC5ixm5mmkMGJQAAPN6Pk/x1dREz9NeZ5g6e6KPiAfA0b6f+s2ou4+0rzvG+rVI/V6WcAAA83cvRD3ARDzLNFTMgAMDV/NvNOKouhL34X0n+tLqIGfjTTHMFF9L6CIbhHST5TpLjTDc0edJ76a0kryT55ub/x/K8lPrPrFHHS9eY1wqr1M9ZexaAEa0yPbnsOu+t482/h2X5buo/t0Yb373WjNZYpX7e2rMAjGSV6S/5bb7H3oogsDRCwMdjjpt/IgAMwQIwgoNc/y/+p41X4tLAkrgcML9j/7NWqZ+/9iwA1VaZupf38X67G42DS/L1JB+k/nNs3+ODzWufs1Xq57E9C0Cldfb/nnsQIWBJvppe9wl4e/Oa526V+rlszwJQZZ26950QsDyvpf7zbNfjta3NVr1V6uezPQtAhXXq33tCwPJ8O8u8JPDB5rUtySr189qeBWDfVql/350OIWB5vpDkJ6l/b21r/GTzmpZmlfq5bc8CsE9H2V/D30WHELBM30jy89S/v646fr55DUu1Sv0ct2cB2JeDPP1uflXjbnxFcKm+l+S91L/HLjp+val56Vapn+v2LAD78lbq329PGkLAsn0/ybupf589bry7qbGLVernvD0LwD4cp/69dpEhBCzft5K8mfr32ul4c1NTN6vUz317FoBdW6f+fXaZ8fpOZoHRPJvkL5L8LPt/j/1s87Of3fmrHNcq9b/r7VkAduko9e+xq4zjXUwGw/p8ptvq/o/s5jLBu5t/90ubn4UAkGeqC0j9JIwwB+zGYeZ9pH47ycvVRVDis0meT/K1JF9O8lySLyb5XKb38yff0yeb8dskv0nyfpJfJflFkneS/G4vVc/LKlNfUKX2+0/rBMbOjNzxf5lxa8vzAkxWqf/9bs8CsAu7frLfPsd6u1MDRADIp6oLgB14NcmN6iK26DhCALBArRMYW7dO/XtqV2NJoQaqrVL/O13KCQBLcpRld88fxy2DgS0RAFiKw9R39O7aQabXKAQA1yYAsAQHmZr+5vp1v8sQAoCtEABYglfSa0PsFHiAHREAmLtb6dkhf5jpJEAIAK5EAGDO1kl+WF1EoaMIAcAVCQDM1VGmo//ujuLhQcAVCADM0WkjnL98J6ss++uPwA4IAMyNzf986wgBwCUIAMxNt47/y1hnug0ywCy0vhUjl3Ir9e+XOYz11aYXWlml/ne1PQvARaxT/16Z01hfZZKhkVXqf09LuQTAHOj4v7zjCAHAEwgAjM5d765OvwTwWAIAo3sr013vuDzPDQAeSwBgZMexeV2XEACcSwBgVDfjGva2uIwCPEIAYEQ3oulv2w7jBkrAGQIAozmKO9rtiocHAf9CAGAkjqp37zQEAM0JAIxEx/9+OGUBBACGoeN/v9YRAqA1AYARrKPjv8I6QgC0JQBQbRWbUKV1hC9oSQCg0lGmpj9qeW4ANCQAUOUg08aj438MQgA0IwBQ5fVo+huNRkxo5NPVBdDScaZr/4znrSQvJrlXXcigDpI8nykonT29upPknSQnBTXBbH1UPNivderX3HjyeBAnAWcdJPlOpnD0tLm7m+SHcT+LOVil/netPQvQxyr1621cbDyI/owk+UGmubjKHB7HHI5slfrfs/YsQA9HufoHqVEz7qbvBrbK9PqvO4cPorlyVKvU/461ZwGW7yDb+TA19j86hoAfZvvzeLzXV8BFrFL/+9WeBVi+11O/zsbVR5cQcJCLXee/6nhrfy+FC1il/nerPQuwbK+mfo2N64/jTy7swhwleS/msZOj1P9etWcBlmud+vU1tjeOs0w3st/+lKXO4xxV/061ZwGWaYR0bWx/HGdZ1jGPnVX/PrVnAZbnMDr+lzxuZhmOUzuPt3b+Cnma6t+l9izAsuj47zHWma9dN/t1mcclqF7/9izAsuj47zPWmZ+jjBdQ17t8wTxR9dq3ZwGWQ8d/v7HKfIx8M6r17l42T1C97u1ZgGVYp34tjf2PuTw3YJ36uVrCPC5N9bq3ZwHmb+S/rIzdj9E3r1dSP0dLmMclql7z9izAvB3E5m9M74HDjOUg9Z3+V5lHIWB/qte71DPVBaR+EkaYg7k67ab2gUWS3EvyYpKT6kIy7/fmSZIvZYx5XLrW+8+nKn84s/dK5vkBy24cZdp0q58bcHpb37m+N0/DS/U8ws61PoKZsVupXztjzFH58KB939Z3qfPYRfUat2cB5med+nUzxh4Vm9cPtlT7SEMI2K3q9W3PAsyLjn/jomOfm9fxnl5TxTje4jzxsOq1bc8CzIeOf+OyY9chYKTb+u5yHG9rwnhI9bq2ZwHmwT3+jauOu9lNQ94qU7Nf9evb1zjeyqxxVvWatmcB5uE49WtlzHc8yPZud3uQ+dzcZ9vj1vWnjzOq17M9CzC+m6lfJ2MZ4/Vc74ZB30mvv/rPG+trzB8Pq17L9izA2G6kfo2M5Y3jJN/MxRzExv/Jsb7g3PFk1etYaoS74FVPwghzMKpRbuzCsr2R6S6COfOfpz0Dq8zriYP79HKS29VFzFzr/WeEza/1AgzstOnvsLgO4HwnmW69fO9p/0Meq/X+41bAPM5bsfnDyOb8vAMGIABwnuP4UIE5EAK4shGOv1sfwQzoZqavWAHz4QmCV9N6/3ECwFk3YvOHOfIEQS5thL9+Wyewgej4h/m7l6kx0EnAxbTef5wAkEyb/nFs/jB3gjwXJgCQTHdn00QEy3AUl/K4AAGA47jRCizNOh4exFMIAL2t45aisFTrCAE8gQDQ1yo+HGDp1vEEQR5jhA741l2YRTQKQS+eG3C+1vuPE4B+dPxDP8dxuY9PEAD60fEPPQkBPEQA6EXHP/T2SvwBwIYA0Mc60j905+FB/IsRGuBaN2HsyVGSu9VFAMM4yXTL4HvVhRRrvf+MsPm1XoA9OMy0+Wv6A87yBMHm+49LAMt2kKnpz+YPfJInCDYnACzbcVzrAx7PPUEaEwCW69UkN6qLAIYnBDQlACzTOskPqosAZsMTBBsaoQGudRPGDuj4B67qdqbbBnfRev9xArAsh5mO8gCuYh0PCWtDAFgOHf/ANqzjCYItCADL4RafwLb8MO4cungCwDLcil9WYLs8PGjhRmiAa92EsQXruGYH7M7LmZoDl6j1/jPC5td6Aa7J93eBXVvycwNa7z8jbH6tF+AaDpK8F5s/sHtLDQGt9x89APPkHt7APnmM8AIJAPOk4x/YN394LIwAMD+3ojMXqCEELMgI179bX4O5pHV0/AP17mXqCTipLuSaWu8/I2x+rRfgEnT8AyNZQghovf+4BDAPbvMLjMYTBGdOAJiHtzI96AdgJOu4LDlbAsD4jqPjHxjXOkLALAkAY7sZHf/A+NbxBMHZGaEBrnUTxhPcyHTdH2Au5vbcgNb7zwibX+sFeAwd/8BczSkEtN5/Rtj8Wi/AOQ6S3I2mP2C+5hICWu8/I2x+rRfgHHej6Q+Yvxcy/sODWu8/mgDHouMfWAoPDxqcADCOdXT8A8vhCYKDG+H4u/URzMYq0y8KwNKcZLoccL+4jvO03n+cANQ7iq/7AcvlVuaDEgBqHWS67u8XA1gyX20ekABQ6/W4Pgb0IAQMRgCoc5zp2j9AF0fx3IBhCAA11tHxD/R0I0LAEEbogO/WhbmKjn+A25nuGFip2/7zECcA+6XjH2CyTvJqdRGdOQHY3xy4KQbAoyqfG9Bl/zmXE4D9cZtfgEcdR09UCQFgP17N1PgCwKOEgAIuAex+DtbR8QpwEft+guDS959xf/jGkhfgKNPjfQF4upMkL2Z/IWDJ+89TuQSwO4fxdT+Ay9AsvUcCwG54+AXA1ZyGgMPiOhZPANgNHf8AV+ePqD0QALZPxz/A9Xl40I5pAtzuHKyj4x9gm+5lagw82cG/e0n7z7x++MZSFkBaBdiNN5J8awf/3qXsP/P74RtLWICDJO/F5g+wK7ez/YcHLWH/uTI9ANd32rFq8wfYnXVcYt0qAeD6XomOf4B9WMcTBLdGALieW3H/aoB9+kF87m6FHoCrz8E6jqMAqmzjMcJz3X/m/8M35rgAOv4B6l03BMxx/1nGD9+Y2wLo+AcYx3WeIDi3/Wer9ABcjo5/gLF4eNAVCQCXo+MfYCyeIHhFAsDF3YzOU4AReYLgFegBuNgc3Mj0ZCoAxnXZ5wbMYf9Z5g/fGH0BdPwDzMdlQsDo+89yf/jGyAtwkORuHCsBzMlFQ8DI+8/O6QF4MteUAObnKG7U9lQCwOMdR1cpwFzdiBDwRALA+XT8A8zfOkLAY+kBeHQOdPwDLMuPMv1h90mj7T99fvjGSAug4x9gmc57bsBI+8/euQTwsYNMR0U2f4DlOY5Luw8RAD72ejT9ASyZEHCGSwDTHHhTAPRx+gTBEfafMk4Apo1/XVwDAPvj4UFxAgBATyep7/nyLYDqAgCggEsAAMB+CQAA0JAAAAANCQAA0JAAAAANCQAA0JAAAAANCQAA0JAAAAANCQAA0JAAAAANCQAA0JAAAAANCQAA0JAAAAANCQAA0JAAAAANCQAA0JAAAAANCQAA0JAAAAANCQAA0JAAAAANCQAA0JAAAAANCQAA0JAAAAANCQAA0JAAAAANCQAA0JAAAAANCQAA0JAAAAANCQAA0JAAAAANCQAA0JAAAAANCQAA0JAAAAANCQAA0JAAAAANCQAA0JAAAAANCQAA0JAAAAANCQAA0JAAAAANCQAA0JAAAAANCQAA0JAAAAANCQAA0NAIAeCd6gIAYM/K974RAsBJdQEAsGfle98IAeBedQEAsGd3qgsYIQDcry4AAPbsfnUBIwSAO9UFAMCe3aku4JnqAjbuJ3muuggA2IP3kxxWFzHCCUAyQBICgD25U11AMk4AuF1dAADsye3qApJxLgEkLgMAsHxDHP8n45wAJMmr1QUAwI4Ns9eNdAJwkOkU4PeL6wCAXfgw01//5TcBSpLfqy7gjP+b5F8lWRXXAQC78J8zSANgMtYJwKn70QsAwLK8k+SouoizRuoBOLWuLgAAtuxmdQGfNNIlgFP3M51MrGrLAICt+C8Z5Kt/Z414CeDUvSTPVxcBANfwDxn0D9oRLwGcWmWA5yUDwBW9k+RGdRGPM/IJQDJ9XeJefDUQgHn5MFPT3/3iOh5r5BOAZJq4ozgJAGA+Tjv+7xfX8USjnwCcOsj03Uk9AQCM7J1Ml7CHuNnPk4x+AnDqJFOa+lF1IQDwGD/KtFcNv/kn8zkBOGuV6esUbhYEwAjez3QPmzu1ZVzOiPcBeJr7mQLA/0vyQqbbBwPAvn2Y5C8zbf7v1pZyeXM8ATjrINPdlW7GNwUA2I8PMz3V79XM5Lj/PHMPAGfdyJTCVhEGANiuDzMd8d9O8kZpJVuypABw1lGmIHC4+efD6BkA4GLez3S5+d7mP+9s/hkAAAAAAAAAAAAAAAAAAAAAAAAAAAAAAAAAAAAAAAAAAAAAAAAAAAAAAAAAAAAAAAAAAAAAAAAAAAAAAAAAAAAAAAAAAAAAAAAAAAAAAAAAAAAAAAAAAAAAAAAAAAAAAAAAAAAAAAAAAAAAAAAAAAAAAAAAAAAAAAAAAAAAAACAc/x/a7nWHaszcngAAAAASUVORK5CYII=;" parent="1" vertex="1">
          <mxGeometry x="420" y="110" width="30" height="30" as="geometry" />
        </mxCell>
        <mxCell id="2PSiQPES3JSb_-M2PAoh-17" style="edgeStyle=orthogonalEdgeStyle;rounded=0;orthogonalLoop=1;jettySize=auto;html=1;exitX=0.5;exitY=1;exitDx=0;exitDy=0;entryX=0.5;entryY=0;entryDx=0;entryDy=0;" parent="1" source="2PSiQPES3JSb_-M2PAoh-10" target="2PSiQPES3JSb_-M2PAoh-16" edge="1">
          <mxGeometry relative="1" as="geometry" />
        </mxCell>
        <mxCell id="2PSiQPES3JSb_-M2PAoh-51" style="edgeStyle=orthogonalEdgeStyle;rounded=0;orthogonalLoop=1;jettySize=auto;html=1;exitX=0.5;exitY=1;exitDx=0;exitDy=0;entryX=0.5;entryY=0;entryDx=0;entryDy=0;" parent="1" source="2PSiQPES3JSb_-M2PAoh-10" target="2PSiQPES3JSb_-M2PAoh-50" edge="1">
          <mxGeometry relative="1" as="geometry" />
        </mxCell>
        <mxCell id="2PSiQPES3JSb_-M2PAoh-10" value="" style="rounded=1;whiteSpace=wrap;html=1;fillColor=#fff2cc;strokeColor=#d6b656;" parent="1" vertex="1">
          <mxGeometry x="347.5" y="350" width="105" height="150" as="geometry" />
        </mxCell>
        <mxCell id="2PSiQPES3JSb_-M2PAoh-15" style="edgeStyle=orthogonalEdgeStyle;rounded=0;orthogonalLoop=1;jettySize=auto;html=1;exitX=0.5;exitY=1;exitDx=0;exitDy=0;entryX=0.5;entryY=0;entryDx=0;entryDy=0;" parent="1" source="2PSiQPES3JSb_-M2PAoh-12" target="2PSiQPES3JSb_-M2PAoh-10" edge="1">
          <mxGeometry relative="1" as="geometry" />
        </mxCell>
        <mxCell id="2PSiQPES3JSb_-M2PAoh-12" value="&lt;font style=&quot;font-size: 10px;&quot;&gt;659 26 1604 123 991 760 1080 231 421 342 956&amp;nbsp; ...&lt;/font&gt;" style="text;html=1;strokeColor=none;fillColor=none;align=center;verticalAlign=middle;whiteSpace=wrap;rounded=0;" parent="1" vertex="1">
          <mxGeometry x="325" y="270" width="150" height="30" as="geometry" />
        </mxCell>
        <mxCell id="2PSiQPES3JSb_-M2PAoh-16" value="&lt;font style=&quot;font-size: 10px;&quot;&gt;&quot;no wonder newspapers are dying&quot;&lt;/font&gt;" style="text;html=1;strokeColor=none;fillColor=none;align=center;verticalAlign=middle;whiteSpace=wrap;rounded=0;" parent="1" vertex="1">
          <mxGeometry x="240" y="542.5" width="180" height="30" as="geometry" />
        </mxCell>
        <mxCell id="2PSiQPES3JSb_-M2PAoh-46" value="" style="group" parent="1" vertex="1" connectable="0">
          <mxGeometry x="360" y="360" width="110" height="150" as="geometry" />
        </mxCell>
        <mxCell id="2PSiQPES3JSb_-M2PAoh-36" value="" style="group" parent="2PSiQPES3JSb_-M2PAoh-46" vertex="1" connectable="0">
          <mxGeometry y="50" width="75.01" height="80" as="geometry" />
        </mxCell>
        <mxCell id="2PSiQPES3JSb_-M2PAoh-25" value="" style="rounded=1;whiteSpace=wrap;html=1;fillColor=#d5e8d4;strokeColor=#82b366;opacity=70;" parent="2PSiQPES3JSb_-M2PAoh-36" vertex="1">
          <mxGeometry y="20" width="75.01" height="60" as="geometry" />
        </mxCell>
        <mxCell id="2PSiQPES3JSb_-M2PAoh-29" value="&lt;font style=&quot;font-size: 9px;&quot;&gt;Decoder&lt;/font&gt;" style="text;html=1;strokeColor=none;fillColor=none;align=center;verticalAlign=middle;whiteSpace=wrap;rounded=0;" parent="2PSiQPES3JSb_-M2PAoh-36" vertex="1">
          <mxGeometry x="5.8399999999999865" y="20" width="39.99999999999999" height="10.389610389610388" as="geometry" />
        </mxCell>
        <mxCell id="2PSiQPES3JSb_-M2PAoh-33" value="&lt;font style=&quot;font-size: 7px;&quot;&gt;LSTM&lt;/font&gt;" style="rounded=1;whiteSpace=wrap;html=1;verticalAlign=middle;strokeWidth=1;" parent="2PSiQPES3JSb_-M2PAoh-36" vertex="1">
          <mxGeometry x="5.839999999999983" y="37.147142857142825" width="63.33999999999999" height="11.428571428571427" as="geometry" />
        </mxCell>
        <mxCell id="2PSiQPES3JSb_-M2PAoh-34" value="&lt;font style=&quot;font-size: 7px;&quot;&gt;LSTM&lt;/font&gt;" style="rounded=1;whiteSpace=wrap;html=1;verticalAlign=middle;strokeWidth=1;" parent="2PSiQPES3JSb_-M2PAoh-36" vertex="1">
          <mxGeometry x="5.839999999999983" y="48.57571428571422" width="63.33999999999999" height="11.428571428571427" as="geometry" />
        </mxCell>
        <mxCell id="2PSiQPES3JSb_-M2PAoh-35" value="&lt;font style=&quot;font-size: 7px;&quot;&gt;Attention&lt;/font&gt;" style="rounded=1;whiteSpace=wrap;html=1;verticalAlign=middle;strokeWidth=1;" parent="2PSiQPES3JSb_-M2PAoh-36" vertex="1">
          <mxGeometry x="5.839999999999983" y="60.00428571428564" width="63.33999999999999" height="11.428571428571427" as="geometry" />
        </mxCell>
        <mxCell id="2PSiQPES3JSb_-M2PAoh-43" value="" style="group" parent="2PSiQPES3JSb_-M2PAoh-46" vertex="1" connectable="0">
          <mxGeometry width="110" height="150" as="geometry" />
        </mxCell>
        <mxCell id="2PSiQPES3JSb_-M2PAoh-38" value="" style="rounded=1;whiteSpace=wrap;html=1;fillColor=#dae8fc;strokeColor=#6c8ebf;opacity=70;" parent="2PSiQPES3JSb_-M2PAoh-43" vertex="1">
          <mxGeometry y="10" width="75.01" height="40" as="geometry" />
        </mxCell>
        <mxCell id="2PSiQPES3JSb_-M2PAoh-39" value="&lt;font style=&quot;font-size: 10px;&quot;&gt;Encoder&lt;/font&gt;" style="text;html=1;strokeColor=none;fillColor=none;align=center;verticalAlign=middle;whiteSpace=wrap;rounded=0;" parent="2PSiQPES3JSb_-M2PAoh-43" vertex="1">
          <mxGeometry x="5.839999999999998" y="10" width="40" height="9.09090909090909" as="geometry" />
        </mxCell>
        <mxCell id="2PSiQPES3JSb_-M2PAoh-40" value="&lt;font style=&quot;font-size: 7px;&quot;&gt;LSTM&lt;/font&gt;" style="rounded=1;whiteSpace=wrap;html=1;verticalAlign=middle;strokeWidth=1;" parent="2PSiQPES3JSb_-M2PAoh-43" vertex="1">
          <mxGeometry x="5.839999999999998" y="24.999999999999975" width="63.34" height="10" as="geometry" />
        </mxCell>
        <mxCell id="2PSiQPES3JSb_-M2PAoh-41" value="&lt;font style=&quot;font-size: 7px;&quot;&gt;LSTM&lt;/font&gt;" style="rounded=1;whiteSpace=wrap;html=1;verticalAlign=middle;strokeWidth=1;" parent="2PSiQPES3JSb_-M2PAoh-43" vertex="1">
          <mxGeometry x="5.829999999999998" y="34.99999999999994" width="63.34" height="10" as="geometry" />
        </mxCell>
        <mxCell id="2PSiQPES3JSb_-M2PAoh-45" style="edgeStyle=orthogonalEdgeStyle;rounded=0;orthogonalLoop=1;jettySize=auto;html=1;exitX=0.5;exitY=1;exitDx=0;exitDy=0;entryX=0.5;entryY=0;entryDx=0;entryDy=0;" parent="2PSiQPES3JSb_-M2PAoh-46" source="2PSiQPES3JSb_-M2PAoh-38" target="2PSiQPES3JSb_-M2PAoh-25" edge="1">
          <mxGeometry relative="1" as="geometry" />
        </mxCell>
        <mxCell id="2PSiQPES3JSb_-M2PAoh-47" value="&lt;font style=&quot;font-size: 10px;&quot;&gt;LSTM model&lt;/font&gt;" style="text;html=1;strokeColor=none;fillColor=none;align=center;verticalAlign=middle;whiteSpace=wrap;rounded=0;" parent="1" vertex="1">
          <mxGeometry x="345" y="350" width="70" height="20" as="geometry" />
        </mxCell>
        <mxCell id="2PSiQPES3JSb_-M2PAoh-50" value="" style="shape=image;imageAspect=0;aspect=fixed;verticalLabelPosition=bottom;verticalAlign=top;image=data:image/png,iVBORw0KGgoAAAANSUhEUgAABN0AAALJCAYAAACAxVU8AAAABHNCSVQICAgIfAhkiAAAABl0RVh0U29mdHdhcmUAZ25vbWUtc2NyZWVuc2hvdO8Dvz4AACAASURBVHic7J13WFRH98eZ3aVXAVERxS6CSiIqijVq7MYuscRXjYkJiqKxm8RYUFGj2COxxN67UWIjigUhGjVqEgWxF1AEBWnLfn9/8Jvx3t27sLsssJr5PI/Pm5fdvXt2ypkzZ845QwDAjMPhcDgcDofD4XA4HA6Hw+EYDVlpC8DhcDgcDofD4XA4HA6Hw+G8b3CnG4fD4XA4HA6Hw+FwOBwOh2NkuNONw+FwOBwOh8PhcDgcDofDMTLc6cbhcDgcDofD4XA4HA6Hw+EYGe5043A4HA6Hw+FwOBwOh8PhcIwMd7pxOBwOh8PhcDgcDofD4XA4RoY73TgcDofD4XA4HA6Hw+FwOBwjw51uHA6Hw+FwOBwOh8PhcDgcjpHhTjcOh8PhcDgcDofD4XA4HA7HyHCnG4fD4XA4HA6Hw+FwOBwOh2NkuNONw+FwOBwOh8PhcDgcDofDMTLc6cbhcDgcDofD4XA4HA6Hw+EYGe5043A4HA6Hw+FwOBwOh8PhcIwMd7pxOBwOh8PhcDgcDofD4XA4RoY73TgcDofD4XA4HA6Hw+FwOBwjw51uHA6Hw+FwOBwOh8PhcDgcjpHhTjcOh8PhcDgcDofD4XA4HA7HyHCn23+UnJwcs9zc3NIWg6MnptZvpiaPmZlpymRq8DZ6N+H9Vjim2EZcpncT3kbvJrzfOJySgc81jrH4L4wl+Q8//PBDaQvBKVmys7PNJk2aZBYXF2f28uVLs2rVqpkpFIrSFotTCKbWb6Ymj6nKZGrwNno34f1WOKbYRlymdxPeRu8mvN84nJKBzzWOsfjPjCVw/nMcPnwYVapUASEEhBDUqFEDy5cvL22xOIVgav1mavKYqkymBm+jdxPeb4Vjim3EZXo34W30bsL7jcMpGfhc4xiL/8pY4pFu/0HKli1r5uPjY9agQQOznJwcsz///NPs6NGjZjY2NmbNmjUrbfE4WjC1fjM1eUxVJlODt9G7Ce+3wjHFNuIyvZvwNno34f3G4ZQMfK5xjMV/ZSwRAChtITilR2RkpFnnzp3NnJ2dzR48eGBmbW1tBsCMEFLaonEKwNT6zdTkMVWZTA3eRu8mvN8KxxTbiMv0bsLb6N2E9xuHUzLwucYxFu/zWOIXKfwHycvLY//9zTffmJmZmZmFhYWZWVtbmymVyvdiYL+PmFq/mZo8piqTqcHb6N2E91vhmGIbcZneTXgbvZvwfuNwSgY+1zjG4j8zlkohpZVTyiiVSgBAeHg4CCHw8/PT6XMqlao4xeIUgqn1m6HyFCemKJOpYWrjiKMbuvQb7SOVSoXc3NwSlc8UMMX5r4tMeXl5AID09HQ8e/bMJGSS4r+kA/SZb0lJSYiJiSlR+TjSmKIO4HDeR7hNwjEW/xW9zdNL/2OoVCozmUxmlpKSYubp6WmWkZFh9vvvv5u1bNnSTKlUatwWkpeXZyaXy0tJWu2kp6eb2dnZlbYYJYap9Zu+8piZmZndvn3b7M2bN2b29vZm1apVMwmZTJHMzEyzly9fmrm7uxv92aY2jorCf0kH6NtvUVFRZnFxcWYVK1Y0CwgIMKtatWopSV5yGDL/c3NzzTIzM82ysrLM3NzcSl2m2bNnm124cMHMy8vLbPDgwWa+vr6lLpMp64DiQt822rhxo9nIkSPNqlatavbTTz+ZBQQElJLk/21MUQcYwn9pbXtfKE67rSgUl/5+X2ySnJwcM0KImbm5eWmL8p/lfdm76URpe/04JQs9dQgKCgIhBJ9++qno7+r/nZqaiosXL2LGjBkICwvDihUrkJSUVLJCq5GamooWLVogJCQEGRkZpSpLSWFq/aaLPPTk4tSpU+jXrx8IIXBxcUG5cuUwZMgQPHnyxGjy6CpTYZ/NysoyqkyGcPDgQRBCMHz4cKOPb1MbR4byX9MB+ozt5ORkjBs3DoQQWFpawt3dHV9++SUeP35cojIXRF5eHtMPxkIfnZSamor9+/ejQ4cOaNCgAXx8fPDFF1/g6dOnJS4TJTU1FQsWLEC5cuVgaWkJa2trDBgwwOiRb++6DlAqlThy5Ai2bduGkydPFovO1qeN4uPj0bNnT5ibm8Pa2hqEEPTt29fo6xuncExRB+iLKa9txaG33xeK024zlNTUVMyZMwf79u0zup58H2ySrKwsjBkzBtOnT8fevXtNwv7/L/K+7N10gTvdTAhhGO7du3dx//59/Pnnn0Z7Pl0sL1++zK7lffDggeg1muaSl5eHY8eOoWnTpuy9CoUChBA4ODggNDTUaHLpy7Jly2Bubg5CCOzt7bFkyZJSk6UkMLV+00UeOpZzcnJQu3ZtEELQsGFDDB48GI0aNYK5uTkcHBywfv36Isujq0zqqFQqJufz589x6NAh+Pv7l+rYBoDz58+jffv2UCgUsLOzM9r4NrVxVBT+SzrAkLF9/vx5zJ07F8OGDYNcLgchBGXKlEFiYmJJiS3J/v37MWzYMHTp0gU9evTAL7/8YpTn6tNG2dnZGDRoEGxsbEAIgZeXF2rUqAErKyuUK1cO+/fvL3GZ1D+3bds29OrVC3K5HBUrVsSBAwdKTCZT1wGxsbGoV68eCCGwtbWFt7c3li9fbrTn69NvKpUK4eHhsLCwQP/+/bFjxw4MHToUlpaWkMvl+O6774wmlz4Uty1pijKZog4wBFNc24pLbxuCKY5toPjstqKwaNEiEEJgbW0NHx8f/PTTT0Z57vtikxw+fBhVqlRhv6FGjRpGXUs4hfM+7d10gTvdTIiXL18iMjISTZo0gUKhgLm5OcqWLYvmzZvj5MmTRvuedu3agRCC6dOnAxAPbDqQly1bBmdnZ9jY2GDIkCE4ceIE/v33XyxZsgQtW7YEIQQ9evQocYWZkJAAb29vyGQyTJgwgW0IvLy8cOzYsRKVpaQxtX4rSB7KsmXLQAhB27ZtkZqaCgB4/fo1IiIiUKZMGZQrVw6///57kWXRRya6qQTyT0eioqLQuHFjlCtXjin9zz77zGgyGUJycjIiIiLg7+/Pxvdvv/1mlGeb2jjSF1PWAXRs5eTkYM+ePSWmtwuiT58+IIRg9OjRbA6WBjt27GDzy8XFhW1469evj3PnzhnlOwpro+zsbAQHB4MQAh8fH6xatQpA/tr7888/w8HBAS1btsTr16+NIo8uMgkRvpaWlobFixdDoVDA39/fqJFT77IOePHiBTZv3oydO3diyJAhqFOnDgghaN26NW7cuGG079GljWJjY9GoUSNUqFCB6Z709HRs3rwZH3/8MatNEx8fbzS5dKGkbElTlMkUdYCumOLaVhJ6Wx9McWxTitNuM4Tnz5/jjz/+QHBwMLy9vUEIgb+/Py5dumSU57/rNklKSgoOHjyIBQsWoHXr1mycz58/v9RkohSnLWmKvC97t8LgTjcTYsCAAZDL5ShTpgz69euHuXPnokePHvDw8GAKKiUlRe/n5uXlITs7GwCwa9cuEEJQsWJF0Ym2kNOnT7MBvGfPHo1Q6YSEBHz22WcghGDfvn0G/lrDGD9+PAghCAoKAgD8888/mD59Ojw9PUEIQcuWLZGcnFyiMhUXptZv+soDAJMnTwYhBNu3bwcAZGZmstf27NkDQgi6dOmC3Nxcg4p06yOT+vNPnjyJLl26sHETHByMsmXLQi6X4/Tp03rLYiyEcqqP7549e+q9yTW1cVRUTFkHpKenIzIyEq1atWJt2KdPH6Snp+s9vg2ZbxRasHj37t1wcnJC1apVcfXqVQN/VdF59eoV6tatC0II5syZg+fPn+Py5cuYNGkSHB0d4ebmhl9//RWAfsX69WmjjIwMrF69mvXL2bNnNZ73ww8/gBBSJAO3KP0G5Ped0OCcOXMmCCFYunQpAMMuM3jfdICQGzduYPjw4Wyu0d+pL7q2EW3/169fY/LkyTA3N8e4cePw5s0b0fPu37+PBQsWYMqUKbh//76hP88gisuWNEWZTFEHGIqprW3FpbeLgimObcD4dpux+euvvxASEgJCCBo0aIA7d+7o/Yz3ySZR5+jRo8yxTHV5aV4cZExb0hR5H/duusCdbibAq1ev2GJbo0YNXLlyBTk5Oez1kydPokOHDiCEYOLEiYUa7ZTMzEyRAZqTk4Nq1aqBEIKtW7cCgMZtMvfu3UNAQAAIIRg5ciSTT/19SqUSS5cuxd27d0V/N9Tg1YUzZ86gQoUKcHZ21jBiz549i//973+oVq0aTp06VWwylASl0W/GloeyfPlyEEKwcOFC9jf6rJiYGNjY2KBhw4aSny1oYSmKTL/99hs+/fRTEELg5uaG5cuXIy8vD0OHDgUhBCNGjND6vSWF+hw/e/YsOnXqxBZfmm5m7DYqznFkDExJBwjbPisrC2fOnEHz5s1BCEGLFi1Qo0YNEELQqFEjvZ5blLENvB07L1++ZOvGjz/+KFpTSpojR46AEIJWrVppvLZ+/XoQkl8HS1cMaaMzZ86INpDA27aiTq6lS5eCEILw8HCN7yysZoih/UbHUUZGhuh1ekBBo4XpfNSH91EH0PZSPwnv2LEjCCHYuHGjXs8ztN+OHj0KPz8/EEIwZMgQHD9+XNL+SUtLK/B3GJPisiVNUabS0AHFiSmtbRRj6+2iYIpjWx1d7baSRH3d/+6770AIwbRp03R+xvtokwDiNYRGAq5ZswZAwb/H2BSXLWmKvO97t8LgTrdShtYEsbKygo+PD+Li4iTf9+bNGzRr1gw//vij6LMFPXfFihXo2LEjdu/eDQBYvHgxCCFo3ry55Gdyc3MRFhYGQvKLXTZv3hxeXl7w8/PDuHHj8McffwB4q6jUT+Tj4+PRtWtXhIWF6dcIOkJDkgcNGoSHDx9qvP7mzRvcuHFD48T5XaI0+s2Y8gif+/r1azx79gxeXl6oXLmyyFjMycnBwYMHoVAo0KZNG1a8WNfCmbrKJDSCLl26hOHDh0OhUMDV1RULFy7E7du3AQDHjx9np1zCTaQwquHChQta52dxINwM7N69G5UrVwYhBAMHDkR0dDQAaC3YW9LjiLbTmTNnRDrK2JiiDoiOjkavXr1gZWWF2rVrY/ny5bhy5QpsbGxgY2PDoil0MeIM6Tdt0M1j8+bNce/ePf1/mBG5cOECCCEYM2YMgHzDUmh40RTBixcvFvosQ9ooOTmZpZS1a9cO6enpADRPU+fNmwdCCHbu3Ang7Vi/evUqfH19ta5tRe03lUqF1atXY8KECaLom2fPnuGLL74AIYTVmhHKnJKSojXt1NTWkuKCfv+kSZNAyNv0FGOvJerExcVh3rx56NGjB9sETJ48GY8ePQKgudnVVSZDMdSWfBdlKkkdoOt8KyqmuLYZU28XBVMc29ooyG47f/58qcilUqnYIc7ff/8Ne3t7BAQEsDlQ2GffR5sEeLt2hIeHg5D8UgC6UFz9Z0xb0hQpyb2bqcKdbqXM1atXWf5/p06dMGnSJMyaNQubN29mN7vQCa4eVn7p0iUEBwdLhsjn5uZi4sSJzHju06cPLC0tQQjBzZs3AWhGpT148IB5nB0cHNCiRQt8/fXXzOPeunVr/P3331p/y5UrV9C5c2cQQlC9enUcPHiwSG0j5I8//kD//v1RrVo1yOVyNGnSBKtWrcLz588BSOd/m2IIbmE3r5VGvxWEIfKkp6fjyy+/ROXKlVG2bFl4eXmBEILKlSsjJCQEp06dwsyZM+Hu7g5LS0tRFByQv9EMDw9HaGgopk2bphEurKtMVGlnZmaK0iHGjh2rEdZOa6csWrRIsh2OHz+OqlWrwsXFBd26dSvR+irffvstuxmvX79+orHerVs3eHh4aNRWKY1xlJ2dzd7r5eVl1PkPmJ4OOH36NIYPHw6ZTAYnJyfMnTuX6exhw4YVGJ2kTS5D+k0IHfO3bt2Cr68vZDIZdu7cWSqn/kIyMzPh4+ODWrVqaYyhGzduoE6dOnB2dsY///zD/h4fH4+//vpLY90zpI3OnDmD8uXLw87Ojo1LqfSFbt26QS6XM4OQcu7cOXz00Uda17ai9ltWVhb7fJUqVTBs2DBs3LgRffv2ZZsB9dqXT58+RefOndGuXTtMmzYNFy5cKLJMxbmWFBd03s+YMQOE6FfTpaj9JiwC3bRpUygUCsyePbvA70xPT8fy5csRFhaGH374gR2gFBVDbUn1yEFj6kxDZSrMkVsaOqCw+VYUDFnbACAqKgp79uxBQkKC0WQRYky9XRQMHUelue4VZLedPHmy2PqN/ub79+9j27Zt7BCAcujQIRBCUKdOHZ2e977aJPT7X7x4ATs7OxBC2F5DyqlVnIdLRbEls7KyTO7mzuzsbMlDp9LYuwH5ujs6OhqHDh1CbGysEX+p/nCnWymSm5uLCRMmsNBjQghq164NhUIBmUyGfv364fLly5KfTU9PZyfShBAEBgZKnsAdPXqUOT2o8a6uPNS9/R4eHoiIiBC958cffwQh+YWTX79+rdUwi4+PR2hoKAuHbdu2rdGM9GfPnuHRo0dYuXIlXF1dYW9vjwULFmi8T/1kcu/evVizZg1Wr16NpKQko8hiKLrevFbS/UahbZecnIxnz57pLA/93N27d/H555+DEAJvb2+sWbMGZ86cwaZNm9iYIITA3d0dtWrVQkREhCj9ZuvWrez0VPjvk08+0TgZK0wm+lvnzZsHmUyGypUrIzIykr1OF4WVK1eCEIIPPvhAsniySqVCUlISIiIi0L59e7i6uoKQ/Fp0xVGng7blv//+y65ZJ4Rg5cqVbCHOzc1FRkYGQkJC4O7uDkLy0zzUdUBJjiOabuLl5cU27sac/4Bp6ID09HSMHDkSCoUClpaWmD59uqiAOzVq3d3dWZqQUqnU2OA9evQIly9fliwkrEu/FQQ1bPr3748XL17o/DmhgaxurBvCnTt3sHjxYgQHB7M0Gz8/P2zcuBGpqalIS0vDmDFjYGNjI5rjDx8+RGBgIKpWrYpOnTph9uzZGv2mz9ieMmUKCCHo1auXhozCaDZCCMqXL890n3CcJyQkFLq2FbXf9u3bh5o1a4p0X926dREdHc30FZXp/PnzqF27NpycnNh727Rpo7eeFLZBSawlxkL4/Xfu3GEbJymHirpM6hSl34SbXHpT9969eyXfc+HCBXTv3l1jfevYsWORLlsw1JZUb4/MzEwkJyfrFAFTHDJRedLT0xEbG4uQkBBMmDABYWFhknq7JHWArvPNUHRd2yhPnz5F+/btQQiBp6cnRo4cyTIGikpx6m19Kco+CcjPBjh//jz27NmDTZs2FVtNPF3sNgB48uRJsfWbkOnTp8Pc3Bxt27ZFREQEHjx4gJiYGHzwwQciJ0VhBesp74tNQqHzOigoCIQQfPrpp6K/q/93amoqLl68iBkzZiAsLAwrVqwoNVuScurUKbRo0QJfffUVwsPDTaKeeVZWFsaMGYPp06dj7969kg7B4t670TGTkpKCTZs2sXqPhBDI5XJ06dLFoJqGxoA73UqRf/75Bw0aNAAhBO3bt8f+/fuRlJSEZ8+esYkYGBgo6XU/e/YsatasicqVK6Njx46wsrKCTCbTekX90qVLYWtrywb40qVLRYM8KytLpIxpKDId3I8fP0bVqlWhUCh0up47JiYGI0eOhKOjI/PSC4voF5Vbt26xky+pNAAA2LlzJ7tljf6zs7MrtvRXXdD35rWS6jdhzYVDhw6hSZMmICS/oK/wxKIgeVQqFX755RdYWlrCzc2NhdJTnjx5gk6dOqFt27aIjo7Gy5cvRd9/9uxZ9uyePXtiy5Yt2LNnDyvY3bp1a0njpLA22rFjB9uQBQQE4JdffmFpmcnJyazY7f79+7W2j5CTJ0+ywt2+vr7s5KSoEQLCzycnJ7MCqp6engVeYx4VFYX//e9/sLS01KoDinscJSUloVq1arC1tcWvv/6Kv//+G0FBQaL5b+y0mNLSATT6KDg4mG02qI5+/fo1O3mjKS7qhuny5cvRvn17yOVylC9fHlWqVMGsWbMkv6uwfhNCf/vp06fh7u4OFxcXnDlzptDfIxx3Dx48wPr161GlShUQQvD1118bnMoQGRnJDKvq1avj888/Z/OGEAJXV1dWR8XHx0d0y9udO3cwefJk+Pj4QC6Xs8/MmDFD43sKa6P09HSULVsWhBAWLSbVhjS9i84f9cL5lJiYGNHYHjVqlMbaJiWTLjVvgPyC140bN8acOXOQkJBQ4Ablr7/+QlxcHEaPHs3a6LvvvpP8LlNbSwxBfX7n5uZi9erVbI536NBBcsOoPh60Xf6gb79R6Bih6VNTp07VkDcnJwcDBw5kzpqdO3di7969THeXL1+eRVfpu5YUxZYEgE2bNmHQoEHw9PRE3bp10aRJkyLf4FcUmSZMmIDy5cuDEAILCwsQQmBjY2OwniyqDqDoM9+KgtTapj4mMjIyEB8fj5kzZ6JZs2awtLSEpaVlkcs7lJTe1pWijKOYmBh069ZNtP47ODiwen7GQF+7rbj6TQqack/tHhpV1KFDB5H9TdFFT77LNglFGKFM2+fBgwei14QF/Y8dO8bsOkIIFAoFG0uhoaEGy6GvLam+ngQFBcHBwQHW1tasj2fOnGmwPMbg8OHDrK8Iya+/qG3/Uhx7N/r5rKwsjBgxAg4ODiCEYOjQoZg3bx769+8PW1tb1KtXD3/99VcxtoQ03OlWimzatAmEEDg6OmrUcHj9+jVLZ1G/HSgpKQlBQUGQy+UICwtDcnIytm/fjrZt24KQ/NoidKEWkpaWhq+++op5e4WLZXx8PKpVqwZvb28W5klRqVRQqVTshLagYqBCpfDmzRtERkayUx1LS0usW7dO/4bS8h0REREghGDAgAEa79mwYQNkMhksLCzQsmVL7N27FwsWLECLFi1EpzyljS43rxVXvwkXtuzsbERFRaFJkyawsrKCi4sLCCEoU6aMxqm9lDxU0QUGBrJFRPgddCGhKUC7du0SPTMlJQU9e/YEIQTdu3cXvZadnc1uXVq/fr1kOxbURvR1WhuJkPxojbi4OGaU9OzZU6dbBSmZmZmYPn06CCEYO3asRnsaAv38vn37WLFZHx8fnD59mr0m/A6hvK9fv8aWLVvQpk0bEJJ/C5B6Gxfn/P/2229BCMHw4cPZ3zIzM3HgwAHWrz179ixC64gpLR3w8OFDNoYGDx6sEapOLw5p1KgRm8t0bqSnpzN5ZTIZatasia5du7LIplatWuHWrVsa31nY2AbeOkaUSiUGDBgAQggmTZqkteYfIB4/qamp2LBhA6pUqQI7Ozs4OzuzjYMh9XqSk5PRtGlTWFlZYciQIaK58/fff6NRo0ZwcHDA8OHDsXfvXskT7IyMDNy5cweXLl1iEUSBgYGS3yfVRnSu/P7777C0tETTpk01PkflogXDXV1dJaPcAM217cSJE2jdujUIITA3N8fatWsLlYl+Jz0hV9+s0O/47LPP4OLiIjkepNiyZQvs7e3RoUMHVndNSh+Z2lqiC1K/4/r16wgPD2ftT+ccjRbTpotXrlzJNsX29vaSc0nbWMrNzWWHPtr6bceOHZJrGADcvHkTXl5eqF27Nq5fv87+npGRgZUrV8LS0hLt2rUzKFVIX1uSjvsbN25g7NixIITA2toazZo1Q4cOHVC1alUQkh+1bOgtnvrKRNvwt99+g1wuh4uLC2bOnImrV68iPDyc6e1+/fpJ6ouS0AEUXeebIeiytqnz8uVLrFu3jjnN58yZY1A6XEnrbV3QdxzR333gwAG2Kffx8cHq1asxa9YsNv9/+OEHo6QM6mu3CTFWv6kjXKtiYmJQv359+Pv745tvvsHevXsLvd21MD35LtokUrRr1w6EvK0DKhVttWzZMjg7O8PGxgZDhgzBiRMn8O+//2LJkiXssKdHjx56Z70YYkuqj6OXL1/i+fPnePDgAX788UfWZz169Ci1mnkpKSk4ePAgFixYIFqftR3iGHvvRtuIXhhSvXp1rFixgr2ek5OD+fPns/lW0nCnWylCw7ZpTSt17z0t+qp+SrR//364uLigVatWuHbtGvv7/fv3sXDhQtSuXRu1atXClStXJL/3ypUrCA0NFaUzPHnyBDKZDM2aNZOs96FSqVChQgUQQgqtZ6VSqUSnBYMHD2be6sLqnQgp7CbU58+fw83NDfXq1WPh23l5eTh9+jRLAViwYIEo5e7mzZuoXbs2KleuXGwFcQuiKDevGavf1L87MjKSOWwbN26MGTNmYMSIEVAoFBg7dizbIKorfHV5Xr9+jfr164OQtyk+6ilR+/fvFyk7OuajoqJACIGVlRUL+83NzWWfv3nzJjPeCoqWUJeJbpYo165dYwulra0t5HI5ZDIZ29wW5nhTKpXs+9+8eQM3NzfY2dmxUzJDEBbe/e2331gETbt27bTOYSHCfnn8+DEWLVrETo+6dOnC6sJQjD3/r1+/DgsLC7i7uyMqKkpDPpqaSzfy+tTyMEUdEBUVxU7ey5Urh2nTpuHhw4d4/fo1KlWqBEII9uzZA0Cs0w8fPsyKKs+ZM4cZvgkJCRgxYgQIIQWeUtJ+owVkAc0bNTdv3gwbGxvUqVNHw3FCEbZ/Xl4e1qxZw+Ztz549sWLFCvTs2RMKhQLh4eGSKdeFsWnTJjg4OKBRo0bMmMzLy2O6h4b8b968GYCmbhH+/9OnT0OhUKBs2bKF1sCRGttxcXEghKBr165af4uvr6/IEattkyRsu4yMDLRq1YpFD6inY6rLRPvt119/xeeffy75W+l/L1myBIQQyc2Muix//vknWrZsCXt7e/z0009a3y8lk6msJYWRnZ2NM2fOYM6cOWjcuDEzwAkh8Pf3x8qVK9lcVq9NplQqsWHDBvj7+8PKygpeXl6wt7cHIaTAQ0Cpfvvf//6n0S5CGefOnSuax8Lx8uTJE7i6usLX15ellAv1W9euXQvtc20YYktmZ2ezTWfbtm1x/Phx9trt27cxc+ZMuLm5oUKFCpJ1g4tDJuBtGpp6fSJJQwAAIABJREFU5E9CQgI6duwIa2trbNiwQev3FpcOKMp8k0KftU1b+qFQpwL59k316tXh7u5uUFmH0tLbBaHrOPrhhx/Y3x48eMAiJUePHi3KIrl9+zY+/PBDlC9fvkhyFcVuM3a/SY0llUqFvLw8qFQqzJgxAzVr1hQ5htQdgoboyXfJJqHPpm21a9cudkAtjGoTcvr0abbO7NmzR8NhmJCQwDJxtEVPF4Q+tqS2gx71MgtdunSBhYWFyNFUWhw9ehSE5F9yQDNdtK39Rd27KZVKUSkA2m87d+5k303HZkZGBhwcHNCwYUO8evWqeH68FrjTrZRITU3FRx99BGdnZ7ZhFw7GrKwshISEQCaTYebMmey1+Ph4Fjnyww8/SIbZXr16FUePHtVLnocPH8Ld3R2+vr7sb0qlUqPWi6+vb6HGAuXOnTssfLZ69eoirzJ9rrYBn5SUhK1btzLlqq6UAeDixYsgJD/fncp048YN5sCiOfqAeAJPnjwZhBCNAv2lQVFuXgP06zf1xfDEiRMYNGgQLCwsUKlSJaxatQo5OTnYs2cPKleujDp16kg6UbSRl5eH//3vfyBEfB25sJ4Vrc0xadIk0WfpScfXX38tahfK2bNnYWNjg3bt2ml878WLF0U1M7TJJhxDhw4dgq2tLRQKBVxcXBAWFqb19C83Nxc3btwQ1Z5TqVRITExEvXr1ULVqVZ0jUgpizpw5bKENCgrSyyAUOrnpxq9s2bIYOHCgTvPV0Pmfl5fHxq5cLsfQoUOxbds2Nm8Lc14UtOCZmg6g0T6UiIgIlClTBoTk15T4+OOPQUh+zRL196elpbGCuMKaQvT1rKws1K9fH+XKldO53olKpcLIkSMxefJkvHnzBnl5eSzScfny5YWmYGzduhXt2rWDXC6Hr68vDh8+DCD/ZNfa2rpIRfNpRKu2CIe///6bneJq+20UGslgaEpwTEwM5HI5mjVrxv5G20alUrHx6+/vr7NDODo6mvV3w4YN2SZUF6gODAkJEfW1sL9o9PPWrVsln0Hb582bN5g5cyYUCgX69evHbu+SmneFrSmmtJYA+YbxkSNHMHr0aFYjkpD8dMNmzZrh+++/x7FjxzTqj9F2zMjIwG+//cbmRIMGDXDhwgWWGtixY0e9DgC+/vprEELwzTffiNYK+n1//PEHWrRoAQcHB9HhmXBT26ZNGzg7O4uc/VR+epqv7sgpLPLFUFuSRrg1bdpU5NQRfnbDhg2oVq2a3o5AfWUSvk4jyGkbCgtr003whx9+KCmvNoqqAwyZb4D0DbaA/mtbYWnZOTk57PfQCI/FixcX+BkpTElvA4aNo5SUFOYIadu2rcheoW1E61Nu27bNYNkoRbHbjNFvSUlJ2LFjB9PJUlE/f/zxh0bQA9UrxtSTpmqTZGZmisZBTk4OW1PoGqsu27179xAQEABC3l5i8OrVK433KZVKLF26VK+bMw2xJQtC2D+xsbFQKBSoUqWKwc7JoiBcr2ga+po1awAYduuqvnu3nJwcNuZGjRolKd/z58/h5eWFDz74QMOWMeZFQlJwp1sp0qZNG1hYWLBUA+GAfP78OavpsGrVKvb6oUOH4OfnB0LybzmbMmVKgaG2+gygL7/8UvR99PM0koWQ/KKgujwzKipKlO4aHR3NBjf939u3b6Ns2bL49ttvNZ65e/du2NraYu7cuaK/C9uIGkpUIb58+RJz5swBIflF/Onipx4yPGbMGBBCRCe7pUVhN68Jowa1oUu/CXPqz5w5wzZ19vb2mD9/Prt96s6dO+jatSvMzc0RGhrK+kp9kQCkFWhsbCw8PDzg4uKCPXv2MNlzc3MRGxvLNk70JDAnJwcqlQrffPON6DRT/bu2bt0KhUKB/v37i+onpaSksCihCRMmFDo26Wd///13EJKfskBrj6xYsUIytefy5cuoXr06+vbtiyNHjgDId6KEh4fD3NwczZo100h70IeUlBRMnTqVzZWQkBCDnpOYmIiBAweyehNr164VLUaFtY2h8z86OhonT57E6NGjIZfLYW9vj1mzZrHTJXWDjY6JguY/YLo6QD3NmI5d6nhcunSpxmeePXvGon1pTRP1eU1TU9RvZ9JGfHw8+96AgACWwtGpUyc8evRIMoIqNzcX+/btExVy3rx5M9vQXLp0Cb6+vrCzs8OWLVuYjPR/b9y4wYoI//rrr1rHFE03/vLLL9n3Ch3Dv/32GxwcHNCjRw+NSyboewDg559/BiEE9evXl7xwQhdUKhU7qNqyZQv7+6NHjzBr1iwQQuDk5MTqlBW2wThw4AAz2L29vUWn/LpsTugt3+bm5ujbty9LiwLyjfqDBw8yXUCd+dra+dSpU/D29oaHh4dOqZsqlUp0eKBOSa0lwksWjh8/rjHm8/LyMGrUKDZnnJ2dMWjQIISFhSEmJkZDbvVLfS5dusTGuLe3N4teunfvHosC1jd669y5c2jdujXMzc0RGBjIorlVKhWuXbvGInJ69eolSrt79eoVrl27hm3btrF1vkmTJqJ+v3HjBtPbly5dYr+D/rbs7OwCN3W62pK0786cOcN0x7Jly7B3715ERkZKFqS/deuW5A3ChaGvTBQaHTF69GjR35VKJa5cuQInJyc0adIEz58/Z2307NmzAh3fxtIB+sy3EydOICQkBLt27SqSfUtLdajLdOnSJY3airm5uWwO03R3YeRnYVEdpqS3KbqOI+qs3rx5MwjJT5emEW7qci5evFjkcDFko22o3aZrv9HfWdjYPnDgAGxtbTVS5ejnlUolS9GdMGECe70oelKlUrHC/kJM0SZRqVRYsWIFOnbsyGpm0v5v3ry5ZJvm5uayiwotLS3RvHlzeHl5wc/PD+PGjWMp5cL9jSFpwYbYktqgvzszMxOVKlWCTCbTGllYnKgf0vn5+Wm8h8qalJQkuZ5LUdjejR5e0bHu5OTE9B39PqoHHjx4AIVCgYYNG7KDT/WxWZCdVBS4060UoIOSTrAdO3aIXk9NTcW8efNACEGFChVEHvpXr17h4sWLOHHiBAu1bNGiBXO8FWT0Z2VlITMzU2uoekxMDDw8PGBra4vhw4dj27ZtCAkJYcX+e/XqpZGqRhFe8RsdHY2KFSsyZUtvHVFXhjS6iZD8qBxhva5z587B29sb5ubm+OabbzQiiXbv3o2KFSuiXLlyLKovLi6OedapISf8Thpq/emnn8LR0VEjyqUkr7BWDwlWv3lN/WTz1atXuHfvnuTJRWH91rNnT6SmpkKpVGLXrl0oW7YsHB0dMXv2bNHir1KpWGHLNm3asNRl9XZZs2YNPv30U3Tu3Bldu3YVjd+cnByEhYVBJpOxjdIvv/yCESNGsI0qdZAI24AqaFq/RLiAPX36FJ07dwYhbwtUU5RKJQ4dOsRONlxdXbXWfaO/Izs7G40aNWInnampqZg6dSorsKzOq1ev0KVLFxCSn/7q7e3NxpmHhwd+/vlnyc9JtR2F/vYrV65g2LBhkMlkIIRg+/btzEgtbDwK2y8hIYHVT/D19RVtmilTpkzB6NGjsWDBAklHfVHmP+XWrVsICAiAra1tge0CFDz/gdLRAbqiHvpOTybpv1GjRokcuHv37mWbbSnu3LmDFi1awNXVVbRhp2Pg+fPnkoWPnz59yqJLCcmPAhIa3/T3Avn6f+HChbCzs0OtWrWwdu1aje+ia9LgwYMlHcmTJ0+Gm5sbCMmvY1a7dm3JlPgrV66gfPnyqFixosZYS0pKYlE2ISEhWjduycnJrCYQNZYL4uHDh7h79y7+/fdf9jdhWruDgwPKli2LwYMHIzQ0lJ1i169fn6WrSW2+hFGZGzZsYDXKvvjiC8TFxQGQjka6f/8+zp49i3Pnzmm0wcuXL9lhgZ2dHVq2bIlJkyahY8eOcHBwgFwu14gAUv9NtLYrdVDQ8SH1G5KTkxEaGooOHTqgRYsW+PjjjyWjPIp7LVGXbdSoUSz1qFevXsyRkZWVhVGjRoGQ/KLVX331lUYquFQE7+nTp/HJJ58w2+m7774TRcL1798fhORHpGjj+fPnSEpKkrzdLCUlhUWk0fHv7+/PbpBu166dRg203r17szStRo0aMSeBk5MTWrdujT59+rAbsdUdTTdu3MDgwYNRu3ZteHt7o2XLliKnkT62ZPny5dnGha6XtJ3of3t7e2Pp0qXsdlqpw7bs7GzMnz8fP/zwAxv/QvS1b4WHsBs3bkRERARL9Rw/fjzbOD5+/Jg9k0aAUNavXw+5XA5PT09mQ1GKqgMMmW8ZGRnsFndra2vUrVsXmzZtYq/rs7bRgz4hjx49Qo8ePeDh4YHp06czp/X69evZBWsnTpwQfebChQsICgrChAkTcOHCBY1nAqWjt7VhyDhKTU1lF7d8//33IrmEz6S/QziXgMKdb0W12wzpt4LGNpCf2eTv7w+FQoGQkBCNsXT37l0MGTIECoWC2WSnT59mF0wYoiefPn2Kjz76CG5ubqLDA/qaKdkkubm5LGXd0tISffr0YSUhqG5RX0sePHjA9isODg5o0aIFvv76azRv3hyEkCJlAaijry2pDfqMnTt3gpD8CwzowTd97dq1a7h586akw9QY0LH/4sULtqelNrbUQc2GDRtgZ2eHevXq4dy5c4U+V9ve7dSpU+y9VPesXLkSgLRtNnPmTBAirkEN6G4nFQXudCtF/vzzT3h6eqJs2bJYsmQJHjx4gIcPH2LChAnMCKOGgLaTxeXLl0Mul6N169Yap5F0sL18+RKHDx9Ghw4d0LBhQ/j6+mLQoEGizYlQJuEtLdQ47Nq1q07XI8+dO5cV4e3WrZtoky6M2qInrY6Ojpg/fz7La/fz82MGwaVLl1hhyPr162PkyJGIiIjA8OHD2W0tM2fOZHLRtLrWrVuz3Ht1D/eTJ09gbm6OChUqiHLB6f8+f/4cO3bswPbt27FlyxajFqPU5eY19dvkFi5ciLZt28LR0RHVqlXDhx9+qHE6CujWb4mJicwg6datm4bz9eLFi2jatCkcHR1FDhMqU1xcHIYMGcKe7+rqyqIf2rdvL4r4iI2NZQYt/efs7Ixhw4Yx40T4W2/fvg0vLy+UKVNGVBvhn3/+Ed0URk/71dvy8ePHWLJkCTPW/fz8NG5PpdBog+bNm4ucmOpjRZ3IyEh4enrCwcEBAQEB6N+/P06dOqW1yKmQa9euYc6cORqnhtS48fPzwy+//KL18wWxe/du1q81atTA9evXmb6gv+XatWtwcnJidUcsLCzQqVMnDQNN1/lfkHPiyJEjUCgUqFatmoaTWJ/5D5ScDpBCGGlSWPsTkp9Cv23bNri5uWHy5Mmi91y/fh1lypSBt7c3cx4In3/o0CG4uLjAy8tLw5hLSkpC48aNMWjQIISHh0saTHTuUidOcHCwaD7StqxevTpzbqsbsEeOHIGnpycqVaqktW7n/fv3cebMGRw7dgxfffUVc8YEBgYyY1mlUiErKwvff/89CCGoWbMmli1bhrt37yIhIQHBwcFwcHCAh4cHSzmUSomhUQSffPJJgTdSxsfH47vvvoOdnR3c3d3h7u6Ofv36sYgrSlxcHJo3b84Mbmtra3zyySe4c+eO1ptKhYSEhMDGxgaWlpYYMmSI6DWhfDdu3MCECRNQrlw5NoeoY019IxsTE4POnTvDxcWFRTrVqVMHy5cvZ5sgbfpox44dKF++PHx9fSVvhKPtc+zYMVa7ixCCypUrw8bGBoQQdO7cGYlqBaCLcy0Rkp2djVWrVmHgwIGi2878/Pzw4MEDqFQqREZGokaNGsxhvXr1alH0rjD1ZO/evahZsyYcHR2xYMECDd0jrC8jjBqj7fTkyRP89NNP8PDwQPXq1VGtWjX0799fYxzR39e7d2/UrFkTbm5ucHd3x4ABAzTagaZK1qpVCydOnEBycjJyc3Nx4sQJ+Pj4gBCCunXrYsSIEdi0aZNo4xsbG8v6zdnZGQ0aNGB24UcffSSKYtDFlqQRNPTCAHNzc/j5+WH37t34888/sXPnTnh6esLZ2VnjEh4hN2/eZM90cnJCz549tdqShclEN8e7du1it8yVK1cOgYGB7ODWw8MDHTt2ZDWe6tevzyLyaN89ePAAoaGhbKy0bdtWclNcFB1Q2HxTJz09HZcvX0ZwcDDTk126dGE1i3RZ22bNmqW13MCxY8fg4eHBfgf97YTkpxEKbe+cnBwcPXqUOYdtbW3xySefaBxQlITe1oZwYy1El3FE09c2bNgAQvKjpdRTd+n/pqWlsaL8NONCmGqcnp6OqKgoHD16FAcPHpRcb4tit+nab7Q9dRnbV65cYZlFDRo0wNSpU3Hx4kUcOnQIvXr1gqWlJfz9/fHw4UMcO3YM1apV01tPUvLy8rBhwwbR7bRSMpmSTUJ/F72Vl/adum2nHqXl4eGhUauVpib36NGDHU4UhNAZTS9o0YYutqQQ9UyoR48esUPn8ePHi/r27t27sLKygqurK+rXr4/hw4dL6u2iQNuCHk7Q8i5SEY60VJa5uTnTd3379i2wzrK2vRudv1u3bgUh+YdH6jfK035ITExEo0aNIJPJRPsxfe0kQ+FOt1Jm+/btbOFwdHRkxb/Lli2LcePGsfdpK6KYlpbGlK0wBFk4yL/88ku22a5UqRI8PT0hl8thYWGBxYsXSy6MkZGRmD9/Pn766SecPXuWDWBtqWKPHj1iIbvm5uYYP348U6BUFqFMNJR49erVAPKV78SJE1nx065duzIv/aJFi5ixQP9VqFABQUFBomfWqlULhLwNGZcyCOipibCQNZC/0E+cOFG0ABKSf8oxZswYjQmsK1IKubCb14D8k1CaDuHm5obevXujV69ezItft25dyRo52vqNyrF582ZWO8Db2xuLFy9mRs63334LuVyOAQMGMENDWB+nX79+zJny888/4+nTp4iJiWEn/wMHDtSQ58SJEwgPD8fPP/+M6OhojYsVhBw+fJgtis2aNUPfvn3h5uYGKysrEELw1VdfaXxW/TlXr17FpEmT2DgaMmSIhrN4165dsLOzY9dMS6VJCBG+vmbNGtStW1d0gYk6wmddvnwZU6dOZaH6hBDMmzdPNJ/XrVuHf//9V2sxVyl5gPzImwMHDrATpU8//bTAiNcrV67g8ePH2Lx5MwYOHAgbGxs4OTlJFqXWNo50hTqShY5PQ+c/UDI6gKJe/HzatGmYNm2aSB7Ky5cvmaOXnqwBELWXSqXCkydPUK9ePRBCNOptnj9/ntW+7NGjh8Z3bN68Gfb29swwkclkGD16tGSkz8aNG5mzp0uXLhqHBps3b2YbDm9vb4SHh7M5PnDgQBBCMHnyZMmoOikuXbrEolClLoH46aef2Gba2tqaGTFVq1aVTJ2gY/vq1assfaCwm8oGDRrENuvdunWDn58fbG1tIZPJMHfuXI0Dq5iYGFy+fBkJCQla1zWhLNevX8e4ceNASH6k66pVq9gBl7B4b15eHs6ePcvWkBYtWmDu3LlYv349BgwYwHSZMNWS8ueff+LixYuIjo4WbfK0Rd1Qg9XCwgJz587ViIwWRufRiwdat26NvXv3Ijs7GzExMRg6dCgI0R7NYOy1RNvmJCkpCampqaxmmrOzs0Z9zYULF8La2hoymQx9+/bF0aNHRTpUqVSy9bJWrVoaUbNKpZIdAqkX6KdMnjyZ1Ypp0aIFfHx82HidNWuW5MHnrVu38OLFCzx79oz9PtoXz549Y84d4Zyncp86dQqVK1eWrOGUl5eHefPmwdzcHP3792dOposXL7J2atGihWiDUpAtSW/YBsAiAT/99FMWqUbHS0xMDNtwaNtkKJVKpKSkYPv27ejVqxccHR2hUCgwf/58jTbSRaZr166xC2Zmz56NpKQkKJVKZGVlYfr06bCwsICzszMGDBiA8PBwUVF8dWJiYjBy5Ehm7wYFBUnqbV11gK7zrTAuXbrE9GtgYKConQpa26RkUWfcuHGwsLDAxx9/jKCgIOzcuVOrHDk5Odi7dy8CAwPh4OAAKysrLFu2TOO3l4TeptDvzs3Nxc2bNzFw4EBWE4xS0DgSpnU2bNgQhBBWRF7qNkp6c+Enn3yiIcvixYvZYQL9V6ZMGck9gK52mzH6DdBtbC9evBhly5YFIYQd4lBH3KFDhwAAvXr1KpKejI+PxwcffABXV1eEhYVh7NixBcpkajYJjcCmjrelS5dqBDvQ22QXLVrE+p3O+cePH6Nq1apQKBQaacJC6Hh4+fIlDh06xMZVUFCQpP7QZkuq2wpS69CLFy8wY8YMFgXWvHlzlgJLiYmJwVdffYVRo0ahRo0abE5/++23euszKWgbXr58mY07miKs7r9QqVQIDw+HhYUF+vfvjx07dmDo0KGwtLSEXC7Hd999J/kdUns34ffTS1UKurAxLCwMcrkcXbt2ZbXAi2In6Qt3upkAaWlpmDRpEj766CN06NABgYGB+P333wvNKabKfMuWLcxLTKGDcc2aNSAkP7Vg9uzZSE5ORnp6OrZs2YIaNWrAxcXFoJuphGRkZKB3795sEoeHhxe4ifnll1+Y40idkydPolevXvDz8xM5S9LT07F161asW7cOS5cuRWJiokhR0NPbWrVqabQP/d6bN2+yjavQcIuNjWWbXk9PTyxYsABnzpxBeHg4K8jesGFDnXPP1dHl5jXhRQApKSnMuTZkyBBW4wXITyP8/vvv4ezsjEqVKknWYJFCPcVuypQpTIYOHTrg+++/R82aNVGlShWm0ISfW7t2LaysrFC9enXJ4t7dunWDXC7XCI0vCKmrw6OiojB69Gg0btwYPXv2ZNEAZcuWLbD91cfb+vXrRZ9VL26rbTN75MgRdrIsNYYfPXoEZ2dnUYF+ivqJ08yZM+Hk5ARXV1d07twZHh4ecHd3N9o11RMmTGDG+hdffKFX7ZQ3b95g7dq1sLOzg6+vr063r9L2OHnyJDuxU19M6Zzs3bs37OzsRI7hosx/oPh0gFQkG9XJNWvWZPOkXr16GgbjiRMn2G8pzFl68uRJeHp6wt7eHgsXLsSpU6cQEREBLy8vdmpMw+SFMmVnZyM2NhaHDh1ijgWqZ6XIy8vDjBkzRJeVFDb/g4OD4ejoiIYNG0qmjEl9B+X58+csFUqqHl1aWhq+//57dOrUCZ07d2bOYeqgkWo3GklQWJ2cqKgoWFtbw9PTk+mHvLw8bN++HbVr14ZCoWBRELoibKunT58yY9nDw0MylZa+n9Zblclk7EIYIQcPHkSdOnVgb28v0rH6ypWXl4fly5fDxsYGH3/8Mat1JHUYQesb+vn5ITo6WuOZ9BZGXTfI6t+jz1qijrDf09PTmVOabgTV52Vqaiq7jMTR0RFjxowRRYa9fv2aHQARkp8KS6Mj1q9fD0LyU++lSjRcvXoVtWrVQvny5bF9+3b2/Tt27GARVtrmmzYiIiKYc0yKzMxM1KpVC3Xq1NHICADA0hOlNuM0NVndYafNlqS/+ebNm6hXrx5cXFxw4MABjeiulJQUNG7cGPb29uz2yoLIysrCtm3bUKNGDVhaWkoe4GiTiW6i6fgJCAiQ/I6hQ4eiUaNGGlEyQoRjKTs7G3v37kXv3r2ZE9eQW0b1mW/aUN/M0pQ+9UhCqbWN6kdtkdbCA28/Pz/R5VWFkZWVhS1btqBChQpwdnaWrG1anHpbve0S/78eLXW+Uptb6HzXNo5o3aYzZ87A1tYWlSpV0qjTRGW9c+cOi4QSOsJv3brFDlYcHBwwfvx4HD58GPPnz2cHhB988EGR90qA/v2m79h+/fo1Vq1ahWnTpiE4OBgRERGiiK/U1FSD9WRWVhZLzaOH4ACwb98+Zps4OjpqpMGaok1Cy5vI5XLRRTHx8fGoVq0avL29NWqi0XT77t27gxCCAwcOaLxOyc7ORlRUFJo0aQIrKytWlqJMmTKS9SALsiWldE1iYiLWrFmDgQMHMoe0lZUVWrVqpTWCTVj3bceOHcy2mTp1qkE16aSg0WL0UkApx3dsbCwaNWqEChUqsLGXnp6OzZs3s/RaPz8/USCK+jOE0PYaNGgQ5HK5KJVf+HpcXByrD7ht2zamn0NDQ41uJ2mDO91MiLS0NI3Jlp6ezuoiCHPhKXl5eVi1ahUIIezkkA6kjIwMluu+ePFiDSdHVFQUCCEYOnSoqLixPsTFxTGHVb169QoNtU5LS2PhxN9//73kKWRaWppON8EI24PWTBozZgx7TR0qJ60pBuQ7H+gtS5999pnG6cDTp09Zcdng4GCdrxc29Oa11NRUdvNSp06dtD4/IiICNWvW1LtQpvCUJDExEX369GELj0wmw8CBA0WFc4H8/qAnThMnTmSGkFKpZGNtyZIlog2TLgbpgQMHsGzZMo2/U6MuJSWFRY3MmDFDp7oG9HODBg2ClZUVLC0tsWrVKp0WFFrYX3jKRBdZ2hYZGRlwdXVFQEAA0tPTNX5nZmYmZs6cCU9PT1haWmLo0KE4efIkFi5cCEIIevfuzQwgfecbfX9CQgJL4XB2dsbs2bPZONKlJonwe2nU1/z583X6/L1799CwYUPRjWQ0xJ1+Nj09Ha6urpDL5cwRQl8z5vwHiq4D1N+TlpaGBQsWoFatWnB2dkb79u1ZJPGYMWMk0wOuXbvGNqhSEcm0zbOysrBp0yY0b96cpWXTVHxC8kPY1RH2R1ZWFn7++WcoFAp0796d1ZzS1mfqKcbCvwEQ3S4tk8kgk8kwfvx4ye+Wgr7++vVrdrmPsLaGOsI6UVLQ+U0vEnB3dy+09si+ffugUCjYLVXCTe7Vq1fh5OSEGjVqaJRe0IW9e/eytaFJkyaSNR9p2969e5e9NyQkRKsD/P79++jdu7ekYaft2RkZGSwNCnibtuPk5MRSBqV49uwZi1pYuXKl6HY7Og5orRt6S5w+GLKWqKPuHGzbtq3Ga+pcvXoV3t7eGDZsGPubcN5dvXqVRZE7ODjg888/Z4cTdKOtLk9fq+CfAAAgAElEQVRMTAxsbW3Ro0cPvHz5UvTd//zzDypUqIAKFSrodDhBOXbsGNusU7tBqK9yc3NRvXp1WFpaSt54SJ1uNFo4NzeX6cvjx4+DEII+ffpIRimo25LCFCcXFxf4+/tL1qwDwDZiBaWYCscQkB9FXaZMGdSqVUtr3U8p+zYnJ4et8XQjqv571q5dC0LeRkUXhHAcPH/+nNViJUR75I7wNwGGz7eCnkujZWjami4Hb8ILh2idQOE6K2TIkCGwsLAotM6Uer/RPUCHDh2QlZUlOU+LQ29TEhISMH78eLi4uMDDwwODBw9ma8nChQslo7m1je3Lly/DysqKzWEpQkJCWIACHadZWVkYMmQI5HI5WrZsqeGAfPr0KUsT79+/v05ldgDj9ht9BkXfsQ1opiIaoidjY2NRsWJF1KpVS7Lm36pVq9CxY0eNOm8UU7NJrly5gtDQUJFz58mTJ5DJZGjWrJnIbhBmbNE6mNRhpG73RUZGMruxcePGmDFjBkaMGAGFQoGxY8eyMaT+e4S2pHpEW25uLi5duoQlS5agZ8+eLDqQkPxSPwMHDsT+/fu11hZUP4AG8tvby8sLDg4OOgdwqJOXl8fm6a5du0AIQcWKFTUiQIV9M3nyZJibm2PcuHEae4D79+9jwYIFmDJlil6155RKJWtzal/l5OSIyrgMHjwYhBAMGzaMZeI9efKkWO0kdbjTzcRQT8UcPXo0XF1dRbnuwjomaWlprOCw+kK+cuVKtmEQGkLCxdze3l50jbo+nD17lp1OV6tWTWSoaFOOR44cQdeuXVGlShVYWVmhefPm2LBhAztVMdTbTif74MGD2fcLZdi+fTtTTkLDefz48ayN6AmmlBG7bt06rF69WidnUl6efjevCZUTzUm3s7NDWFgYtm7dip07d4qi3Sh3796VNEp0kU+o0KkCpKcws2bNEtWVyMvLY+mC6rcoUdlpyP63336rkwzZ2dkYOXIkOxFRz+O/ffs2uxWvVatWGs5JbcTFxbGTyQYNGmDdunU6fQ7IjwJo3rw5ZDIZvv32W5FM6rUeunXrJvrsq1evMHfuXOZQateuHTudu3DhAmrXrg03NzeDCgsLx9zDhw/RsWNHWFhYwMrKCtu3bxfdTqYrdIwvXboUhBD069dPp89dv34dLVq0ACEE06ZNk6y/QOeUlBOpuOY/YLgOAPINxl9++YVFmLZv3x5XrlzB2rVrUaVKFXh5eWktPq2NJ0+eSBoy8fHxiImJwZkzZ9iBCSGEPV9bP8bGxqJevXooU6aMRgFofVCf/59//jkrCO3k5IQ5c+boFTWZmJiI1q1bw9raGnv27Cnwveq/LS0tDUeOHBHVwqIGkJRDXp3o6GgQkp+yRcnJyYFSqcTLly/x4YcfwsnJSad6HMKoiEOHDsHZ2Rnm5uZo166dyCki1T9TpkyBo6MjXFxcEBgYiO7duyM4OBibNm1iupSObW0XGWkjKCgIdnZ2mDJlCm7cuIHQ0FDI5XIMHDiQjWMpmZKTk1G3bl2UKVNGo7g/lYUak4ZEAgH6rSXauHPnDktlo45NXfSA+pogtIuAfH0grBVXr149rbJcvXoVCoUCrVu3Zn/LyclhBniXLl2gUCj0Oum+desW3N3d4erqir/++ov9nT6T3vDo7+8v+fmLFy+yG26FkSrA23WooIM5qTHxzz//gBCCli1bit5H25s6YRwdHZluL6jWaU5ODrKzs5GTk4MWLVrAwcFBMjpBSib6vTQyQv22TbpGrVu3DoQQTJkyRetz1cnIyMCCBQtASH6k+9ChQ3VOoTJ0vgllP3fuHJYsWaLhoKE3kgrTfQtj8ODB8PT0FB34UOctdeaMGDECVlZWBWYDCOcptRuvX78OBwcH+Pj4FHgjrTH0trojOzQ0lKWnf/nll3j48CFLOWvatGmBDm6p9j916hQIyU9hpO8Rju3IyEhYWlrCyckJ0dHR7O/0lsp69eqxiCepsb5hwwZMnTpV58NSY/WbOkUZ21QGQ/Tkixcv2F4zICAAkZGRktkq+q5vVKbSsknUefjwIdzd3eHr68v+plQqNfYAvr6+GoEAJ06cwMCBA2FhYYFKlSph1apVyM3NxZ49e1C5cmV4e3tLlgUqiMzMTKxcuRIdOnQQlampUqUKxowZg3379hVaK04dlUrFdAA9eJ83b57ecgn3nzk5OSzAhF4+IKVTjhw5whyiQ4YMwfHjx7U61/Xlu+++k9ynAmCXrvj4+Ij200lJScVuJwnhTjcTJjs7m0W0fPjhhzh06JCGwt+2bRscHR1RqVIltmmjA4U6QkaOHClSDnTBevr0KVxcXDSccrqwf/9+NvmHDh3KvluXBYnWQAkLC4OdnR3Kly9f4JXYuhAXFwdHR0eR0Qzkt8Xp06dZxJ8w7PTGjRvsN7Rp0wZt2rRB27ZtMXbsWI2ohry8PKYECnNuGHrzmtDjThdUuvB4e3tj5cqVyMzM1Mu5og36jJs3b6Jnz56wtLREr169YG9vD2dnZ1GtgrS0NLi7u0OhUIiuYKfjLDk5Gc2aNQMhhN1Uq8s4uHDhAqtB0LVrVyxfvhznzp1DeHg4q6nQrFkzVuy+sGceOHCAOYGrV6+OmzdvapyyFMa5c+fQuHFjmJubo3Pnzli/fj3S0tLw+PFjHDlyhC16NI1WqVRiy5YtqFevHmQyGZo2bYrTp08zY+Tx48csFejrr7/WqIukD6dPn2YblJYtWxp8Mxj97jdv3rD6QBMnTtRZrujoaDRs2BAKhQKdO3dGREQEEhMTcezYMYwZM4ZFu9C6d+ob6OKY/4DuOkCYIvj8+XPs2rWLOdvatWvH0stSUlLQvn17yGQyLFy4UNLALIjIyEi4urpiwYIF7G/C9k1MTGQXSNBiudraPyUlBRMmTGD6VtfIRm3QeXH+/HnmmBo+fDjs7Ozw4YcfFnrBBP3eFy9eYNmyZSAkvw4R3XDrKtehQ4eYAXvw4EFm0Pr7+0sa2UIdQA3h7t27w9raGjt37hRtPh49egQ3NzeUKVNGp/QU+nzqiCaEYNKkSVp/E/3/ly5dYnqHkPzacv7+/rCysoK5uTmCgoI0nCb6sG7dOlFNVnd3d1SpUoXdCqbNQfXkyRPY2NjA0dGRRY6qVG9vSnvy5AmLbKAR3oaMJ33WEiloRJe2Gov6olQq2W+8cuUKzM3N2TrasGFDnD9/XnItoYc8W7Zs0dgsVKpUSaT3dWXWrFkgJP9yDKpXgPwxQ+scrV27lrVhQkICli9fjoCAALRr1471T5cuXbBlyxYkJiZi+/btrJQHdRLoeljx6tUrVK9eHVWqVJG0+bp27QpC8m910xYttGTJEhw9elQj2ohefKDtAiNt0I0SPSxRh5aJoLdXahuj9O+JiYlszSWEICIigm1KdRnfhs43IR9++CEIIejevTvWrFmDK1euMHucEKL1Znh1srKyMHfuXCgUCjRs2BCHDx/W+A137txBuXLl4OLiojVaJTExETNmzMDRo0dFTtQTJ06w2xn1ieLUR28L5X38+DEWLVrEbFuaCUBlrF27NmQyGXbv3q23LoqPj4ebmxs++OADjeiZe/fuMYfAwoUL2fyOj49nlxq0atUKHTp0QI8ePTBx4kTJPUBBpUeEGKvfKMYa20J00ZNCnjx5gqlTp6JHjx6wsLBAmTJlMHz4cDaWDQkAEGIqNgmQXwedEIJVq1axv6lUKly/fp1lKSxfvpy9dubMGbZ+2NvbY/78+ewCnjt37qBbt24wNzcX1XPV10YiJL9M1Lx58/DXX38VmGapD3T9nTVrls5yqVQqrFixAh07dmT7EFrTvXnz5gV+Ni4uDvPmzUOPHj1ACGGXRVAbqSj15a5fvw43NzfUqFEDe/bsgVKpxMOHD9kFa4QQjUjWkrKTKNzpZuJkZGQgNDQUNjY2KFeuHIYOHYqDBw8iMjIS48aNQ/ny5WFra8vypwHNgqFffvml6O90MNHXO3TooLdcNFKpb9++oklS0GCUeu3ChQuoXLkyLC0ti5QvnZeXxxTl119/jdjYWKSnp2PRokWoXbs2zM3NRWmlAFhdBLpRatmyJYvo8vLyYvVoDJ1guty8Brw14miUm4WFBXr16oXjx48jISEBu3btQqVKleDm5sacWsZAqVTixx9/hJ2dHTp16sRkk6o3QGt1SBUmXbBgAezt7VG7dm2N9NzCyMrKQkhICHNm0UXfwcEBU6ZMKXDBFBYL37p1Kyuuq68TWEomeqU8XUTd3NyYbMHBwezZR44cgaurKxwcHETpOLm5uVCpVNi9ezdcXFzg4+PDQp4NkenKlSusJkTjxo1FtcX0HZ/0/Rs2bECtWrXg5OQkMi50Qb2NaJ00Qt7eegZIX2QgxFjzn36XPjrg7NmzaNKkCaytrdGwYUONNpg/fz4sLCzQrl07g66Hv3TpEry9vVn9KZo2kJOTg3379rGiz5988kmh0YqRkZGoUKECqlevzjYpRXW+5+TkIDg4GHK5nK0ReXl5BaZjUFQqFf7++2/079+fbVD1Mdooqampojp19vb2IueG+qk85ccff0TLli3h5ubGHJdOTk4YOXIkTp48ie3btzNdPmDAAJ3lAfLH9sSJE0UXGRXE3LlzWVTztGnT8OzZM+Tl5eHZs2fo27cvFAoFKwxsaJ9lZmay1Ch6yk2dENpQKpUs6leYMk+hNYwCAgIKvDFMF9TXEro5lVpLgLftQG8xdnFxYdGExqotA7xd44OCghAYGIgyZcqI6sxt3boVgYGBqFq1KhsvDg4OGD16NKKjoxEVFYXAwEB20KEvOTk5zPFmaWmJOnXqwN/fnxU779+/v8hJQdNjvLy88MUXX2D9+vWsjh0h+bdOlitXDs7Ozpg6dapBbUIzIHr37s3W6wcPHrAyGtWqVdO47IXy119/sc1sUFAQoqKicPz4cQwYMIAdXurLnTt34O/vD0Lya5PSdSAhIYFFGDRo0EDr54Vz6u7du2jTpg2LaBBujPXBkPkm5M2bNyySnxDCoj8rVKjAMlJ01QVv3rzBnDlzYGNjg/Lly+OLL77AsWPH8PTpU2zbto05Sj/77DOtz6Cpn+XLl8fnn3+Ow4cPY9GiReymQ32iCAHD9PbWrVvh5eUFGxsbdOzYUaMeFr2lfuDAgToXzVdn8uTJzGlMx/bmzZvZLbE9e/YUvZ8WXqfzvn79+qKb4GlEuSF62xj9VhxjWwopPaneP8Bbh8i///7LLmQZNGhQkR1uwueXtk0C5Jcb8PDwgK2tLYYPH45t27YhJCSE1QPs2bMnUlNToVQqsWvXLri5ucHR0RGzZ88WHTKpVCp2cUObNm1YfTl95ElLS2Mpt+XLl8eUKVNYVhYgXXaqMKgP4MKFCwgICIC9vb1O6fvCz1PdbGlpiT59+rBLg2jJo4LGhPDShaZNm0KhUBR4+YGuqFRvL2iws7ODp6cni6atV68e+43C9ipJOwngTrd3htjYWHb9svq/OXPmsJBe4UJHUwX8/Pw0atrcu3ePpXTQyA9DjF2qhA35LJWVTl6qIA0lISGBFWF0cHBgGyGZTIYlS5aIQnAvXrwIW1tbWFpaonv37qKLDA4fPgwnJyf4+PgY5Urlwm5eo1DDMzg4mDlVaBtFRkayk0V9Q4m18ffff6N69eqQy+XYsGFDgcU7L1++jFq1aqFs2bLYvXs3lEolEhMTsW3bNtjY2EAmkyEwMFDviEnK3bt3sWbNGmzYsAEbN27UuW4GAFYThJD8cGVda78Vxu3btzF27Fh07NgRAQEBaNu2LTZu3MhOUXNycliYv52dHUaNGiW61ZQaJgqFQtJZqS8XLlxAaGgoS1XS1XmnviBfv34dYWFhzIn42WefaVzVrivx8fGYOHEiPvvsM/Tu3RuTJk3CjRs3Cq3lJHzNWPMf0F0HnD9/Hs2aNYNMJmM14IRcunQJfn5+sPs/9u48PKry/v//a8gCIRAgEQiLEkAlECQRFxZBUFFx4RsBUSi7VcsmQsGtWEBBcUERqGzighArCKWCSEFFESkFPlbaAgnKEnDBqgVkVbLcvz/ym2OGJGw5mXMffD6ui+tqM1mezkwmM++5z30qVTIZGRlnPQjYvHmz84Q/ISHBNGvWzCQnJztnFhszZowzWC7pZ3z11VfOi9ozfXF0MuvWrTPly5c38fHxZtWqVUV+fnE93333nfnzn/9s+vTp4/zOVa9e3YwZM6ZUq+/Wr18fcta4oUOHFvvOdk5OjvnTn/7k/M49/PDD5q233jLz5893DlkINtWuXdsMGjTI2bvqTIfdwSemJ7vtf/zxR2co07NnzyLbQ2zatMnExcWZ+Pj4s9pX7kTbtm0zN910k/NCvnfv3ifd13Pt2rUmKSnJJCYmmoULF5pDhw6ZjRs3mueff94EAgUrUh988MHTPny/JGfyt6Twx4L74D3xxBPGmLN7Q+JEwe+xYMECEwgUrFYK7qmWnZ3t/I0KHo4eHR1tevbsaWbOnGleffXVkPvReeedZ6pXr246duzovNA5m8asrCzTo0cPU69ePVO7dm2TmJhohg8fHjJcCB7m1rRp0yInMVi1apW56KKLzHXXXWcyMjLMV199Vez+SKfj22+/dV7E1ahRw7Ro0cI5a3QgUHBozslWZK9Zs8ZZoR4IFKzmj4iIMGlpac6LyjNt2rp1qzNQqFKliklLS3P2LIqIiHDesCrpfmSMMYsWLXLuTxdeeKFZv3698/z0bO9XZ/r7ZkzoIVULFy40F198sRk4cKCZMWOG2b59+1k3bdiwIeQxMvi3LRAoWAkZfLws6fHqxNst+DdyxIgRzt//M33sPt3H7eXLl5ukpCRTsWJFM3HiROfjhQ9rrl69uomPjzdr1649o4bCdu/e7dxe1apVc1aTBgIBM2LEiJA3Kzdv3myaNGliIiIiTPPmzU1mZqZzv1+xYoWpUaOGueiii056pvrTUZrbrSzv2yd7nNy9e7fzJvyJf9MKr5QM7vU8YsSIs2o4kU3PST777LMir7mrVq1qbr31Vuf1ya5du5zbtlOnTkUOrV2/fr1p3bq1qVKlinnppZfOuKGwdevWOW8wpqammsmTJ4e8bj2VE1dv79y501xzzTUmMjLStGnTJmR7qNO1fPlyk5yc7Fw/l1122Wk/Vw7e//bs2eMcabJ48eIzbijOtm3bTJ8+fczVV19tbr75ZvPAAw+YPXv2lLhVQrieJxnD0M13li1bZkaOHGl+//vfm3HjxpmPP/74pJ9///33Oxtvb9682WRnZ5vXXnvNeSF4+eWXn/Lwj7NReNPGkoYgwTv+6tWrnRctwRVCpfHmm2+aO+64w/Tu3duMGzeu2P0Sghs3X3/99SFnvQvuA3HHHXeYQKDglNFuONWZ1zZs2GDi4uJM3bp1i90bLzs729SvX9/Ex8efdM+UM7Vs2TLz8MMPl3hqZ2N+uV5ee+01553RBg0ahGzkmZiYWOo/KsX93JN9fOvWrc47mxUqVDAvvPDCaS//PxPBJx+F37kpfB9dsmSJc5bLevXqmaeeesrs2bPHzJkzx0RHR5t27do5K6Xc7DpdeXl5ZufOnebNN980t99+e8gLrKFDh5a4ofaZCD5ZLfwzjfHm99+YUz8GbN682dl/75JLLjGzZs1y7jvGGGcVX58+fc56IFnYn//8Z9OpUydz9dVXm7S0NHP//fef1qasOTk55vXXXzcxMTGmRYsWZzxwPZV33nnHTJkyxVltU9weHDt37jQzZsww3bp1c1aTBp/Y3n///SF73ZX2tps7d65zGHCtWrVMRkZGyDu5W7dudQ5jC560JSgnJ8fce++9JiUlxbz88ssmOzvb1VVTxQmeNCQmJsbZq+XEnxk8VD646bIb3nnnHecxp7izSRvzyz45s2bNct6hr1u3bsiLvksuuaTImebO1un8LTEmdKVtsCH4RoZb9+v8/HznUPzgipDCPUeOHHFOYvLss88Wud8OHz7c1K9f33mTo7gz+Z2NL774wvz3v/8t8sbZgQMHnNuo8Gb9ubm5zkbVXbp0MQ0bNnTO4lna6+r11183V1xxhWnQoIGpVq2a6dq1a7Fn5y0s+DOPHTtm7rvvPtO4cWPzzDPPmIULFxbZA+5szJs3z7Rt29YkJyc7ZwkP7sl04vcNthw+fNgsX77cWW3duXNnZ7WcG39LjCn59+348eNF/vYVbjt48KC54YYbTPv27Uu1tURhS5YsMQMGDHDe6Jo1a9ZJX3wH9+U1puC5TPfu3U2nTp3MkiVLzKeffurKdVTS43bQ+vXrnTOTpqWlmWnTpoUc9RFcafXII48Ue32eqYyMDHPrrbea//f//p8ZPHhwsRv7v/HGGyYuLs40bdrULF261BgTug/soEGDTCDwy9YPpXUmt1u47tunepwsSbBv/fr1pkqVKuayyy4zR48edaXJtuckf/vb38wzzzxjZsyYYT755JMiv8fz5s1zVlM1adLETJo0yXmt8Oijj5qIiAjzm9/8xjkpQGl7XnnlFedspbfeeqt54403in2OXdzPOXr0qFm5cqXp2bOnqVevnjMoO9utaoKCq/mC32/KlCkn3SPyxMbglh7B1dtuPQ8o/BhT+OcVFu7nSQzdzlHBO9e2bdvMwIEDnTtQcG+S4L+HHnrorJdyn473338/5EnKiXvyGFPwgjQ4ACtrwZ8Z3HtqwoQJIQ8OwcuDp87u3r27a0/cjCn+zGvGFOwvFxMTY+64446QF/9BOTk5pmnTpiYQCBR7Fj03BW+jwu8KBm3YsME899xzZuTIkaZPnz7O0uBbbrnFtRcmJTlxb5Crr77aREZGmsTExCKniC4LJ/4hOPH/P/vss6ZChQrOg3TDhg1NXFycc/8v64Fb4evn2LFjJjMz07z22mumW7duzp4EwceA22+//Yz3JzrTBmPs+/0vLC8vzxnaBgIFZ05cuXKlWbFihalfv76pW7duiYdZna3iNoc92eNLZmamad++valQoYKZMmWKqy3FKbxP2ZNPPukcchf817RpUzNixAizdOnSs9ow+XTk5eWZhx56yMTExJg//OEPIcPu4Ga4rVq1Cvma4GN48Ay2bhyqcDqCJ3I48WREwetxy5YtzhsUxZ0Mp7QKH/IWvA527dpV5PM2btxoXnzxRfPEE0+Yu+66yzRr1szExMSYwYMHF3sG4bK2b98+Z4+l4F5nbg9I8/LyzIwZM0JexAdvl1mzZjn358K/f8Hr8KOPPjLlypVzdWVpSfLz880333xjUlNTTdWqVUvczDm4b9aJw+bS/uxt27YV+7f7xBcsQYX3XoqNjTWzZ892rSfYtH379iJ7aJb0OPnHP/7RGejce++9rh0JUJwTDzENnugqqLi/b8Hb7cTVi24L/uzgKpySnq8Eh92FD7N26+eX9LgdvPzEv7cffPCBycjIMFFRUaZx48bOnsFuKe4Qt+DtEjxKYcCAASH7bAWvp2XLljl/a7x4s9SY8Ny3i3ucDF5Hp9ov7quvvjI1atQwCQkJZfb834bnJCfrMqbgOnzkkUecphtvvNGMHj3aXHTRRaZ+/fpl8rsWPEIkNjbWrFixosT76A8//GBWrFhhHnjgAedoquBK0DvuuMPZe660fvzxRzNgwABnZdiKFSucvdGCt8uJf+ODzfPnzzeBQMEemGXhxMNJjfHueRJDN58qaVNnY0yRMywdOnTILFu2zMyaNcs888wzpnPnziYiIsK0bt36jM+kciaOHTtmxowZYypWrGjmzJkT0hp8cvvTTz+Zjh07mkAg4Dx5C8cfuOAJC4IDrBOvz379+jlDyeIuL60Tl6muW7fOBAIF+6wEf17h6ym4J0fNmjVdO3zyZA4cOGBuuOEGM2vWrBI/57nnnjMJCQmmQYMGzjuJ4bjtli9f7ux907p16xJPTx4uhYe2R44cMb179zaBQMEhjXXr1nVtyfTJBP+Q/Pjjj2bSpEmmVatWzmbbgUDANGrUyAwcONCsWrXqpBsdu8nm3//Ct9nu3budTV2joqKcYcCYMWPO6sywJ1N4BXBJgpcdPnzYOeQsPT3dWUlS1tfPli1bTI0aNUxERIQJBApOLvHCCy+Y999/35VDJE/Xd999V+TQ0OAm0sGzJAdfVAWv171795r4+HjTqVOn03qn1Y3GatWqOSfvyMnJCTksde7cuSY+Pt40bdq0TFaUBwWvnx9++MEkJyef9KzN999/v6lYsaJp27btKc+Y64ajR4+aN954I2SYNHr0aOfwKi9MmDDB2cg9Pz+/yO958MQAl156aZm+KRl05MgR5w3R4IrIvLw85xCyn376ydlDqaSVX6VVeJXP0aNHzfjx40N+/4r7ecnJyaZ169ZlNrg92eGkX375pXMShmrVqplHHnkkLM+Ngo4cOWIGDhxoYmNji5xNuvDtFjyU182VrsaEHu4X/N8HDhwwvXv3Djk08MTDAoOPWUOGDHG1J6jw4/aJ+0gbU/TvbXCFXOFhclnct0/UpUsXEwgEnL3LTvy7GjyJXfAEL26uwi2pyYb7duH7Uq9evUIGbyc2f/HFF6ZOnTomNTXV1SNwTmTLc5LiFL5v79q1y9x+++3O4KlcuXKmZ8+ep7XdytnYuXOnGTNmjHNYf9APP/xg5s+fb+655x5nRXfw9+26664zL730UpF94dyyadMm88QTTziHTS9btsz07dvXufzE+9DPP//snOjgsccec72nOF4+T2Lodo6ZMGGCqV+/folnIlq3bp2pX7++qVixopk6dWqZPpDn5uaat99+29SpU8dUqVLFPPbYY87ZQQr3BgIFZ2ctbmWV24K/NHfddZeJiIhwVh/k5OQ4T5TWr19vGjdubCpXrlzqZben6+uvvza1atUq9sxLeXl5ziq30aNHh/x3lJUdO3Y4x/uPGjWqyO02adIkExcXZ2rVqmVefPHFMm0pbN68eaZWrVomOjratG3bNuTdirK+Tk6m8MbBnxpmKJkAACAASURBVH32maldu7ZzSEBsbGxYVikZY0ynTp2cP7BpaWlm1qxZZvPmzUVWT4bjurLx97+wwmfgNabgsTF4JrPy5cub/v37u7Jx6qkEG/bs2RNylss1a9aYRo0amZo1azqPQ+G43b7++mtnX7yEhATz5JNPhgxqT7zewil4hqybbroppCf42B3cn+ZsNr0/U7m5uebIkSOmZcuWplq1akX2RPn444+d6/F3v/tdmfcYU3DYdGpqqomNjTWjR48O+X07fPiw80KyUaNGziFVZW3jxo3OodxDhgwx77zzjqlQoYKJiIhw9m8K9/0puJK9ZcuWzscK34+WL1/uXE/hMn36dBMVFWXat29fZF+sjIwMU716ddOoUaMyfXEbtGnTJtOoUSPTokWLkPtQ8FAcY345tKx+/fpheaOk8GPfnj17THp6uomOjjbR0dHmz3/+c6n3uDpTeXl5Zvny5c62H48//niRv2+LFi0yF1xwgWnUqJFzeFlZevvtt51hduG/p4XPVLl48eIyXVVSkhP/bmzYsMEkJiaacuXKmYoVK5r77ruvVGd5Pl3B+9GoUaNMIBBwHgcLv2GSmZlpOnbsaKKjo82zzz5b5o9Ptt23jfnlCIROnTqFvJ4s/EbXE088YQKBgOnSpUuZttj8nCT48wsP3x555BHn5CnVqlUz48aNO+v9rs/UuHHjQraQadCggbnrrrvMggULQraSCdfrpYEDB5pAoGDfv8Krp4PX18aNG03btm1NXFxcWI5YMsbb50kM3c4h+fn5Zvz48c6Tybfeeitk1cTHH3/svJs6evRo5x2Csv7l+/DDD519bdLS0syQIUPMk08+aW6++WbngeGvf/1rWIcmwSfdgwYNKvKHLPjO5I033hjybkBZC/4B6969u9m4caMxpuABKfig1axZs1Nu4uumdevWOWdYvPLKK839999vJkyYYNq3b28CgYINlN98881SbVZ6Jr777jvTrFkzEwgEzPDhw53rwqul/4UVfocyuHffQw89ZDIyMkLOBlfW19GLL77onLnpxhtvNO+++26xS6vDycbf/8KCTyKD++9EREQ4qwTvvPPOEt/AcNttt91mLrnkEjN9+nTz5ZdfmoceesgEAgVn9HNrP6AzsWDBAufJ27XXXmvmzp0bcgiJF7933333nbnyyitNZGSkmTZtWsghaIcPH3Y25A2uPAlH47x580x0dLRJSUkxM2fONFlZWWbp0qWmefPmJjIy0lxxxRXOKrdw3H5r1qxxft8uvfRSc++995qRI0c6+3HWqlUrZC/YcDQtWLDAOcQ9eJaze+65x7k83I9LR44ccTYmnzRpUpE3uoIv8J5++mljTHjuR9nZ2c7eVm3atDGTJ082a9euNVOmTHH2DBo/fryz2XlZ2r9/v3n00UdNuXLlTKtWrczChQuLvEEbPLvnsGHDjDHhe2x67733nCMVrrrqqiKrzMLtww8/NJdeeqkJBALmiiuuMA899JBZvHixGT9+vLPv7fjx48t8+w1jCrbdGDJkiImMjDTXXHONeeutt0IOsTx69KjznC647UO4/+4G70fffPONueiii0xkZKSz/c2gQYPCtnJp0aJFJhAoOPvmiUaMGGFiY2NN06ZNncfKcFxPNt23t2/fbvr06eOsLFuwYEHI3oCzZ882VapUMZGRkSFnrS1LNj4nCSq872znzp1N+fLlTZcuXUzlypVNfHx8ma50D/r555+dM2MnJCSYoUOHhgyyvXiOvXbtWtO+fXsTFRVl7rzzTmdvtPz8fPPvf//bOfFJly5dnNZz+XkSQ7dzTE5OjpkwYYIpX768qVy5smndurUZMmSI6dChg/PHLXgq5nB77LHHQibwwTv7Cy+8EPaWffv2OU+6+/bta5YsWWLmz5/vnI2nfv36JW5QXVa++uork56e7rw7cskllzh7hEVFRRXZ6yVcHn/8cVO/fn1no8xatWqZAQMGnPIkHmWl8B4qNsnLyzOvvPKKs7Gs25s5n65jx46ZwYMHm0AgYCpXrmwGDx4csrGsV2z6/S/OE088YSIjI02XLl3Mv//9b/Pwww+7dlaukwnuI/Poo4+GrFJMSEgwjRs3dlZQBd/tDrfRo0ebcuXKmfLly5u+ffuaVatWedIR/D16/fXXTXx8vClfvrzp0aOHef31180zzzzjvBnQpk2bsF9XU6ZMcR6rgytcA4GAad++fdhWlJ1o3Lhx5uKLL3Ze+Ddq1MiMGTPGOamLF0/AH3/8cecQoUsvvdQsXrw47AO34H/3/PnzTc2aNU1kZKTp3bu3WbBggXnttdecw4NSU1OdkxaE0/jx4537UHR0tHNf6t+/f9hWSxjzy3PJ2NhYU7lyZdOpUyczc+ZM8/rrrztvLDVs2DDsz0umTZtmAoGASU5ODlk95vWbb4899pjzgjd4ZvDgKtcTt3QoS8ePHzdjx4410dHRpmLFiqZDhw7mqaeeMg8//LC56qqrnMfIcBx+fzLBN5Pvu+8+8+2335pHH33UTJ06NWw//+jRo86RAX379jXvvvuu+eijj8zQoUNNIFBwZt+nnnoqbD3G2HffPn78uPnjH/9oIiMjTXR0tElLSzN9+/Z19gaLi4tztuAJJ1uek5woNzfXPPfcc6ZSpUrmpptuco4w+ctf/hK2hqNHj5oRI0aYQKDg7NtDhgwpciKxcP/t37dvn7nnnnuc17LBVdTBN+I6dOjg2evbcD9PYuh2jtq2bZu54447TIMGDUxCQoKpVq2aSU9PN+vXr3dWJnmx6mXfvn3mrbfeMosWLTIZGRnm0KFDJ93joCzt3r3b3HrrrSFDgODhgIsWLfJkg2ljCs4EddVVV5lLLrnEJCUlmUGDBpkVK1YYY7w7hHL//v3m008/NVlZWUUOk/Cqyesn2SfKy8tz9uAaM2aM8zGvZGZmOnvfXXTRRWb8+PFmx44dnvUYY9fvf2Fr1qwx9erVMwkJCc7G7saYkA2Ww2Hbtm3OO3+BQMA0b968yH4dXti7d6+zArhGjRpm0qRJnt5eX3zxRcj1FPx35ZVXOptxh7vv22+/NQ8//LDp1auX6d+/v5k5c2aJm9GHy48//miysrLMV199VWSFlFe337fffuu8uRVcTerV9bR9+3ZnT8nC/xITE80nn3ziSZMxBSs6n3jiCTN8+HAzdOhQs2zZMs+GJNu2bTO33HJLyAAw+Dzp7bff9qRrz549zosiLw8rO9H//vc/8+qrr5pp06aZJ5980vzzn//07PcsKyvL3HbbbaZy5crObRYcwgU3T/eqLbhHcZ06dULeEAy+WRKuri+//NJ5o/vEf1OnTnU2gA/n9WTjfTsrK8vccccdpmbNms6qxCZNmpj58+c7e16G+75k23MSYwqeczds2NBERESYOXPmFHn+H86+zMxMc+2115pAIGAuvPBC88QTT3j+/H/9+vWma9eu5sILLzQ1atQwtWvXNj169AjrCTCKE87nSQFjjBHOWbt27VJ8fLxyc3OVkJAgScrPz1e5cuU8LvuF1z0fffSRli5dqpiYGNWuXVsdOnTQxRdf7FmPJBlj9OWXX6p27dqKjIz0tAVnJjMzU1WqVFHt2rU9v29L0pIlSzR8+HDt2rVLd955pyZMmKCkpCRPmwqz4TrasmWL0tPT1bx5c02ZMkWJiYmedr377rsaNmyYtm/frvPPP1+33367Hn30UVWrVs2TnqBPPvlEQ4YM0fDhw9W3b19PWyTp73//uz788EPFxMQoMTFRHTt2VHx8vIwxCgQCnjQdP35c0dHRzv/3ssVm69atU9++fXXllVfqxRdfVJUqVTxrWbNmjZYvX67o6GhVr15dN910kxo0aGDdbedlz8aNG/WPf/xDxhhVqlRJV199tS688ELrriPbeH39/Otf/9Lnn3+uQCCgatWqqXXr1oqJifG06//+7/+Unp6u3/zmNxo/frzKly/vac8HH3yghQsXKioqSjVq1NB1112nVq1aedJis8zMTOXm5kqSEhMTVb16dY+L7HtO8u6772rNmjUaPHiw6tatq7y8PEVERHjWs2TJEg0bNkzZ2dlq0aKFhg0bps6dO4c8Rwm3L774QgkJCcrNzVX16tUVCASseB0QDgzdAMv9Wh6MULYmTpyonTt36rnnnlNMTIzXOVb66quvVLduXa8zHM8//7z+8Ic/6Pjx49q6dauSk5O9TgJc9cMPP+i8887zOgNAmP3444+eDttPxeuBKeCWp556So8//rhuvvlmzZ49W1WrVvU66VeJoRvw/+MPLM51Xr/rhjO3f/9+LVmyRH379rVmAG/bY6VtPfAn7kenxnWEcxX3bf/itju1gwcPKjMzUy1atPA65VeLoRsAAD7AE0sAAADAX7x/yxwAAJwSAzcAAADAXxi6AQAAAAAAAC5j6AYAAAAAAAC4jKEbAAAAAAAA4DKGbgAAAAAAAIDLGLoBAAAAAAAALmPoBgAAAAAAALiMoRsAAAAAAADgMoZuAAAAAAAAgMsYugEAAAAAAAAuY+gGAAAAAAAAuIyh269ESkqKUlJSvM4IYVuTbT2SfU229Ug0nQ7beiSaTodtPZJ9Tbb1SDSdDtt6JPuabOuRaDodtvVINJ0O23ok+5ps65FoOh229Uj2NYWjh6EbAAAAAAAA4DKGbgAAAAAAAIDLGLoBAAAAAAAALmPoBgAAAAAAALiMoRsAAAAAAADgMoZuAAAAAAAAgMsCxhjjdQQAAAAAAADgV9eX66b38t8K+VikRy04Q4cPHNGOTdleZ6hhWpIqVY21pkeiyY890i9NJv+glJvpdY4U2ViBcnFWXkc0+adHsq/Jth6JJj/2SDT5sUeyr8m2HokmP/ZI9jXZ1iPR5MceiSY/9kgFTcVh6OYTOzZla+S1Y73O0MRVY5XaPsWaHokmP/ZIvzQpN1NmXy+vcxSInydFt7DyOqLJPz2SfU229Ug0+bFHosmPPZJ9Tbb1SDT5sUeyr8m2HokmP/ZINPmxRypoKg57ugEAAAAAAAAuY+hWRgKBgJKSkrzOAAAAAAAAgAcYugEAAAAAAAAuY0+3MpKZmamoqCivMwAAAAAAAOABhm5lJDk52esEAAAAAAAAeITDS8sIe7oBAAAAAAD8ejF0AwAAAAAAAFzG0A0AAAAAAABwGXu6WSIlJaXEy7Zs2RLGEgAAAAAAAJQWK90AAAAAAAAAl7HSzRKsZgMAAAAAADh3sNINAAAAAAAAcBlDNwAAAAAAAMBlDN0AAAAAAAAAlzF0AwAAAAAAAFzG0A0AAAAAAABwGUM3AAAAAAAAwGWRXgecq4wxXicAAAAAAADAI6x0AwAAAAAAAFzG0A0AAAAAAABwGUM3AAAAAAAAwGUBw+ZjvnD4wBHt2JTtdYYapiWpUtVYa3okmvzYI/3SZPIPSrmZXudIkY0VKBdn5XVEk396JPuabOuRaPJjj0STH3sk+5ps65Fo8mOPZF+TbT0STX7skWjyY49U0NQ5vp/ey38r5OMM3QAAAAAAAIBSuL5ctyJDN85e6hO2THBtnSjT5K8eyb6mwivvTM5Wr3MkSYGoJqy+81mPZF+TbT0STX7skWjyY49kX5NtPRJNfuyR7GuyrUeiyY89Ek1+7JEKmorD0M0ndmzK1shrx3qdoYmrxiq1fYo1PRJNfuyR7GsK9picrcrb19PrHElSRHyGAuVbFlxH1z3mdY4kaeIHY6y83Wzpkexrsq1HosmPPRJNfuyR7GuyrUeiyY89kn1NtvVINPmxR6LJjz1SQVNxOJECAAAAAAAA4DKGbgAAAAAAAIDLGLoBAAAAAAAALmPoBgAAAAAAALiMoRsAAAAAAADgMs+Hbjt27NCePXu8zjipvXv3Kisry+sMAAAAAAAA+IQnQ7eDBw9q9uzZatu2rS688EL985//dC47fvy4pk2bpiuuuEIJCQmqWLGikpKSdOutt+rNN98s8r1yc3M1ffp0tWrVSnFxcYqJiVFaWppeeOEF5ebmFvn8pKQkBQIBGWM0efJkNWnSRBUqVFCdOnU0dOhQHThwoMjXbNu2TY0bN1bLli01ffp07d+/390rBAAAAAAAAOeUsA3d8vPztXLlSvXs2VOJiYm65557tHbtWrVr107JycnO5/Xs2VODBw/Wtm3b1LJlS6Wnp+uCCy7QJ598ohkzZoR8z2PHjumGG27QoEGD9Pnnn6tly5a6/vrrtXfvXg0fPlxdu3ZVfn5+sT333XefHnjgAdWtW1fp6enKy8vT1KlT1a5dOx08eDDkc5OSktShQwdt3LhRgwYNUq1atdStWzctW7as2MEeAAAAAAAAft0iy/oHZGVlac6cOZo7d66+/vprSVKjRo3Uu3dv9erVS/Xq1XM+d9euXVq4cKHq1aunTz/9VAkJCc5lP/30kz777LOQ7z1y5Eh9+OGHuvPOOzVz5kxVqVJFknTo0CF1795dS5Ys0axZszRgwIAiXXPnztW6det02WWXSZIOHz6s9PR0rVq1SqNHj9YLL7zgfG5SUpLee+89ff3118rIyNDcuXO1cOFCLVy4UDVr1lTPnj3Vt29fNWvWzL0rDgAAAAAAAL5VJivd9u/fr2nTpqlFixZq3LixnnrqKf38888aPHiw1q9fr6ysLI0aNSpk4CZJ33//vSTp0ksvDRm4SVKFChXUqlUr5/9/9913eumll3T++efr1VdfdQZuklS5cmW9/PLLio6O1vTp04ttHDJkiDNwk6RKlSpp6tSpCgQCevnll/XTTz8V+Zo6derowQcf1H/+8x99+umnGjZsmCTp+eefV2pqqpo3b67Jkyc7/x1nIiUlpcR/AAAAAAAA8BfXh24PPfSQatWqpcGDB+tf//qXunTpor/+9a/65ptv9Kc//UlXXnlliV+bnJys2NhYLVu2TM8++6y++eabEj/3o48+Uk5Ojjp27KiYmJgilycmJuqiiy7Sf/7zHx07dqzI5d27dy/ysSZNmig1NVWHDx8usqruRM2bN9ekSZP01Vdf6Z133tGdd96pzMxMDRs2THXq1NHAgQNP+vUAAAAAAAA4d7k+dFu/fr1+/vlnRURE6IEHHtCLL76o9PR0RUVFnfJr4+Li9NJLL6l8+fJ68MEHVadOHTVq1EgDBgzQ2rVrQz43OztbkvTSSy8pEAgU+2/Lli0yxmjfvn1FftaJq+yCkpKSJOmkA7/CIiMjdcstt2jq1KkaNWqUoqKilJOTo3Xr1p3W1wdt2bKlxH8AAAAAAADwF9f3dJswYYJmzZqlhQsXavz48ZowYYI6dOig3r1767bbblNsbOxJv75Hjx7q0KGD3n77ba1cuVKrV6/WzJkzNXPmTP3+97/Xc889J0nOCRLS0tKUmpp60u9Zvnx5d/7jTnDs2DEtWbJE8+bN09/+9jfl5uYqJiZG3bp10z333FMmPxMAAAAAAAD2c33o1qpVK7Vq1Up/+tOftGjRIs2ZM0crV67UihUrVKlSJXXu3Fm9e/fWddddp3Llil9oV716dd199926++67ZYzRihUrdOedd+r555/XXXfdpZSUFNWtW1eS1KZNG02dOvWMO3fv3q1LLrmk2I9LUu3atYv9OmOMVq9e7ZxMIXim0zZt2qhfv37q1q2b4uLizrgHAAAAAAAA544yOZGCJMXGxqpPnz764IMPlJ2drXHjxqlWrVqaO3eubrjhBp1//vl64IEH9O9///uk3ycQCKhjx4665ZZbJMk53PKaa65RRESE3nnnHeXk5Jxx34IFC4p8LCsrS5s2bVKlSpWUlpYWcllmZqb+8Ic/KCkpSddcc41eeeUVxcfHa/To0dq+fbvWrFmj3/72twzcAAAAAAAAUHZDt8IuuOACPfroo/r888+1du1a3XvvvTp69KgmTpyo1NRULVu2TJL02Wef6S9/+YuOHz8e8vX79u3T+vXrJUnnn3++pIIzid51113Kzs5Wjx499N///rfIz92+fbsWLVpUbNPUqVNDTpZw9OhR3XfffTLGqH///iEnZ1i7dq2aNGmiCRMmaN++ferXr58+/PBD7dy5U4899pgaNmxYuisIAAAAAAAA5xTXDy89ldatW6t169aaPHmy/vrXv2rOnDkyxkgqOLSza9euqlKlii6//HIlJibqwIED+vjjj3Xo0CF16tRJrVq1cr7X5MmTlZ2drUWLFulvf/ub0tLSdMEFF+jIkSPaunWrtm/frvT0dHXt2rVIR69evdSiRQtde+21qlKlij7++GN9++23SklJ0bhx40I+Nz8/X9ddd5369u2rrl27qmLFimV7JQEAAAAAAMDXwj50C6pQoYK6d++u7t27Ox9r2bKlxo8fr1WrVmnbtm1as2aNqlWrpmbNmum3v/2tevXqFfI9YmJitHz5cmVkZGjOnDnatGmTNmzYoOrVq6tevXrq3bt3yPcvbMqUKapfv75mz56tXbt2KT4+XoMHD9a4ceNUpUqVkM9t27at3n//ffevBAAAAAAAAJyTPBu6FScxMVGjRo3SqFGjTvtrIiIi1KdPH/Xp0+eMfla5cuU0YsQIjRgx4kwzAQAAAAAAgJMKy55uAAAAAAAAwK8JQzcAAAAAAADAZQETPIvBr0RSUpJ2794tv/1nHz5wRDs2ZXudoYZpSapUNdaaHokmP/ZI9jUFe0z+QZmcrV7nSJICUU0UKBdnzXUk2Xu72dIj2ddkW49Ekx97JJr82CPZ12Rbj0STH3sk+5ps65Fo8mOPRJMfe6SCps7x/fRe/lshH//VDd0AAAAAAAAAN11frluRoZtVJ1JAyWyZ4No6UabJXz2SfU229Ug0nUmPyT8o5WZ6nVMgsrFVKxRtu80kmvzYI9Hkxx7JvibbeiSa/Ngj2ddkW49Ekx97JJr82CMVNBWHoZtP7NiUrZHXjvU6QxNXjVVq+xRreiSa/Ngj2ddkW49E05n0KDdTZl8vr3MkSYH4eVJ0C+uuI1t6JJr82CPR5Mceyb4m23okmvzYI9nXZFuPRJMfeySa/NgjFTQVhxMpAAAAAAAAAC5j6AYAAAAAAAC4jKEbAAAAAAAA4DKGbgAAAAAAAIDLGLoBAAAAAAAALmPoBgAAAAAAALiMoZsLNm/erF69eqlBgwaqUKGCqlevrrS0NA0bNkx79+71Og8AAAAAAABhxtCtlD799FNdccUVysjIUOXKlZWenq6WLVsqJydHkydP1rZt27xOBAAAAAAAQJhFeh3gd1OmTNFPP/2kiRMnasSIESGXZWVlqUqVKh6VAQAAAAAAwCsM3Urp+++/lyR16NChyGXJycmn/X1SUlJKvGzLli1nHgYAAAAAAADPcHhpKV122WWSpMGDB+ujjz5Sbm6ux0UAAAAAAADwGivdSumBBx7QJ598oo8++kjXXHONKlWqpFatWumWW25Rv379TvvwUlazAQAAAAAAnDtY6VZKcXFxWrVqldasWaMHH3xQTZo00apVqzRs2DA1atRIX3zxhdeJAAAAAAAACDOGbi4IBAJq06aNnn76aa1fv17ffPONevToof/+978aNWqU13kAAAAAAAAIM4ZuZaBGjRoaO3asJGnz5s3exgAAAAAAACDsGLqV0owZM7Rr164iH3/33XclSeeff364kwAAAAAAAOAxTqRQSjNmzNDAgQPVpEkTNW7cWJGRkcrKytK//vUvVahQQaNHj/Y6EQAAAAAAAGHGSrdSGjdunO666y4FAgF98MEHWrp0qY4dO6a7775bmzZt0lVXXeV1IgAAAAAAAMKMlW6l1KlTJ3Xq1MnrDAAAAAAAAFiElW4AAAAAAACAyxi6AQAAAAAAAC5j6AYAAAAAAAC4LGCMMV5H4NQOHziiHZuyvc5Qw7QkVaoaa02PRJMfeyT7mmzrkWg6kx6Tf1DKzfQ6p0BkYwXKxVl3HdnSI9Hkxx6JJj/2SPY12dYj0eTHHsm+Jtt6JJr82CPR5MceqaCpc3w/vZf/VsjHGboBAAAAAAAApXB9uW5Fhm6cvdQnbJng2jpRpslfPZJ9Tbb1SDT5sUeycPWdZSvvJLtvN1uabOuRaPJjj2Rfk209Ek1+7JHsa7KtR6LJjz0STX7skQqaisPQzSd2bMrWyGvHep2hiavGKrV9ijU9Ek1+7JHsa7KtR6LJjz3SL03KzZTZ18vrHAXi50nRLay8jmjyT49Ekx97JPuabOuRaPJjj2Rfk209Ek1+7JFo8mOPVNBUHE6kAAAAAAAAALiMoRsAAAAAAADgMoZuLsrOzlYgEFD79u29TgEAAAAAAICHGLoBAAAAAAAALmPoBgAAAAAAALiMoZtLxo4dq/r160uSVq9erUAg4Pzr16+ft3EAAAAAAAAIq0ivA84VaWlp6tq1qxYtWqSaNWuqY8eOzmVt2rTxsAwAAAAAAADhxtDNJbfddpvS0tK0aNEiJScn67XXXvM6CQAAAAAAAB5h6GaJlJSUEi/bsmVLGEsAAAAAAABQWuzpBgAAAAAAALiMlW6WYDUbAAAAAADAuYOVbgAAAAAAAIDLGLoBAAAAAAAALmPo5qLo6GhJUm5ursclAAAAAAAA8BJDNxedd955ioqK0o4dO5SXl+d1DgAAAAAAADzCiRRcFB0drY4dO2rp0qVKTU1V8+bNFR0drauuukr9+/f3Og8AAAAAAABhwko3l82ePVu9e/fW//73P73xxht6+eWXtXr1aq+zAAAAAAAAEEasdHNZjRo19Prrr3udAQAAAAAAAA+x0g0AAAAAAABwGUM3AAAAAAAAwGUM3QAAAAAAAACXBYwxxusInNrhA0e0Y1O21xlqmJakSlVjremRaPJjj2Rfk209Ek1+7JF+aTL5B6XcTK9zpMjGCpSLs/I6osk/PRJNfuyR7GuyrUeiyY89kn1NtvVINPmxR6LJjz1SQVPn+H56L/+tkI8zdAMAAAAAAABK4fpy3YoM3Th7qU/YMsG1daJMk796JPuabOuRaPJjj2RftUlCpwAAIABJREFUU+GVdyZnq9c5kqRAVBNW3/msR6LJjz2SfU229Ug0+bFHsq/Jth6JJj/2SDT5sUcqaCoOQzef2LEpWyOvHet1hiauGqvU9inW9Eg0+bFHsq/Jth6JJj/2SPY1BXtMzlbl7evpdY4kKSI+Q4HyLQuuo+se8zpHkjTxgzFW3m629Eg0+bFHsq/Jth6JJj/2SPY12dYj0eTHHokmP/ZIBU3F4UQKAAAAAAAAgMsYugEAAAAAAAAuY+gGAAAAAAAAuIyhGwAAAAAAAOAyhm4AAAAAAACAyxi6AQAAAAAAAC5j6FZKy5Yt01133aXGjRsrLi5OsbGxSk1N1ZNPPqmff/7Z6zwAAAAAAAB4INLrAL/77W9/q2PHjqlp06Zq1qyZfvzxR23YsEGjRo3SBx98oJUrVyoiIsLrTAAAAAAAAIQRQ7dSmjlzpm644QbFxMQ4Hzt06JB+85vf6J133lFGRob69OnjYSEAAAAAAADCjaFbKaWnpxf5WOXKlTVp0iS98847evvtt09r6JaSklLiZVu2bClVIwAAAAAAAMKLoZsLvvjiC7377rvavn27jhw5ovz8fBljnMsAAAAAAADw68LQrRSMMRo5cqQmTZrkDNlOdOjQodP6XqxmAwAAAAAAOHdw9tJSmD9/vp5//nnVrVtXCxcu1Ndff63jx4/LGOOcubSkYRwAAAAAAADOXax0K4XFixdLkqZPn65bbrkl5LKdO3d6kQQAAAAAAAALsNKtFPbv3y9Jqlu3bpHLFixYEO4cAAAAAAAAWIKhWylcfPHFkqRZs2aFHEa6Zs0aPfvss15lAQAAAAAAwGMM3Uph6NChio2N1bRp09S0aVP16NFDV199tdq1a6cBAwZ4nQcAAAAAAACPMHQrhYsvvlj/93//p06dOumHH37QkiVLdPjwYc2cOZOVbgAAAAAAAL9inEihlJKTk7VkyZJiL+PMpQAAAAAAAL9OrHQDAAAAAAAAXMbQDQAAAAAAAHBZwHAMpC8cPnBEOzZle52hhmlJqlQ11poeiSY/9kj2NdnWI9Hkxx7JvqZgj8k/KJOz1escSVIgqokC5eKsuY4ke283W3okmvzYI9nXZFuPRJMfeyT7mmzrkWjyY49Ekx97pIKmzvH99F7+WyEfZ+gGAAAAAAAAlML15boVGbpxIgWfsGWCa+tEmSZ/9Uj2NdnWI9Hkxx7JvibbeqRfmnLyDurH49u8zpEkVYlupKiIOB0+eEw7M7/xOkcNGtdWpbgYK283mvzTI9nXZFuPRJMfeyT7mmzrkWjyY49Ekx97pIKm4jB084kdm7I18tqxXmdo4qqxSm2fYk2PRJMfeyT7mmzrkWjyY49kX1NIz3WPeZ0jSZr4wRiltk/Rj8e3ad3eu7zOkSS1qvWKzou5Qjszv9GDfWZ5naNnXr9XzVo0tOZ+JNl335bsa7KtR7KvybYeiSY/9kj2NdnWI9Hkxx6JJj/2SAVNxeFECgAAAAAAAIDLGLoBAAAAAAAALmPoBgAAAAAAALiMoRsAAAAAAADgMoZuAAAAAAAAgMsYugEAAAAAAAAuY+jmouzsbAUCAbVv314HDx7U73//e9WvX19RUVEaNmyY13kAAAAAAAAIk0ivA85Fx44dU7t27bR79261a9dOzZs3V7Vq1bzOAgAAAAAAQJgwdCsDGzZsUKtWrbRz505VrVrV6xwAAAAAAACEGUO3MjJlypQzGrilpKSUeNmWLVvcSAIAAAAAAECYsKdbGahVq5Yuv/xyrzMAAAAAAADgEVa6lYELLrjgjL+G1WwAAAAAAADnDla6lYEKFSp4nQAAAAAAAAAPMXQDAAAAAAAAXMbQDQAAAAAAAHAZQzcAAAAAAADAZQzdAAAAAAAAAJcxdAMAAAAAAABcFul1wLkkKSlJxhivMwAAAAAAAOAxVroBAAAAAAAALmPoBgAAAAAAALiMoRsAAAAAAADgsoBhEzJfOHzgiHZsyvY6Qw3TklSpaqw1PRJNfuyR7GuyrUeiyY89kn1NtvVIvzTl5B3Uj8e3eZ0jSaoS3UhREXE6fPCYdmZ+43WOGjSurUpxMVbebjT5p0eyr8m2HokmP/ZI9jXZ1iPR5MceiSY/9kgFTZ3j++m9/LdCPs7QDQAAAAAAACiF68t1KzJ04+ylPmHLBNfWiTJN/uqR7GuyrUeiyY89kn1NtvVIdjeZ/INSbqbXOVJkYwXKxVl5HdHknx7JvibbeiSa/Ngj2ddkW49Ekx97JJr82CMVNBWHoZtP7NiUrZHXjvU6QxNXjVVq+xRreiSa/Ngj2ddkW49Ekx97JPuabOuR7G5SbqbMvl5e5ygQP0+KbmHldUSTf3ok+5ps65Fo8mOPZF+TbT0STX7skWjyY49U0FQcTqQAAAAAAAAAuIyhGwAAAAAAAOAyhm4uys7OViAQUPv27b1OAQAAAAAAgIcYugEAAAAAAAAuY+gGAAAAAAAAuIyhm0vGjh2r+vXrS5JWr16tQCDg/OvXr5+3cQAAAAAAAAirSK8DzhVpaWnq2rWrFi1apJo1a6pjx47OZW3atPGwDAAAAAAAAOHG0M0lt912m9LS0rRo0SIlJyfrtdde8zoJAAAAAAAAHmHoZomUlJQSL9uyZUsYSwAAAAAAAFBa7OkGAAAAAAAAuIyVbpZgNRsAAAAAAMC5g5VuAAAAAAAAgMsYugEAAAAAAAAuY+jmoujoaElSbm6uxyUAAAAAAADwEkM3F5133nmKiorSjh07lJeX53UOAAAAAAAAPMKJFFwUHR2tjh07aunSpUpNTVXz5s0VHR2tq666Sv379/c6DwAAAAAAAGHCSjeXzZ49W71799b//vc/vfHGG3r55Ze1evVqr7MAAAAAAAAQRqx0c1mNGjX0+uuve50BAAAAAAAAD7HSDQAAAAAAAHAZQzcAAAAAAADAZQzdAAAAAAAAAJcFjDHG6wic2uEDR7RjU7bXGWqYlqRKVWOt6ZFo8mOPZF+TbT0STX7skexrsq1HsrvJ5B+UcjO9zpEiGytQLs7K64gm//RI9jXZ1iPR5Mceyb4m23okmvzYI9Hkxx6poKlzfD+9l/9WyMcZugEAAAAAAAClcH25bkWGbpy91CdsmeDaOlGmyV89kn1NtvVINPmxR7KvybYeye4mk39QJmer1zkKRDVhpdtpsK3Jth7JvibbeiSa/Ngj2ddkW49Ekx97JJr82CMVNBWHoZtP7NiUrZHXjvU6QxNXjVVq+xRreiSa/Ngj2ddkW49Ekx97JPuabOuR7G4yOVuVt6+n1zmKiM9QoHzLguvouse8zpEkTfxgjLW3my1NtvVI9jXZ1iPR5Mceyb4m23okmvzYI9Hkxx6poKk4nEgBAAAAAAAAcBlDNwAAAAAAAMBlDN0AAAAAAAAAlzF0AwAAAAAAAFzG0A0AAAAAAABwGUM3AAAAAAAAwGUM3Urpyy+/1JAhQ9SwYUNVqFBB8fHxuvXWW/X3v//d6zQAAAAAAAB4hKFbKaxbt06pqal68cUXFRUVpVtuuUVNmzbVihUrdPXVV2v+/PleJwIAAAAAAMADDN3O0sGDB9W1a1cdPHhQ8+bNU1ZWlhYtWqSPP/5Y69atU1xcnO6++259//33XqcCAAAAAAAgzBi6naVXXnlFe/fu1bBhw9SzZ8+Qyy6//HL98Y9/1OHDhzVv3rzT+n4pKSkl/gMAAAAAAIC/MHQ7SytXrpQkdenSpdjL27ZtK0nasGFD2JoAAAAAAABgh0ivA/wqOztbknTVVVed9PN++OGH0/p+W7ZsKW0SAAAAAAAALMHQ7Szl5+dLkm6//XbFxsaW+HnJycnhSgIAAAAAAIAlGLqdpbp162rbtm16+OGHddlll3mdAwAAAAAAAIuwp9tZuv766yVJixcv9rgEAAAAAAAAtmHodpZ+97vfqUaNGnrmmWc0a9Ys53DToNzcXK1YsUKbN2/2qBAAAAAAAABeYeh2lqpWraq3335bVapU0e9+9zslJSXp5ptvVs+ePXXdddepevXq6tixo7Zv3+51KgAAAAAAAMKMPd1KoWXLlvrPf/6jSZMmadmyZVq9erUkqVatWmrXrp06d+6sDh06eFwJAAAAAACAcGPoVkqJiYl6+umn9fTTT3udAgAAAAAAAEtweCkAAAAAAADgMoZuAAAAAAAAgMsCxhjjdQRO7fCBI9qxKdvrDDVMS1KlqrHW9Eg0+bFHsq/Jth6JJj/2SPY12dYj2d1k8g/K5Gz1OkeBqCYKlIuz8jqiyT89kn1NtvVINPmxR7KvybYeiSY/9kg0+bFHKmjqHN9P7+W/FfJxhm4AAAAAAABAKVxfrluRoRsnUvAJWya4tk6UafJXj2Rfk209Ek1+7JHsa7KtR6LpTHpM/kEpN9PrnAKRjVl957Meyb4m23okmvzYI9nXZFuPRJMfeySa/NgjFTQVh6GbT+zYlK2R1471OkMTV41VavsUa3okmvzYI9nXZFuPRJMfeyT7mmzrkWg6kx7lZsrs6+V1jiQpED9Pim5hzXUk2Xu72dIj2ddkW49Ekx97JPuabOuRaPJjj0STH3ukgqbicCIFAAAAAAAAwGUM3QAAAAAAAACXMXQrI2PHjlUgENBrr73mdQoAAAAAAADCjKEbAAAAAAAA4DKGbgAAAAAAAIDLGLoBAAAAAAAALmPoVkpLlixRq1atVLFiRSUkJKhr1676/PPPvc4CAAAAAACAhyK9DvCzGTNmaODAgQoEAmrbtq1q1aqlf/zjH7ryyivVqVMnr/MAAAAAAADgEYZuZ2n37t0aPny4oqKitHTpUt14442SpJycHPXv31/z5s3zuBAAAAAAAABeYeh2ll555RX99NNP6tOnjzNwk6SoqChNnjxZixcv1tGjR0/7+6WkpJR42ZYtW0rVCgAAAAAAgPBiT7eztGbNGklS9+7di1yWkJCgG264IdxJAAAAAAAAsAQr3c7SN998I0mqV69esZcnJSWd0fdjNRsAAAAAAMC5g5VuAAAAAAAAgMsYup2lWrVqSSo4oUJxSvo4AAAAAAAAzn0M3c5S27ZtJUkLFiwoctm+ffu0cuXKcCcBAAAAAADAEgzdzlL//v1Vvnx5ZWRk6P3333c+npOTo+HDh+vIkSMe1gEAAAAAAMBLDN3OUv369fXcc88pJydHN954o6655hr16NFDF198sd5++2317NnT60QAAAAAAAB4hKFbKQwePFiLFy/WFVdcofXr12vFihVKTU3VP/7xD1144YVe5wEAAAAAAMAjkV4H+N1tt92m2267rcjHx44dq7Fjx4Y/CAAAAAAAAJ5jpRsAAAAAAADgMoZuAAAAAAAAgMsYugEAAAAAAAAuCxhjjNcROLXDB45ox6ZsrzPUMC1JlarGWtMj0eTHHsm+Jtt6JJr82CPZ12Rbj0TTmfSY/INSbqbXOQUiGytQLs6a60iy93azpUeyr8m2HokmP/ZI9jXZ1iPR5MceiSY/9kgFTZ3j++m9/LdCPs7QDQAAAAAAACiF68t1KzJ04+ylPmHLBNfWiTJN/uqR7GuyrUeiyY89kn1NtvVINPmxR2L13emw+Xazpcm2HokmP/ZI9jXZ1iPR5MceiSY/9kgFTcVh6OYTOzZla+S1Y73O0MRVY5XaPsWaHokmP/ZI9jXZ1iPR5Mceyb4m23okmvzYI/3SpNxMmX29vM6RJAXi50nRLay5nmy+3Wxpsq1HosmPPZJ9Tbb1SDT5sUeiyY89UkFTcTiRAgAAAAAAAOAyhm4AAAAAAACAyxi6AQAAAAAAAC5j6AYAAAAAAAC4zPOh244dO7Rnzx6vM05q7969ysrK8joDAAAAAAAAPuHJ0O3gwYOaPXu22rZtqwsvvFD//Oc/ncuOHz+uadOm6YorrlBCQoIqVqyopKQk3XrrrXrzzTeLfK/c3FxNnz5drVq1UlxcnGJiYpSWlqYXXnhBubm5RT4/KSlJgUBAxhhNnjxZTZo0UYUKFVSnTh0NHTpUBw4cKPI127ZtU+PGjdWyZUtNnz5d+/fvd/cKAQAAAAAAwDklbEO3/Px8rVy5Uj179lRiYqLuuecerV27Vu3atVNycrLzeT179tTgwYO1bds2tWzZUunp6brgggv0ySefaMaMGSHf89ixY7rhhhs0aNAgff7552rZsqWuv/567d27V8OHD1fXrl2Vn59fbM99992nBx54QHXr1lV6erry8vI0depUtWvXTgcPHgz53KSkJHXo0EEbN27UoEGDVKtWLXXr1k3Lli0rdrAHAAAAAACAX7fIsv4BWVlZmjNnjubOnauvv/5aktSoUSP17t1bvXr1Ur169ZzP3bVrlxYuXKh69erp008/VUJCgnPZTz/9pM8++yzke48cOVIffvih7rzzTs2cOVNVqlSRJB06dEjdu3fXkiVLNGvWLA0YMKBI19y5c7Vu3TpddtllkqTDhw8rPT1dq1at0ujRo/XCCy84n5uUlKT33ntPX3/9tTIyMjR37lwtXLhQCxcuVM2aNdWzZ0/17dtXzZo1c++KAwAAAAAAgG+VyUq3/fv3a9q0aWrRooUaN26sp556Sj///LMGDx6s9evXKysrS6NGjQoZuEnS999/L0m69NJLQwZuklShQgW1atXK+f/fffedXnrpJZ1//vl69dVXnYGbJFWuXFkvv/yyoqOjNX369GIbhwwZ4gzcJKlSpUqaOnWqAoGAXn755f+PvXuPrrK+E/3/TgJCSEgUflQwQLaC3FJJRBTiQIlyKR30F5FhAcNFRGxR1IMX0FU6nvQHp9SqIA2KAbXDAWZahaoMTAEVBaQULxVkwu1wCY5A1R5ACAQIZv/+YBGNCSiyYT8Pvl9rZa363PY7Tzb947O+ez8cOXKk2jkZGRmMGzeO9evX8/777zNmzBgAJk+eTHZ2Nh06dGDq1KmVv8eZyMrKOuWPJEmSJEmSwiXmQ7eHH36YJk2aMHr0aNatW8ett97KK6+8wu7du5k2bRrXXXfdKc9t06YNKSkpLFq0iMcff5zdu3ef8ti33nqL8vJyevfuTXJycrX9jRs35sorr2T9+vWUlZVV2z9w4MBq29q1a0d2djalpaXVVtV9XYcOHZgyZQoff/wxCxcuZMCAAWzcuJExY8aQkZHBXXfdddrzJUmSJEmSdOGK+dBtzZo1HD16lKSkJMaOHcvTTz9Nfn4+tWvX/sZz09LSmDlzJnXq1GHcuHFkZGTQunVrRo0axapVq6ocW1JSAsDMmTNJSEio8ae4uJhoNMrevXurvdbXV9mdFIlEAE478PuqWrVq0adPHwoLCxk/fjy1a9emvLyc1atXf6vzTyouLj7ljyRJkiRJksIl5t/pNmnSJGbMmMG8efOYOHEikyZNokePHgwdOpRbbrmFlJSU054/aNAgevTowauvvsrSpUtZvnw5RUVFFBUV8cADD/Dkk08CVD4gIScnh+zs7NNes06dOrH55b6mrKyMBQsWMGfOHBYvXszx48dJTk6mf//+3HnnnefkNSVJkiRJkhR8MR+65ebmkpuby7Rp05g/fz6zZs1i6dKlLFmyhNTUVPr27cvQoUPp3r07iYk1L7Rr1KgRI0eOZOTIkUSjUZYsWcKAAQOYPHkyI0aMICsri6ZNmwLQpUsXCgsLz7hz586dXHXVVTVuB7jssstqPC8ajbJ8+fLKhymcfNJply5dGD58OP379yctLe2MeyRJkiRJknThOCcPUgBISUlh2LBhvPHGG5SUlDBhwgSaNGnC7Nmz6dWrF82aNWPs2LF8+OGHp71OQkICvXv3pk+fPgCVH7e84YYbSEpKYuHChZSXl59x34svvlht26ZNm1i7di2pqank5ORU2bdx40Z+/vOfE4lEuOGGG3jhhRdo0KABjz76KFu3bmXlypXccccdDtwkSZIkSZJ07oZuX9W8eXN+8YtfsGXLFlatWsVPf/pTDh8+zBNPPEF2djaLFi0C4IMPPuCPf/wjx44dq3L+3r17WbNmDQDNmjUDTjxJdMSIEZSUlDBo0CA++eSTaq+7detW5s+fX2NTYWFhlYclHD58mHvvvZdoNMrtt99e5eEMq1atol27dkyaNIm9e/cyfPhw3nzzTbZv384vf/lLWrRocXY3SJIkSZIkSReUmH+89Jtcf/31XH/99UydOpVXXnmFWbNmEY1GgRMf7ezXrx/p6el07NiRxo0bs3//flasWMHBgwe5+eabyc3NrbzW1KlTKSkpYf78+SxevJicnByaN2/OoUOH2LBhA1u3biU/P59+/fpV6xgyZAidOnXixhtvJD09nRUrVvC3v/2NrKwsJkyYUOXYiooKunfvzm233Ua/fv2oV6/eub1JkiRJkiRJCrXzPnQ7qW7dugwcOJCBAwdWbuvcuTMTJ05k2bJlbN68mZUrV3LJJZfQvn177rjjDoYMGVLlGsnJyfzpT39i7ty5zJo1i7Vr1/LOO+/QqFEjMjMzGTp0aJXrf9Vvf/tbLr/8cp577jl27NhBgwYNGD16NBMmTCA9Pb3KsV27duX111+P/U2QJEmSJEnSBSluQ7eaNG7cmPHjxzN+/PhvfU5SUhLDhg1j2LBhZ/RaiYmJPPjggzz44INnmilJkiRJkiSd1nn5TjdJkiRJkiTp+8ShmyRJkiRJkhRjDt0kSZIkSZKkGEuInnx0qAKtdP8htq0tiXcGLXIipF6cEpgesCmMPRC8pqD1gE1h7IHgNQWtB2wKYw982RStOADHN8Y754RabUlITAvMfQry3y0oTUHrAZvC2APBawpaD9gUxh6wKYw9cKKpb4PhvFbxUpXtDt0kSZIkSZKks9AzsX+1oVugnl6qUwvKBDeoE2WbwtUDwWsKWg/YFMYeCF5T0HrApjD2wJdNx744yL6jW+KdA8AldVpxUVL9wNynyr/bgTK2b9oT7xwArmjThNS05ODdo/2H2LZuZ7xzAGiRnRnYf29BaQpaDwSvKWg9YFMYe8CmMPbAiaaaOHQLiW1rS3joxoJ4Z/DEsgKy87IC0wM2hbEHgtcUtB6wKYw9ELymoPWATWHsgS+b9h3dwhu77op3DgDdM6Zzab1rAnOfTt6j7Zv2MO725+KdA8BvfjeS9tddEbh7tG3dTsb2+l/xzgHg8aXjye7WLjD3CIL3/wFB64HgNQWtB2wKYw/YFMYeONFUEx+kIEmSJEmSJMWYQzdJkiRJkiQpxhy6SZIkSZIkSTHm0E2SJEmSJEmKMYdukiRJkiRJUow5dJMkSZIkSZJizKHbWVq0aBEjRoygbdu2pKWlkZKSQnZ2Nr/61a84evRovPMkSZIkSZIUB7XiHRB2d9xxB2VlZfzwhz+kffv2fP7557zzzjuMHz+eN954g6VLl5KUlBTvTEmSJEmSJJ1HDt3OUlFREb169SI5Obly28GDB/nnf/5nFi5cyNy5cxk2bFgcCyVJkiRJknS+OXQ7S/n5+dW21a9fnylTprBw4UJeffXVbzV0y8rKOuW+4uLis2qUJEmSJEnS+eXQLQb+z//5P/znf/4nW7du5dChQ1RUVBCNRiv3SZIkSZIk6fvFodtZiEajPPTQQ0yZMqVyyPZ1Bw8e/FbXcjWbJEmSJEnShcOnl56FP/zhD0yePJmmTZsyb948du3axbFjx4hGo5VPLj3VME6SJEmSJEkXLle6nYWXX34ZgOnTp9OnT58q+7Zv3x6PJEmSJEmSJAWAK93Owr59+wBo2rRptX0vvvji+c6RJEmSJElSQDh0OwutWrUCYMaMGVU+Rrpy5Uoef/zxeGVJkiRJkiQpzhy6nYX77ruPlJQUnnnmGX74wx8yaNAgfvSjH9GtWzdGjRoV7zxJkiRJkiTFiUO3s9CqVSvee+89br75Zv7+97+zYMECSktLKSoqcqWbJEmSJEnS95gPUjhLbdq0YcGCBTXu88mlkiRJkiRJ30+udJMkSZIkSZJizKGbJEmSJEmSFGMJUT8DGQql+w+xbW1JvDNokRMh9eKUwPSATWHsgeA1Ba0HbApjDwSvKWg9YFMYe+DLpmNfHGTf0S3xzgHgkjqtuCipfmDuU+Xf7UAZ2zftiXcOAFe0aUJqWnLw7tH+Q2xbtzPeOQC0yM4M7L+3oDQFrQeC1xS0HrApjD1gUxh74ERT3wbDea3ipSrbHbpJkiRJkiRJZ6FnYv9qQzcfpBASQZngBnWibFO4eiB4TUHrAZvC2APBawpaD9gUxh6w6Yx6DpSxfePueOcAcEXby4K70i0APfBlU/kXByg9tjHeOQCkXtSW2klpgblPQf67BaUpaD1gUxh7wKYw9sCJppo4dAuJbWtLeOjGgnhn8MSyArLzsgLTAzaFsQeC1xS0HrApjD0QvKag9YBNYewBm86kZ/vG3Tw8+Nl45wDw2NxRtO/UInD3KCg98GVT6bGNfPC3YfHOAeDqxv+bS5I7BeY+BfnvFpSmoPWATWHsAZvC2AMnmmrigxQkSZIkSZKkGHPoJkmSJEmSJMWYQzdJkiRJkiQpxhy6SZIkSZIkSTHm0E2SJEmSJEmKMYdukiRJkiRJUow5dDsLJSUlJCQkkJeXR1lZGY888giZmZnUqVOHli1b8thjjxGNRuOdKUmSJEmSpPOsVrwDLgTHjh2jV69ebNiwgby8PA4dOsTy5ct55JFHOHjwIBMnTox3oiRJkiRJks4jV7rFwOrVq0lKSmLHjh3Mnz+fxYsXs3LlSpKSkpgyZQqlpaXxTpQkSZIkSdJ55Eq3GEhMTKSoqIi0tLTKbR07duQnP/kJCxcu5L333iMvL++018jKyjrlvuLi4lilSpIkSZIk6TxwpVsMZGZm0rp162rbW7VqBcCePXvOd5IkSZIkSZLiyJVuMdC0adMat9evXx+Ao0ePfuM1XM0mSZIkSZJ04XClWwwkJnobJUmSJEmS9CWnRZIkSZIkSVKMOXSTJEmSJEmSYsyhmyRJkiRJkhRjDt0kSZIu8CTVAAAgAElEQVQkSZKkGHPoJkmSJEmSJMVYrXgHhFkkEiEajZ5yf0FBAQUFBecvSJIkSZIkSYHgSjdJkiRJkiQpxhy6SZIkSZIkSTHm0E2SJEmSJEmKsYTo6b6UTIFRuv8Q29aWxDuDFjkRUi9OCUwP2BTGHgheU9B6wKYw9kDwmoLWAzaFsQdsOqOeA2Vs37g73jkAXNH2MlLTkoN3jwLSA182lX9xgNJjG+OdA0DqRW2pnZQWmPsU5L9bUJqC1gM2hbEHbApjD5xo6ttgOK9VvFRlu0M3SZIkSZIk6Sz0TOxfbejm00tDIigT3KBOlG0KVw8EryloPWBTGHsgeE1B6wGbwtgDNoWxB4LXVKXnw4/inQNAi/bNA3WP4Mv7VFHxOV+UF8c7h6TaWSQmpgfyHgWlKWg9YFMYe8CmMPbAiaaaOHQLiW1rS3joxoJ4Z/DEsgKy87IC0wM2hbEHgtcUtB6wKYw9ELymoPWATWHsAZvC2APBa6rs+fAjxvX+VbxzAPjN4p+T/aO2J+5R91/GOweAJ974n2TnZfFFeTEH/t4/3jmk/T8vkVjn+sC8jyDA7+2A9IBNYewBm8LYAyeaauKDFCRJkiRJkqQYc+h2jhQUFJCQkMC//uu/xjtFkiRJkiRJ55lDN0mSJEmSJCnGHLpJkiRJkiRJMebQTZIkSZIkSYoxh25nacGCBeTm5lKvXj0aNmxIv3792LJlS7yzJEmSJEmSFEe14h0QZs8++yx33XUXCQkJdO3alSZNmvCXv/yF6667jptvvjneeZIkSZIkSYoTh27f0c6dO7n//vupXbs2//Ef/8GPf/xjAMrLy7n99tuZM2dOnAslSZIkSZIULw7dvqMXXniBI0eOMGzYsMqBG0Dt2rWZOnUqL7/8MocPH/7W18vKyjrlvuLi4rNqlSRJkiRJ0vnld7p9RytXrgRg4MCB1fY1bNiQXr16ne8kSZIkSZIkBYQr3b6j3bt3A5CZmVnj/kgkckbXczWbJEmSJEnShcOVbpIkSZIkSVKMOXT7jpo0aQKceKBCTU61XZIkSZIkSRc+h27fUdeuXQF48cUXq+3bu3cvS5cuPd9JkiRJkiRJCgiHbt/R7bffTp06dZg7dy6vv/565fby8nLuv/9+Dh06FMc6SZIkSZIkxZNDt+/o8ssv58knn6S8vJwf//jH3HDDDQwaNIhWrVrx6quvMnjw4HgnSpIkSZIkKU4cup2F0aNH8/LLL3PttdeyZs0alixZQnZ2Nn/5y19o2bJlvPMkSZIkSZIUJ7XiHRB2t9xyC7fccku17QUFBRQUFJz/IEmSJEmSJMWdK90kSZIkSZKkGHPoJkmSJEmSJMWYQzdJkiRJkiQpxhKi0Wg03hH6ZqX7D7FtbUm8M2iREyH14pTA9IBNYeyB4DUFrQdsCmMPBK8paD1gUxh7wKYw9kDwmqr0fPhRvHMAaNG+eaDuEXx5nyoqPueL8uJ455BUO4vExPRA3qOgNAWtB2wKYw/YFMYeONHUt8FwXqt4qcp2h26SJEmSJEnSWeiZ2L/a0M2nl4ZEUCa4QZ0o2xSuHgheU9B6wKYw9kDwmoLWAzaFsQdsOuOedTvjnQNAi+zMQN6j4xWfc/jYhnjnAFDvonbUOrmKK2h/t88Ps/2/Po53Dlf8sCmp6fUC8z6CgP/7D0AP2BTGHrApjD1woqkmDt1CYtvaEh66sSDeGTyxrIDsvKzA9IBNYeyB4DUFrQdsCmMPBK8paD1gUxh7wKYz6lm3k4e6/3/xzgHgiTceJbtbu8Ddo8PHNrD5k4HxzgGg9aW/J61uLtvW7WRszwnxzgHg8df+hexu7dj+Xx8zru/keOfwm5cfoP0/tArM+wgC/O8/ID1gUxh7wKYw9sCJppr4IAVJkiRJkiQpxhy6SZIkSZIkSTHm0E2SJEmSJEmKMYdukiRJkiRJUow5dJMkSZIkSZJiLO5Dt23btvHRRx/FO+O09uzZw6ZNm+KdIUmSJEmSpJCIy9DtwIEDPPfcc3Tt2pWWLVvy17/+tXLfsWPHeOaZZ7j22mtp2LAh9erVIxKJcNNNN/H73/++2rWOHz/O9OnTyc3NJS0tjeTkZHJycnjqqac4fvx4teMjkQgJCQlEo1GmTp1Ku3btqFu3LhkZGdx3333s37+/2jmbN2+mbdu2dO7cmenTp7Nv377Y3hBJkiRJkiRdUM7b0K2iooKlS5cyePBgGjduzJ133smqVavo1q0bbdq0qTxu8ODBjB49ms2bN9O5c2fy8/Np3rw5b7/9Ns8++2yVa5aVldGrVy/uvvtutmzZQufOnenZsyd79uzh/vvvp1+/flRUVNTYc++99zJ27FiaNm1Kfn4+X3zxBYWFhXTr1o0DBw5UOTYSidCjRw/effdd7r77bpo0aUL//v1ZtGhRjYM9SZIkSZIkfb/VOtcvsGnTJmbNmsXs2bPZtWsXAK1bt2bo0KEMGTKEzMzMymN37NjBvHnzyMzM5P3336dhw4aV+44cOcIHH3xQ5doPPfQQb775JgMGDKCoqIj09HQADh48yMCBA1mwYAEzZsxg1KhR1bpmz57N6tWrueaaawAoLS0lPz+fZcuW8eijj/LUU09VHhuJRHjttdfYtWsXc+fOZfbs2cybN4958+Zx6aWXMnjwYG677Tbat28fuxsnSZIkSZKk0DonK9327dvHM888Q6dOnWjbti2//vWvOXr0KKNHj2bNmjVs2rSJ8ePHVxm4AXz22WcAXH311VUGbgB169YlNze38r8//fRTZs6cSbNmzfjd735XOXADqF+/Ps8//zwXXXQR06dPr7HxnnvuqRy4AaSmplJYWEhCQgLPP/88R44cqXZORkYG48aNY/369bz//vuMGTMGgMmTJ5OdnU2HDh2YOnVq5e9xJrKysk75I0mSJEmSpHCJ+dDt4YcfpkmTJowePZp169Zx66238sorr7B7926mTZvGddddd8pz27RpQ0pKCosWLeLxxx9n9+7dpzz2rbfeory8nN69e5OcnFxtf+PGjbnyyitZv349ZWVl1fYPHDiw2rZ27dqRnZ1NaWlptVV1X9ehQwemTJnCxx9/zMKFCxkwYAAbN25kzJgxZGRkcNddd532fEmSJEmSJF24Yj50W7NmDUePHiUpKYmxY8fy9NNPk5+fT+3atb/x3LS0NGbOnEmdOnUYN24cGRkZtG7dmlGjRrFq1aoqx5aUlAAwc+ZMEhISavwpLi4mGo2yd+/eaq/19VV2J0UiEYDTDvy+qlatWvTp04fCwkLGjx9P7dq1KS8vZ/Xq1d/q/JOKi4tP+SNJkiRJkqRwifl3uk2aNIkZM2Ywb948Jk6cyKRJk+jRowdDhw7llltuISUl5bTnDxo0iB49evDqq6+ydOlSli9fTlFREUVFRTzwwAM8+eSTAJUPSMjJySE7O/u016xTp05sfrmvKSsrY8GCBcyZM4fFixdz/PhxkpOT6d+/P3feeec5eU1JkiRJkiQFX8yHbrm5ueTm5jJt2jTmz5/PrFmzWLp0KUuWLCE1NZW+ffsydOhQunfvTmJizQvtGjVqxMiRIxk5ciTRaJQlS5YwYMAAJk+ezIgRI8jKyqJp06YAdOnShcLCwjPu3LlzJ1dddVWN2wEuu+yyGs+LRqMsX7688mEKJ5902qVLF4YPH07//v1JS0s74x5JkiRJkiRdOM7JgxQAUlJSGDZsGG+88QYlJSVMmDCBJk2aMHv2bHr16kWzZs0YO3YsH3744Wmvk5CQQO/evenTpw9A5cctb7jhBpKSkli4cCHl5eVn3Pfiiy9W27Zp0ybWrl1LamoqOTk5VfZt3LiRn//850QiEW644QZeeOEFGjRowKOPPsrWrVtZuXIld9xxhwM3SZIkSZIknbuh21c1b96cX/ziF2zZsoVVq1bx05/+lMOHD/PEE0+QnZ3NokWLAPjggw/44x//yLFjx6qcv3fvXtasWQNAs2bNgBNPEh0xYgQlJSUMGjSITz75pNrrbt26lfnz59fYVFhYWOVhCYcPH+bee+8lGo1y++23V3k4w6pVq2jXrh2TJk1i7969DB8+nDfffJPt27fzy1/+khYtWpzdDZIkSZIkSdIFJeYfL/0m119/Pddffz1Tp07llVdeYdasWUSjUeDERzv79etHeno6HTt2pHHjxuzfv58VK1Zw8OBBbr75ZnJzcyuvNXXqVEpKSpg/fz6LFy8mJyeH5s2bc+jQITZs2MDWrVvJz8+nX79+1TqGDBlCp06duPHGG0lPT2fFihX87W9/IysriwkTJlQ5tqKigu7du3PbbbfRr18/6tWrd25vkiRJkiRJkkLtvA/dTqpbty4DBw5k4MCBlds6d+7MxIkTWbZsGZs3b2blypVccskltG/fnjvuuIMhQ4ZUuUZycjJ/+tOfmDt3LrNmzWLt2rW88847NGrUiMzMTIYOHVrl+l/129/+lssvv5znnnuOHTt20KBBA0aPHs2ECRNIT0+vcmzXrl15/fXXY38TJEmSJEmSdEGK29CtJo0bN2b8+PGMHz/+W5+TlJTEsGHDGDZs2Bm9VmJiIg8++CAPPvjgmWZKkiRJkiRJp3VevtNNkiRJkiRJ+j5x6CZJkiRJkiTFWEL05FMMvicikQg7d+4kbL926f5DbFtbEu8MWuRESL04JTA9YFMYeyB4TUHrAZvC2APBawpaD9gUxh6w6Yx71u2Mdw4ALbIzA3mPjld8zuFjG+KdA0C9i9pRKzE9mH+3zw+z/b8+jncOV/ywKanp9QLzPoKA//sPQA/YFMYesCmMPXCiqW+D4bxW8VKV7d+7oZskSZIkSZIUSz0T+1cbugXqQQo6taBMcIM6UbYpXD0QvKag9YBNYeyB4DUFrQdsCmMP2BTGHghe08mew8cPsassGKvKMpIzqVcrhdLSI2zd+km8cwBo2fJSUlPrBmb1XdBWTEJw39tB6QGbwtgDNoWxB0401cShW0hsW1vCQzcWxDuDJ5YVkJ2XFZgesCmMPRC8pqD1gE1h7IHgNQWtB2wKYw/YdMY93X8Z7xwAnnjjfwbyHu0q20nh1gnxzgHg3pb/wpX127F16yc8eP/ceOcA8OSUweTkZLJt3U7G9vpf8c7h8aXjye7Wzvf26XoC9v9HYFMYe8CmMPbAiaaa+CAFSZIkSZIkKcYcukmSJEmSJEkx5tDtHElISCASicQ7Q5IkSZIkSXHg0E2SJEmSJEmKMR+kcI5s3LiR2rVrxztDkiRJkiRJceDQ7Rxp06ZNvBMkSZIkSZIUJ3689BzxO90kSZIkSZK+vxy6SZIkSZIkSTHm0E2SJEmSJEmKMb/TLSCysrJOua+4uPg8lkiSJEmSJOlsudJNkiRJkiRJijFXugWEq9kkSZIkSZIuHK50kyRJkiRJkmLMoZskSZIkSZIUYw7dJEmSJEmSpBhz6CZJkiRJkiTFmEM3SZIkSZIkKcYcukmSJEmSJEkxViveAReqaDQa7wRJkiRJkiTFiSvdJEmSJEmSpBhz6CZJkiRJkiTFmEM3SZIkSZIkKcYSon75WCiU7j/EtrUl8c6gRU6E1ItTAtMDNoWxB4LXFLQesCmMPRC8pqD1gE1h7AGbwtgDwWs62XP4+CF2le2Mdw4AGcmZ1KuVQmnpEbZu/STeOQC0bHkpqal1T/zd1sX/PrXIzgzU+wiC+94OSg/YFMYesCmMPXCiqW+D4bxW8VKV7Q7dJEmSJEmSpLPQM7F/taGbTy8NiaBMcIM6UbYpXD0QvKag9YBNYeyB4DUFrQdsCmMP2BTGHgheU9B64MumaMUBOL4x3jkn1GpLQmJaYO5TkP9uQWkKWg/YFMYesCmMPXCiqSYO3UJi29oSHrqxIN4ZPLGsgOy8rMD0gE1h7IHgNQWtB2wKYw8EryloPWBTGHvApjD2QPCagtYDXzZxfCPRvUPinQNAQoM5cFGnwNynIP/dgtIUtB6wKYw9YFMYe+BEU018kIIkSZIkSZIUYw7dJEmSJEmSpBhz6CZJkiRJkiTFmEM3SZIkSZIkKcYcukmSJEmSJEkx5tDtLJSUlJCQkEBeXh5lZWU88sgjZGZmUqdOHVq2bMljjz1GNBqNd6YkSZIkSZLOs1rxDrgQHDt2jF69erFhwwby8vI4dOgQy5cv55FHHuHgwYNMnDgx3omSJEmSJEk6j1zpFgOrV68mKSmJHTt2MH/+fBYvXszKlStJSkpiypQplJaWxjtRkiRJkiRJ55Er3WIgMTGRoqIi0tLSKrd17NiRn/zkJyxcuJD33nuPvLy8014jKyvrlPuKi4tjlSpJkiRJkqTzwJVuMZCZmUnr1q2rbW/VqhUAe/bsOd9JkiRJkiRJiiNXusVA06ZNa9xev359AI4ePfqN13A1myRJkiRJ0oXDlW4xkJjobZQkSZIkSdKXnBZJkiRJkiRJMebQTZIkSZIkSYoxh26SJEmSJElSjDl0kyRJkiRJkmLMoZskSZIkSZIUY7XiHRBmkUiEaDR6yv0FBQUUFBScvyBJkiRJkiQFgivdJEmSJEmSpBhz6CZJkiRJkiTFmEM3SZIkSZIkKcYSoqf7UjIFRun+Q2xbWxLvDFrkREi9OCUwPWBTGHsgeE1B6wGbwtgDwWsKWg/YFMYesCmMPRC8pqD1wJdN0YoDcHxjvHNOqNWWhMS0wNynIP/dgtIUtB6wKYw9YFMYe+BEU98Gw3mt4qUq2x26SZIkSZIkSWehZ2L/akM3n14aEkGZ4AZ1omxTuHogeE1B6wGbwtgDwWsKWg/YFMYesCmMPRC8pqD1QLCbDpYeYeuOT+OdQ8vLf0D91LocPn6Ij8s+incOAE2Tm1OvVnD+bkF+H9kUnh6wKYw9cKKpJg7dQmLb2hIeurEg3hk8sayA7LyswPSATWHsgeA1Ba0HbApjDwSvKWg9YFMYe8CmMPZA8JqC1gPBbtq641P+x89/H+8cpv5qIFdf1ZyPyz5i8pZfxTsHgAda/ZxW9dsG5u8W5PeRTeHpAZvC2AMnmmrigxQkSZIkSZKkGHPoJkmSJEmSJMWYQzdJkiRJkiQpxhy6SZIkSZIkSTHm0E2SJEmSJEmKsbgP3bZt28ZHHwXjsdOnsmfPHjZt2hTvDEmSJEmSJIVEXIZuBw4c4LnnnqNr1660bNmSv/71r5X7jh07xjPPPMO1115Lw4YNqVevHpFIhJtuuonf/77647KPHz/O9OnTyc3NJS0tjeTkZHJycnjqqac4fvx4teMjkQgJCQlEo1GmTp1Ku3btqFu3LhkZGdx3333s37+/2jmbN2+mbdu2dO7cmenTp7Nv377Y3hBJkiRJkiRdUM7b0K2iooKlS5cyePBgGjduzJ133smqVavo1q0bbdq0qTxu8ODBjB49ms2bN9O5c2fy8/Np3rw5b7/9Ns8++2yVa5aVldGrVy/uvvtutmzZQufOnenZsyd79uzh/vvvp1+/flRUVNTYc++99zJ27FiaNm1Kfn4+X3zxBYWFhXTr1o0DBw5UOTYSidCjRw/effdd7r77bpo0aUL//v1ZtGhRjYM9SZIkSZIkfb/VOtcvsGnTJmbNmsXs2bPZtWsXAK1bt2bo0KEMGTKEzMzMymN37NjBvHnzyMzM5P3336dhw4aV+44cOcIHH3xQ5doPPfQQb775JgMGDKCoqIj09HQADh48yMCBA1mwYAEzZsxg1KhR1bpmz57N6tWrueaaawAoLS0lPz+fZcuW8eijj/LUU09VHhuJRHjttdfYtWsXc+fOZfbs2cybN4958+Zx6aWXMnjwYG677Tbat28fuxsnSZIkSZKk0DonK9327dvHM888Q6dOnWjbti2//vWvOXr0KKNHj2bNmjVs2rSJ8ePHVxm4AXz22WcAXH311VUGbgB169YlNze38r8//fRTZs6cSbNmzfjd735XOXADqF+/Ps8//zwXXXQR06dPr7HxnnvuqRy4AaSmplJYWEhCQgLPP/88R44cqXZORkYG48aNY/369bz//vuMGTMGgMmTJ5OdnU2HDh2YOnVq5e9xJrKysk75I0mSJEmSpHCJ+dDt4YcfpkmTJowePZp169Zx66238sorr7B7926mTZvGddddd8pz27RpQ0pKCosWLeLxxx9n9+7dpzz2rbfeory8nN69e5OcnFxtf+PGjbnyyitZv349ZWVl1fYPHDiw2rZ27dqRnZ1NaWlptVV1X9ehQwemTJnCxx9/zMKFCxkwYAAbN25kzJgxZGRkcNddd532fEmSJEmSJF24Yj50W7NmDUePHiUpKYmxY8fy9NNPk5+fT+3atb/x3LS0NGbOnEmdOnUYN24cGRkZtG7dmlGjRrFq1aoqx5aUlAAwc+ZMEhISavwpLi4mGo2yd+/eaq/19VV2J0UiEYDTDvy+qlatWvTp04fCwkLGjx9P7dq1KS8vZ/Xq1d/q/JOKi4tP+SNJkiRJkqRwifl3uk2aNIkZM2Ywb948Jk6cyKRJk+jRowdDhw7llltuISUl5bTnDxo0iB49evDqq6+ydOlSli9fTlFREUVFRTzwwAM8+eSTAJUPSMjJySE7O/u016xTp05sfrmvKSsrY8GCBcyZM4fFixdz/PhxkpOT6d+/P3feeec5eU1JkiRJkiQFX8yHbrm5ueTm5jJt2jTmz5/PrFmzWLp0KUuWLCE1NZW+ffsydOhQunfvTmJizQvtGjVqxMiRIxk5ciTRaJQlS5YwYMAAJk+ezIgRI8jKyqJp06YAdOnShcLCwjPu3LlzJ1dddVWN2wEuu+yyGs+LRqMsX7688mEKJ5902qVLF4YPH07//v1JS0s74x5JkiRJkiRdOM7JgxQAUlJSGDZsGG+88QYlJSVMmDCBJk2aMHv2bHr16kWzZs0YO3YsH3744Wmvk5CQQO/evenTpw9A5cctb7jhBpKSkli4cCHl5eVn3Pfiiy9W27Zp0ybWrl1LamoqOTk5VfZt3LiRn//850QiEW644QZeeOEFGjRowKOPPsrWrVtZuXIld9xxhwM3SZIkSZIknbuh21c1b96cX/ziF2zZsoVVq1bx05/+lMOHD/PEE0+QnZ3NokWLAPjggw/44x//yLFjx6qcv3fvXtasWQNAs2bNgBNPEh0xYgQlJSUMGjSITz75pNrrbt26lfnz59fYVFhYWOVhCYcPH+bee+8lGo1y++23V3k4w6pVq2jXrh2TJk1i7969DB8+nDfffJPt27fzy1/+khYtWpzdDZIkSZIkSdIFJeYfL/0m119/Pddffz1Tp07llVdeYdasWUSjUeDERzv79etHeno6HTt2pHHjxuzfv58VK1Zw8OBBbr75ZnJzcyuvNXXqVEpKSpg/fz6LFy8mJyeH5s2bc+jQITZs2MDWrVvJz8+nX79+1TqGDBlCp06duPHGG0lPT2fFihX87W9/IysriwkTJlQ5tqKigu7du3PbbbfRr18/6tWrd25vkiRJkiRJkkLtvA/dTqpbty4DBw5k4MCBlds6d+7MxIkTWbZsGZs3b2blypVccskltG/fnjvuuIMhQ4ZUuUZycjJ/+tOfmDt3LrNmzWLt2rW88847NGrUiMzMTIYOHVrl+l/129/+lssvv5znnnuOHTt20KBBA0aPHs2ECRNIT0+vcmzXrl15/fXXY38TJEmSJEmSdEGK29CtJo0bN2b8+PGMHz/+W5+TlJTEsGHDGDZs2Bm9VmJiIg8++CAPPvjgmWZKkiRJkiRJp3VevtNNkiRJkiRJ+j5x6CZJkiRJkiTFWEL05FMMvicikQg7d+4kbL926f5DbFtbEu8MWuRESL04JTA9YFMYeyB4TUHrAZvC2APBawpaD9gUxh6wKYw9ELymoPVAsJsOlh5h645P451Dy8t/QP3Uuhw+foiPyz6Kdw4ATZObU69WcP5uQX4f2RSeHrApjD1woqlvg+G8VvFSle3fu6GbJEmSJEmSFEs9E/tXG7oF6kEKOrWgTHCDOlG2KVw9ELymoPWATWHsgeA1Ba0HbApjD9gUxh4IXlPQesCmM+mJVhyA4xvjnXNCrbYkJKYF7h4FpQdsCmMP2BTGHjjRVBOHbiGxbW0JD91YEO8MnlhWQHZeVmB6wKYw9kDwmoLWAzaFsQeC1xS0HrApjD1gUxh7IHhNQesBm86kh+Mbie4dEu8cABIazIGLOgXuHgWlB2wKYw/YFMYeONFUEx+kIEmSJEmSJMWYQzdJkiRJkiQpxhy6SZIkSZIkSTHm0E2SJEmSJEmKMYdukiRJkiRJUow5dJMkSZIkSZJizKHbWSgpKSEhIYG8vDzKysp45JFHyMzMpE6dOrRs2ZLHHnuMaDQa70xJkiRJkiSdZ7XiHXAhOHbsGL169WLDhg3k5eVx6NAhli9fziOPPMLBgweZOHFivBMlSZIkSZJ0HrnSLQZWr15NUlISO3bsYP78+SxevJiVK1eSlJTElClTKC0tjXeiJEmSJEmSziNXusVAYmIiRUVFpKWlVW7r2LEjP/nJT1i4cCHvvfceeXl5p71GVlbWKfcVFxfHKlWSJEmSJEnngSvdYiAzM5PWrVtX296qVSsA9uzZc76TJEmSJEmSFEeudIuBpk2b1ri9fv36ABw9evQbr+FqNkmSJEmSpAuHK91iIDHR2yhJkiRJkqQvOS2SJEmSJEmSYsyhmyRJkiRJkhRjDt0kSZIkSZKkGHPoJkmSJEmSJMWYQzdJkiRJkiQpxmrFOyDMIpEI0Wj0lPsLCgooKCg4f0GSJEmSJEkKBFe6SZIkSZIkSTHm0E2SJEmSJEmKMYdukiRJkiRJUowlRE/3pWQKjNL9h9i2tiTeGbTIiZB6cUpgesCmMPZA8JqC1gM2hbEHgtcUtB6wKYw9YFMYeyB4TUHrAZvOpCdacQCOb4x3zgm12pKQmBa4exSUHrApjD1gUxh74ERT3wbDea3ipSrbHbpJkiRJkiRJZ6FnYv9qQzefXhoSQZngBnWibKh2WHsAAB8BSURBVFO4eiB4TUHrAZvC2APBawpaD9gUxh6wKYw9ELymoPWATWHsgQCuvgvYyjsI9t8tKE1B6wGbwtgDJ5pq4tAtJLatLeGhGwvincETywrIzssKTA/YFMYeCF5T0HrApjD2QPCagtYDNoWxB2wKYw8EryloPWBTGHvgyyaObyS6d0i8c0hoMAcu6hTIe2RTeHrApjD2wImmmvggBUmSJEmSJCnGHLpJkiRJkiRJMebQTZIkSZIkSYoxh26SJEmSJElSjDl0kyRJkiRJkmLModtZ+u///m/uueceWrRoQd26dWnQoAE33XQTf/7zn+OdJkmSJEmSpDhx6HYWVq9eTXZ2Nk8//TS1a9emT58+/PCHP2TJkiX86Ec/4g9/+EO8EyVJkiRJkhQHDt2+owMHDtCvXz8OHDjAnDlz2LRpE/Pnz2fFihWsXr2atLQ0Ro4cyWeffRbvVEmSJEmSJJ1nDt2+oxdeeIE9e/YwZswYBg8eXGVfx44d+Zd/+RdKS0uZM2fOt7peVlbWKX8kSZIkSZIULg7dvqOlS5cCcOutt9a4v2vXrgC88847561JkiRJkiRJwVAr3gFhVVJSAsA//MM/nPa4v//979/qesXFxWebJEmSJEmSpIBw6PYdVVRUAPBP//RPpKSknPK4Nm3anK8kSZIkSZIkBYRDt++oadOmbN68mUceeYRrrrkm3jmSJEmSJEkKEL/T7Tvq2bMnAC+//HKcSyRJkiRJkhQ0Dt2+o5/97Gf84Ac/4De/+Q0zZsyo/LjpScePH2fJkiX813/9V5wKJUmSJEmSFC8O3b6jiy++mFdffZX09HR+9rOfEYlE+Md//EcGDx5M9+7dadSoEb1792br1q3xTpUkSZIkSdJ55ne6nYXOnTuzfv16pkyZwqJFi1i+fDkATZo0oVu3bvTt25cePXrEuVKSJEmSJEnnm0O3s9S4cWMee+wxHnvssXinSJIkSZIkKSD8eKkkSZIkSZIUYw7dJEmSJEmSpBhz6CZJkiRJkiTFWEI0Go3GO0LfrHT/IbatLYl3Bi1yIqRenBKYHrApjD0QvKag9YBNYeyB4DUFrQdsCmMP2BTGHgheU9B6wKYw9sCXTdGKA3B8Y7xzoFZbEhLTAnmPbApPD9gUxh440dS3wXBeq3ipynaHbpIkSZIkSdJZ6JnYv9rQzaeXhkRQJrhBnSjbFK4eCF5T0HrApjD2QPCagtYDNoWxB2wKYw8EryloPWBTGHvgy6YDZUfYvOuzeOfQOqMRacl1+fzYETbs/TTeOQC0a/AD0i+qS+nnh9le/HG8cwC4Iqspqen1AvNeCvJ726bw9MCJppo4dAuJbWtLeOjGgnhn8MSyArLzsgLTAzaFsQeC1xS0HrApjD0QvKag9YBNYewBm8LYA8FrCloP2BTGHviyafOuz7hj2rx45/D8Pf/EtS2bsWHvpwxc8m/xzgHg9z/+Z3IbN2d78ceM6zc13jkA/Gb+/6D99a0C814K8nvbpvD0wImmmvggBUmSJEmSJCnGHLpJkiRJkiRJMebQTZIkSZIkSYoxh26SJEmSJElSjDl0kyRJkiRJkmLMoZskSZIkSZIUYw7dvqUjR45Qt25dIpFItX233HILCQkJdOnSpdq+jh07kpiYyGeffXYeKiVJkiRJkhQEDt2+pbp169KpUyd27txJSUlJ5faKigpWrFgBwLvvvsvhw4cr933++ed88MEHtGvXjkaNGp3vZEmSJEmSJMWJQ7czkJeXB8Bbb71VuW3dunXs27ePrKwsjh07xp///OfKfStWrKCioqLyPEmSJEmSJH0/OHQ7AzUN3U7+70cfffSU+7p16/aN187KyjrljyRJkiRJksLFodsZ6Ny5M3Xq1Kk2WKtfvz79+vUjMzOzxqGbK90kSZIkSZK+X2rFOyBMkpOTue6661i5ciUlJSU0b96clStX0rVrV5KSksjLy+Pf//3fOXz4MOXl5axdu/Zbf59bcXHxefgNJEmSJEmSdD640u0MffUjpie/z+3ktry8vMrvdTv5fW7f5qOlkiRJkiRJurA4dDtDJ4dob731VrWPj351IOdHSyVJkiRJkr6//HjpGbr++uu56KKLeOutt9i3bx9paWl06NABgEgkUvm9bmVlZcC3e4iCJEmSJEmSLiwO3c7Qye91e/vtt/nkk0/o3r07SUlJlfvz8vL4t3/7N7744gvatGnDpZdeGsdaSZIkSZIkxYMfL/0OTq5eO3LkSLWPj+bl5VFeXk5FRYUfLZUkSZIkSfqecuj2HXx1mFbT0O1U+yRJkiRJkvT94MdLv4MePXoQjUZr3BeJRE65T5IkSZIkSd8PrnSTJEmSJEmSYsyhmyRJkiRJkhRjCVE/CxkKpfsPsW1tSbwzaJETIfXilMD0gE1h7IHgNQWtB2wKYw8EryloPWBTGHvApjD2QPCagtYDNoWxB75sOlB2hM27Pot3Dq0zGpGWXJfPjx1hw95P450DQLsGPyD9orqUfn6Y7cUfxzsHgCuympKaXi8w76Ugv7dtCk8PnGjq22A4r1W8VGW7QzdJkiRJkiTpLPRM7F9t6OaDFEIiKBPcoE6UbQpXDwSvKWg9YFMYeyB4TUHrAZvC2AM2hbEHgtcUtB6wKYw98JWmA2Vs37Qn3jlc0aYJqWnJHP3iIP/36NZ45wDQsE5L6iTVP7HSbf1H8c4B4IqrmrvS7RvYFL4eONFUE4duIbFtbQkP3VgQ7wyeWFZAdl5WYHrApjD2QPCagtYDNoWxB4LXFLQesCmMPWBTGHsgeE1B6wGbwtgDXzZt37SHccNmxDuH3/zvn9L+uiv4v0e3suC/x8Q7B4D/t9lTXFbvarav/4hxNz0e7xwAfrNwLO27tAnMeynI722bwtMDJ5pq4oMUJEmSJEmSpBhz6CZJkiRJkiTFmEM3SZIkSZIkKcYcukmSJEmSJEkx5tBNkiRJkiRJirG4D922bdvGRx8F4/HFp7Jnzx42bdoU7wxJkiRJkiSFRFyGbgcOHOC5556ja9eutGzZkr/+9a+V+44dO8YzzzzDtddeS8OGDalXrx6RSISbbrqJ3//+99Wudfz4caZPn05ubi5paWkkJyeTk5PDU089xfHjx6sdH4lESEhIIBqNMnXqVNq1a0fdunXJyMjgvvvuY//+/dXO2bx5M23btqVz585Mnz6dffv2xfaGSJIkSZIk6YJy3oZuFRUVLF26lMGDB9O4cWPuvPNOVq1aRbdu3WjTpk3lcYMHD2b06NFs3ryZzp07k5+fT/PmzXn77bd59tlnq1yzrKyMXr16cffdd7NlyxY6d+5Mz5492bNnD/fffz/9+vWjoqKixp57772XsWPH0rRpU/Lz8/niiy8oLCykW7duHDhwoMqxkUiEHj168O6773L33XfTpEkT+vfvz6JFi2oc7EmSJEmSJOn7rda5foFNmzYxa9YsZs+eza5duwBo3bo1Q4cOZciQIWRmZlYeu2PHDubNm0dmZibvv/8+DRs2rNx35MgRPvjggyrXfuihh3jzzTcZMGAARUVFpKenA3Dw4EEGDhzIggULmDFjBqNGjarWNXv2bFavXs0111wDQGlpKfn5+SxbtoxHH32Up556qvLYSCTCa6+9xq5du5g7dy6zZ89m3rx5zJs3j0svvZTBgwdz22230b59+9jdOEmSJEmSJIXWOVnptm/fPp555hk6depE27Zt+fWvf83Ro0cZPXo0a9asYdOmTYwfP77KwA3gs88+A+Dqq6+uMnADqFu3Lrm5uZX//emnnzJz5kyaNWvG7373u8qBG0D9+vV5/vnnueiii5g+fXqNjffcc0/lwA0gNTWVwsJCEhISeP755zly5Ei1czIyMhg3bhzr16/n/fffZ8yYMQBMnjyZ7OxsOnTowNSpUyt/jzORlZV1yh9JkiRJkiSFS8yHbg8//DBNmjRh9OjRrFu3jltvvZVXXnmF3bt3M23aNK677rpTntumTRtSUlJYtGgRjz/+OLt37z7lsW+99Rbl5eX07t2b5OTkavsbN27MlVdeyfr16ykrK6u2f+DAgdW2tWvXjuzsbEpLS6utqvu6Dh06MGXKFD7++GMWLlzIgAED2LhxI2PGjCEjI4O77rrrtOdLkiRJkiTpwhXzoduaNWs4evQoSUlJjB07lqeffpr8/Hxq1679jeempaUxc+ZM6tSpw7hx48jIyKB169aMGjWKVatWVTm2pKQEgJkzZ5KQkFDjT3FxMdFolL1791Z7ra+vsjspEokAnHbg91W1atWiT58+FBYWMn78eGrXrk15eTmrV6/+VuefVFxcfMofSZIkSZIkhUvMv9Nt0qRJzJgxg3nz5jFx4kQmTZpEjx49GDp0KLfccgspKSmnPX/QoEH06NGDV199laVLl7J8+XKKioooKirigQce4MknnwSofEBCTk4O2dnZp71mnTp1YvPLfU1ZWRkLFixgzpw5LF68mOPHj5OcnEz//v258847z8lrSpIkSZIkKfhiPnTLzc0lNzeXadOmMX/+fGbNmsXSpUtZsmQJqamp9O3bl6FDh9K9e3cSE2teaNeoUSNGjhzJyJEjiUajLFmyhAEDBjB58mRGjBhBVlYWTZs2BaBLly4UFhaecefOnTu56qqratwOcNlll9V4XjQaZfny5ZUPUzj5pNMuXbrw/7d397Fe1oX/x1/nQKBCQKQF6YHTl+ZNp1+wYEkwjJtklpJTYtOJhtF0drPcLEfaDU23wrmc3azZHGXRLPFYOlloZRNC1FmhhQf7gh5/zshvfRlxI4OOfL5/MLUz8IZzPp3rfeHjsfnPdR0unl4f/nrt+pxr0aJFWbBgQUaMGHHYPQAAAAAcOf4jL1JIkmHDhuWiiy7Kb37zm3R3d+eaa67J2LFj8+Mf/zhz585NW1tbvvCFL+Sxxx571eu0tLTkjDPOyJlnnpkkL33dctasWRk0aFDuvvvu/Otf/zrsvttuu+2gY5s2bcqGDRsyfPjwTJo0qde5rq6uXHXVVWlvb8+sWbOyfPnyjB49Ol/5yleyefPmrF27NosXLza4AQAAAPCfG93+3bhx4/KlL30pf/nLX7Ju3bpccsklef7553P99ddn4sSJWbVqVZLkj3/8Y+64447s27ev15/ftm1bHnrooSRJW1tbkgNvEv3EJz6R7u7unH/++XnuuecO+ns3b96czs7OQzZ9+9vf7vWyhOeffz6f/exn02g0cvHFF/d6OcO6devy7ne/O1//+tezbdu2LFq0KL/97W/z5JNP5mtf+1omTJjQvxsEAAAAwBGl6V8vfS3Tpk3LtGnTcuONN+YXv/hFbrnlljQajSQHvto5f/78jBw5MlOmTMmYMWOyffv2rFmzJjt37sy8efPygQ984KVr3Xjjjenu7k5nZ2dWr16dSZMmZdy4cdm9e3cef/zxbN68OWeffXbmz59/UMfChQtz6qmnZvbs2Rk5cmTWrFmTv/3tb+no6Mg111zT62f379+fOXPm5OMf/3jmz5+fY4455j97kwAAAACotQEf3V501FFH5bzzzst555330rGpU6fm2muvzX333Zcnnngia9euzVve8pa8973vzeLFi7Nw4cJe1zj66KPzy1/+Mj/5yU9yyy23ZMOGDXn44Ydz3HHHZfz48bnwwgt7Xf/ffetb38o73/nO3HzzzXnqqacyevTofPrTn84111yTkSNH9vrZGTNm5Ne//nXzbwIAAAAAR6TKRrdDGTNmTK6++upcffXVr/vPDBo0KBdddFEuuuiiw/q7Wltbc8UVV+SKK6443EwAAAAAeFUD8jvdAAAAAOCNxOgGAAAAAE3W0njxLQZvEO3t7Xn66adTt//tXdt3Z8uG7qozMmFSe4aPGlZMT6Kpjj1JeU2l9SSa6tiTlNdUWk+iqY49iaY69iTlNZXWk2iqY0/yb0079uTJTVurzsl/nTw2w0ccnb0v7Mz/7t1cdU6S5K1D35Whg96cXf98Pk/+6f9XnZMk+a//Ny7DRx5TzL+lov9ta6pNT3Kg6ZzRi/Kr/St7HX/DjW4AAAAA0Eynty44aHQr6kUKvLJSFtxSF2VN9epJymsqrSfRVMeepLym0noSTXXsSTTVsScpr6m0nkRTHXuS8ppK60lebmrs35H0dFWdc8DgU9LSOqKY+1Ty56apPj3JgaZDMbrVxJYN3fn87KVVZ+T6+5Zm4syOYnoSTXXsScprKq0n0VTHnqS8ptJ6Ek117Ek01bEnKa+ptJ5EUx17kvKaSutJXm5KT1ca2xZWnZMkaRm9IhlyajH3qeTPTVN9epIDTYfiRQoAAAAA0GRGNwAAAABoMqMbAAAAADSZ0Q0AAAAAmszoBgAAAABNZnQDAAAAgCYzuvXTHXfckalTp+aYY47JsccemwULFmTz5s1ZunRpWlpa8sMf/rDqRAAAAAAG2OCqA+rsxhtvzOWXX57W1tacdtppGTNmTB566KG8//3vz7x586rOAwAAAKAiRrc+evLJJ3PllVdmyJAhWb16dWbNmpUk6enpySWXXJIf/OAHFRcCAAAAUBWjWx8tX748+/bty+LFi18a3JJk8ODB+eY3v5mVK1dm165dr/t6HR0dr3hu48aN/WoFAAAAYGD5nW59tG7duiTJggULDjo3atSozJ07d6CTAAAAACiEJ936aOvWrUmStra2Q54fN27cYV3P02wAAAAARw5PugEAAABAkxnd+mjs2LFJkmeeeeaQ51/pOAAAAABHPqNbH02fPj1J0tnZedC5f/7zn7n33nsHOgkAAACAQhjd+ujiiy/OkCFD8qMf/Shr1qx56fgLL7yQK664Ijt37qywDgAAAIAqGd36aMKECbnuuuuyd+/ezJo1K7Nnz87555+fE088MZ2dnVm4cGGSZMiQIRWXAgAAADDQjG798LnPfS633357pkyZkgcffDD33HNPJk2alIceeihHHXVUkuStb31rxZUAAAAADLTBVQfU3fz58zN//vxex1544YU88MADaWlpycSJEysqAwAAAKAqnnTrhy1btmT79u29ju3duzdXXnllHn/88cyZMydjxoypqA4AAACAqnjSrR9WrlyZr371q5k8eXLa2tqyY8eOPProo9m6dWuOPfbYfOc736k6EQAAAIAKGN36Yc6cOXn00Ufz4IMP5rHHHktPT0+OP/74XHbZZfniF7+Ytra2qhMBAAAAqEBLo9FoVB3Ba9u1fXe2bOiuOiMTJrVn+KhhxfQkmurYk5TXVFpPoqmOPUl5TaX1JJrq2JNoqmNPUl5TaT2Jpjr2JOU1ldaTvNzU2L8j6emqOueAwaekpXVEMfep5M9NU316kgNN54xelF/tX9nruNENAAAAAPrh9NYFB41uvl5aE6UsuKUuyprq1ZOU11RaT6Kpjj1JeU2l9SSa6tiTaKpjT1JeU2k9iaY69iTlNZXWk2g6nB5PA766Uj+3UnqSA02HYnSriS0buvP52Uurzsj19y3NxJkdxfQkmurYk5TXVFpPoqmOPUl5TaX1JJrq2JNoqmNPUl5TaT2Jpjr2JOU1ldaTaDqcnvR0pbFtYdU5SZKW0SuSIacWc4+Scj+3UnqSA02H0jqwGQAAAABw5DO6AQAAAECTGd0AAAAAoMmMbgAAAADQZEY3AAAAAGgyo1s/rV+/PmeffXaOO+64DB06NO3t7fnUpz6Vv/71r1WnAQAAAFARo1s/rFixIjNmzMhdd92Vk046Keeee26GDh2a733ve3nf+96XTZs2VZ0IAAAAQAWMbn30zDPP5JJLLkmS3Hnnnfnd736XW2+9NV1dXbn88svz3HPP5cILL6y4EgAAAIAqDK46oK5uvvnm7NmzJ+eff34++tGPvnS8tbU13/jGN3LbbbflkUceybp16zJ9+vTXvF5HR8crntu4cWNTmgEAAAAYGJ5066O1a9cmSS644IKDzg0dOjQLFizo9XMAAAAAvHF40q2PXnxRQnt7+yHPv3j82WeffV3X8zQbAAAAwJHDk27/IS0tLVUnAAAAAFARo1sfveMd70iSPP3004c8393dnSQ5/vjjByoJAAAAgEIY3fpoxowZSZJbb731oHP79u3LypUre/0cAAAAAG8cRrc+Wrx4cY4++uj89Kc/zapVq146vn///lx11VV59tlnM3ny5Nf15lIAAAAAjixepNBH48aNy0033ZRFixZl3rx5mT59etra2vKHP/whTzzxRN7+9rdnxYoVVWcCAAAAUAFPuvXDhRdemLVr1+ass85KV1dXbr/99uzZsyeXXXZZfv/73+fkk0+uOhEAAACACnjSrZ+mTZuWu+66q+oMAAAAAAriSTcAAAAAaDKjGwAAAAA0mdENAAAAAJqspdFoNKqO4LXt2r47WzZ0V52RCZPaM3zUsGJ6Ek117EnKayqtJ9FUx56kvKbSehJNdexJNNWxJymvqbSeRFMde5LymkrrSTQdTk9j/46kp6vqnAMGn5KW1hHF3KOk3M+tlJ7kQNM5oxflV/tX9jpudAMAAACAfji9dcFBo5u3l9ZEKQtuqYuypnr1JOU1ldaTaKpjT1JeU2k9iaY69iSa6tiTlNdUWk+iqY49SXlNpfUkmurYk3j67vUo9XM7FKNbTWzZ0J3Pz15adUauv29pJs7sKKYn0VTHnqS8ptJ6Ek117EnKayqtJ9FUx55EUx17kvKaSutJNNWxJymvqbSeRFMde5KXm9LTlca2hVXnJElaRq9IhpxazH0q9XM7FC9SAAAAAIAmM7oBAAAAQJMZ3QAAAACgyYxuAAAAANBkRjcAAAAAaDKjGwAAAAA0mdGtH7q7u9PS0pKZM2dmz549WbJkScaPH5+hQ4fmXe96V5YtW5ZGo1F1JgAAAAADbHDVAUeCffv2Ze7cuXn88cczc+bM7N69O/fff3+WLFmSnTt35tprr606EQAAAIAB5Em3Jli/fn0GDRqUp556Kp2dnVm9enXWrl2bQYMG5YYbbsiuXbuqTgQAAABgAHnSrQlaW1tz0003ZcSIES8dmzJlSj784Q/n7rvvziOPPJKZM2e+6jU6Ojpe8dzGjRublQoAAADAAPCkWxOMHz8+J5100kHHTzzxxCTJ1q1bBzoJAAAAgAp50q0JTjjhhEMef/Ob35wk2bt372tew9NsAAAAAEcOT7o1QWur2wgAAADAy6xFAAAAANBkRjcAAAAAaDKjGwAAAAA0mdENAAAAAJrM6AYAAAAATTa46oA6a29vT6PReMXzS5cuzdKlSwcuCAAAAIAieNINAAAAAJrM6AYAAAAATdbSeLXvR1KMXdt3Z8uG7qozMmFSe4aPGlZMT6Kpjj1JeU2l9SSa6tiTlNdUWk+iqY49iaY69iTlNZXWk2iqY09SXlNpPYmmOvYkLzc19u9Ierqqzjlg8ClpaR1RzH0q9XM7Z/Si/Gr/yl7HjW4AAAAA0A+nty4wutVVKQtuqYuypnr1JOU1ldaTaKpjT1JeU2k9iaY69iSa6tiTlNdUWk+iqY49SXlNpfUkmurYk2g6nJ7SngZs/M/ktI75796HK8rhMG3Z0J3Pz15adUauv29pJs7sKKYn0VTHnqS8ptJ6Ek117EnKayqtJ9FUx55EUx17kvKaSutJNNWxJymvqbSeRFMdexJNh9OTnq40ti2sOidJ0jJ6xSGPe5ECAAAAADSZ0Q0AAAAAmszoBgAAAABNZnQDAAAAgCYzugEAAABAkxndAAAAAKDJjG799Mwzz+Qzn/lMJkyYkKOOOiqjR4/OWWedlQceeKDqNAAAAAAqYnTrh/Xr12fixIn57ne/mze96U0588wz8573vCf33HNPTjvttPzsZz+rOhEAAACAChjd+mjHjh2ZP39+duzYkRUrVmTTpk3p7OzMmjVrsn79+owYMSKf/OQn8/e//73qVAAAAAAGmNGtj5YvX56tW7fm8ssvzwUXXNDr3JQpU/LlL385u3btyooVK17X9To6Ol7xPwAAAADqxejWR/fee2+S5Nxzzz3k+RkzZiRJHn744QFrAgAAAKAMg6sOqKvu7u4kyfTp01/15/7xj3+8rutt3Lixv0kAAAAAFMLo1kf79+9PknzsYx/LsGHDXvHnTj755IFKAgAAAKAQRrc+OuGEE/LEE09kyZIlmTx5ctU5AAAAABTE73Tro9NPPz1J8vOf/7ziEgAAAABKY3Tro0svvTRve9vbct111+X73//+S183fVFPT0/uueee/PnPf66oEAAAAICqGN36aNSoUbnzzjszcuTIXHrppWlvb89HPvKRXHDBBZkzZ06OO+64nHHGGdm8eXPVqQAAAAAMML/TrR+mTp2aP/3pT7nhhhuyatWq3H///UmSsWPH5oMf/GDOOeecfOhDH6q4EgAAAICBZnTrpzFjxmTZsmVZtmxZ1SkAAAAAFMLXSwEAAACgyYxuAAAAANBkRjcAAAAAaLKWRqPRqDqC17Zr++5s2dBddUYmTGrP8FHDiulJNNWxJymvqbSeRFMde5LymkrrSTTVsSfRVMeepLym0noSTXXsScprKq0n0VTHnkTT4fQ09u9Ierqqzjlg8Clp/M/ktI75716HjW4AAAAA0GS+XgoAAAAATWZ0AwAAAIAm+z9iRecuaD2R3QAAAABJRU5ErkJggg==;" parent="1" vertex="1">
          <mxGeometry x="435.01" y="542.5" width="78.53" height="45" as="geometry" />
        </mxCell>
        <mxCell id="LZXIq_IzAA0K0jnKkOAt-1" value="" style="rounded=1;whiteSpace=wrap;html=1;fillColor=none;strokeColor=#FF0000;dashed=1;" vertex="1" parent="1">
          <mxGeometry x="331.25" y="320" width="148.75" height="190" as="geometry" />
        </mxCell>
        <mxCell id="2PSiQPES3JSb_-M2PAoh-49" value="Trained" style="text;html=1;strokeColor=none;fillColor=none;align=center;verticalAlign=middle;whiteSpace=wrap;rounded=0;fontColor=#FF0000;" parent="1" vertex="1">
          <mxGeometry x="415" y="320" width="60" height="30" as="geometry" />
        </mxCell>
        <mxCell id="2PSiQPES3JSb_-M2PAoh-19" value="Frozen" style="text;html=1;strokeColor=none;fillColor=none;align=center;verticalAlign=middle;whiteSpace=wrap;rounded=0;fontColor=#007FFF;" parent="1" vertex="1">
          <mxGeometry x="430.63" y="150" width="60" height="30" as="geometry" />
        </mxCell>
      </root>
    </mxGraphModel>
  </diagram>
</mxfile>
